<svg xmlns="http://www.w3.org/2000/svg" viewBox="0 0 502 34.57"><defs><style>.cls-1,.cls-10,.cls-100,.cls-101,.cls-102,.cls-103,.cls-104,.cls-105,.cls-106,.cls-107,.cls-108,.cls-109,.cls-11,.cls-110,.cls-111,.cls-112,.cls-113,.cls-114,.cls-115,.cls-116,.cls-117,.cls-118,.cls-119,.cls-12,.cls-120,.cls-121,.cls-122,.cls-123,.cls-124,.cls-125,.cls-126,.cls-127,.cls-128,.cls-129,.cls-13,.cls-130,.cls-131,.cls-132,.cls-133,.cls-134,.cls-135,.cls-136,.cls-137,.cls-138,.cls-139,.cls-14,.cls-140,.cls-141,.cls-142,.cls-143,.cls-144,.cls-145,.cls-146,.cls-147,.cls-148,.cls-149,.cls-15,.cls-150,.cls-151,.cls-152,.cls-153,.cls-154,.cls-155,.cls-156,.cls-157,.cls-158,.cls-159,.cls-16,.cls-160,.cls-161,.cls-162,.cls-163,.cls-164,.cls-165,.cls-166,.cls-167,.cls-168,.cls-169,.cls-17,.cls-170,.cls-171,.cls-172,.cls-173,.cls-174,.cls-175,.cls-176,.cls-177,.cls-178,.cls-179,.cls-18,.cls-180,.cls-181,.cls-182,.cls-183,.cls-184,.cls-185,.cls-186,.cls-187,.cls-188,.cls-189,.cls-19,.cls-190,.cls-191,.cls-192,.cls-193,.cls-194,.cls-195,.cls-196,.cls-197,.cls-2,.cls-20,.cls-21,.cls-22,.cls-23,.cls-24,.cls-25,.cls-26,.cls-27,.cls-28,.cls-29,.cls-3,.cls-30,.cls-31,.cls-32,.cls-33,.cls-34,.cls-35,.cls-36,.cls-37,.cls-38,.cls-39,.cls-4,.cls-40,.cls-41,.cls-42,.cls-43,.cls-44,.cls-45,.cls-46,.cls-47,.cls-48,.cls-49,.cls-5,.cls-50,.cls-51,.cls-52,.cls-53,.cls-54,.cls-55,.cls-56,.cls-57,.cls-58,.cls-59,.cls-6,.cls-60,.cls-61,.cls-62,.cls-63,.cls-64,.cls-65,.cls-66,.cls-67,.cls-68,.cls-69,.cls-7,.cls-70,.cls-71,.cls-72,.cls-73,.cls-74,.cls-75,.cls-76,.cls-77,.cls-78,.cls-79,.cls-8,.cls-80,.cls-81,.cls-82,.cls-83,.cls-84,.cls-85,.cls-86,.cls-87,.cls-88,.cls-89,.cls-9,.cls-90,.cls-91,.cls-92,.cls-93,.cls-94,.cls-95,.cls-96,.cls-97,.cls-98,.cls-99{fill:none;stroke-width:0.5px;}.cls-1{stroke:#c21718;}.cls-1,.cls-10,.cls-100,.cls-101,.cls-102,.cls-103,.cls-104,.cls-105,.cls-106,.cls-107,.cls-108,.cls-109,.cls-11,.cls-110,.cls-111,.cls-112,.cls-113,.cls-114,.cls-115,.cls-116,.cls-117,.cls-118,.cls-119,.cls-120,.cls-121,.cls-122,.cls-123,.cls-124,.cls-125,.cls-126,.cls-127,.cls-128,.cls-129,.cls-13,.cls-130,.cls-131,.cls-132,.cls-133,.cls-134,.cls-135,.cls-136,.cls-137,.cls-138,.cls-139,.cls-14,.cls-140,.cls-141,.cls-142,.cls-143,.cls-144,.cls-145,.cls-146,.cls-147,.cls-148,.cls-149,.cls-15,.cls-150,.cls-151,.cls-152,.cls-153,.cls-154,.cls-155,.cls-156,.cls-157,.cls-158,.cls-159,.cls-160,.cls-161,.cls-162,.cls-163,.cls-164,.cls-165,.cls-166,.cls-167,.cls-168,.cls-169,.cls-17,.cls-170,.cls-171,.cls-172,.cls-173,.cls-174,.cls-175,.cls-176,.cls-177,.cls-178,.cls-179,.cls-18,.cls-180,.cls-181,.cls-182,.cls-183,.cls-184,.cls-185,.cls-186,.cls-187,.cls-188,.cls-189,.cls-19,.cls-190,.cls-191,.cls-192,.cls-193,.cls-194,.cls-195,.cls-196,.cls-197,.cls-2,.cls-20,.cls-22,.cls-23,.cls-24,.cls-25,.cls-26,.cls-27,.cls-29,.cls-3,.cls-31,.cls-32,.cls-33,.cls-34,.cls-35,.cls-36,.cls-37,.cls-38,.cls-39,.cls-4,.cls-40,.cls-41,.cls-42,.cls-43,.cls-44,.cls-45,.cls-46,.cls-47,.cls-48,.cls-49,.cls-5,.cls-50,.cls-51,.cls-52,.cls-53,.cls-54,.cls-55,.cls-56,.cls-57,.cls-58,.cls-59,.cls-6,.cls-60,.cls-61,.cls-62,.cls-63,.cls-64,.cls-65,.cls-66,.cls-67,.cls-68,.cls-69,.cls-7,.cls-70,.cls-71,.cls-72,.cls-73,.cls-74,.cls-75,.cls-76,.cls-77,.cls-78,.cls-79,.cls-8,.cls-80,.cls-81,.cls-82,.cls-83,.cls-84,.cls-85,.cls-86,.cls-87,.cls-88,.cls-89,.cls-9,.cls-90,.cls-91,.cls-92,.cls-93,.cls-94,.cls-95,.cls-96,.cls-97,.cls-98,.cls-99{stroke-miterlimit:10;}.cls-2{stroke:#c11819;}.cls-3{stroke:#c1181a;}.cls-4{stroke:#c0181a;}.cls-5{stroke:#c0181b;}.cls-6{stroke:#bf181c;}.cls-7{stroke:#bf191c;}.cls-8{stroke:#bf191d;}.cls-9{stroke:#be191d;}.cls-10{stroke:#be191e;}.cls-11{stroke:#bd191f;}.cls-12{stroke:#bd1920;}.cls-12,.cls-21,.cls-30{stroke-miterlimit:10;}.cls-13{stroke:#bc1a20;}.cls-14{stroke:#bc1a21;}.cls-15{stroke:#bb1a21;}.cls-16{stroke:#bb1a22;}.cls-16,.cls-28{stroke-miterlimit:10;}.cls-17{stroke:#ba1a22;}.cls-18{stroke:#ba1a23;}.cls-19{stroke:#ba1b23;}.cls-20{stroke:#b91b24;}.cls-21,.cls-22{stroke:#b81b25;}.cls-23{stroke:#b81b26;}.cls-24{stroke:#b71b26;}.cls-25{stroke:#b71c27;}.cls-26{stroke:#b61c27;}.cls-27{stroke:#b61c28;}.cls-28,.cls-29{stroke:#b51c29;}.cls-30{stroke:#b51c2a;}.cls-31{stroke:#b41d2a;}.cls-32{stroke:#b41d2b;}.cls-33{stroke:#b31d2b;}.cls-34{stroke:#b31d2c;}.cls-35{stroke:#b21d2c;}.cls-36{stroke:#b21d2d;}.cls-37{stroke:#b11d2e;}.cls-38{stroke:#b01e2e;}.cls-39{stroke:#b01e2f;}.cls-40{stroke:#af1e30;}.cls-41{stroke:#af1e31;}.cls-42{stroke:#ae1e31;}.cls-43{stroke:#ad1e32;}.cls-44{stroke:#ad1f33;}.cls-45{stroke:#ac1f33;}.cls-46{stroke:#ac1f34;}.cls-47{stroke:#ab1f34;}.cls-48{stroke:#ab1f35;}.cls-49{stroke:#aa1f35;}.cls-50{stroke:#aa1f36;}.cls-51{stroke:#a91f37;}.cls-52{stroke:#a92037;}.cls-53{stroke:#a82038;}.cls-54{stroke:#a72039;}.cls-55{stroke:#a6203a;}.cls-56{stroke:#a6203b;}.cls-57{stroke:#a5203b;}.cls-58{stroke:#a4213c;}.cls-59{stroke:#a4213d;}.cls-60{stroke:#a3213d;}.cls-61{stroke:#a3213e;}.cls-62{stroke:#a2213e;}.cls-63{stroke:#a2213f;}.cls-64{stroke:#a1213f;}.cls-65{stroke:#a12140;}.cls-66{stroke:#a02140;}.cls-67{stroke:#a02141;}.cls-68{stroke:#9f2141;}.cls-69{stroke:#9f2142;}.cls-70{stroke:#9e2142;}.cls-71{stroke:#9e2242;}.cls-72{stroke:#9e2243;}.cls-73{stroke:#9d2243;}.cls-74{stroke:#9d2244;}.cls-75{stroke:#9c2244;}.cls-76{stroke:#9c2245;}.cls-77{stroke:#9b2245;}.cls-78{stroke:#9b2246;}.cls-79{stroke:#9a2246;}.cls-80{stroke:#992247;}.cls-81{stroke:#992347;}.cls-82{stroke:#992348;}.cls-83{stroke:#982348;}.cls-84{stroke:#972349;}.cls-85{stroke:#97234a;}.cls-86{stroke:#96234a;}.cls-87{stroke:#95234b;}.cls-88{stroke:#95234c;}.cls-89{stroke:#94234c;}.cls-90{stroke:#93234d;}.cls-91{stroke:#93244d;}.cls-92{stroke:#92244d;}.cls-93{stroke:#92244e;}.cls-94{stroke:#91244f;}.cls-95{stroke:#90244f;}.cls-96{stroke:#902450;}.cls-97{stroke:#8f2450;}.cls-98{stroke:#8f2451;}.cls-99{stroke:#8e2451;}.cls-100{stroke:#8e2452;}.cls-101{stroke:#8d2452;}.cls-102{stroke:#8c2453;}.cls-103{stroke:#8b2453;}.cls-104{stroke:#8b2554;}.cls-105{stroke:#8a2555;}.cls-106{stroke:#892555;}.cls-107{stroke:#892556;}.cls-108{stroke:#882556;}.cls-109{stroke:#872557;}.cls-110{stroke:#862557;}.cls-111{stroke:#862558;}.cls-112{stroke:#852558;}.cls-113{stroke:#852559;}.cls-114{stroke:#842559;}.cls-115{stroke:#83255a;}.cls-116{stroke:#82255a;}.cls-117{stroke:#82255b;}.cls-118{stroke:#81265b;}.cls-119{stroke:#80265c;}.cls-120{stroke:#80265d;}.cls-121{stroke:#7f265d;}.cls-122{stroke:#7e265e;}.cls-123{stroke:#7d265e;}.cls-124{stroke:#7d265f;}.cls-125{stroke:#7c265f;}.cls-126{stroke:#7b2660;}.cls-127{stroke:#7a2661;}.cls-128{stroke:#792661;}.cls-129{stroke:#792662;}.cls-130{stroke:#782662;}.cls-131{stroke:#772763;}.cls-132{stroke:#762763;}.cls-133{stroke:#762764;}.cls-134{stroke:#752764;}.cls-135{stroke:#752765;}.cls-136{stroke:#742765;}.cls-137{stroke:#732766;}.cls-138{stroke:#722767;}.cls-139{stroke:#712767;}.cls-140{stroke:#712768;}.cls-141{stroke:#702768;}.cls-142{stroke:#6f2769;}.cls-143{stroke:#6e2769;}.cls-144{stroke:#6e276a;}.cls-145{stroke:#6d276a;}.cls-146{stroke:#6c276b;}.cls-147{stroke:#6b276b;}.cls-148{stroke:#6b276c;}.cls-149{stroke:#6a276c;}.cls-150{stroke:#69276d;}.cls-151{stroke:#68276d;}.cls-152{stroke:#68276e;}.cls-153{stroke:#67276e;}.cls-154{stroke:#66276f;}.cls-155{stroke:#65276f;}.cls-156{stroke:#652770;}.cls-157{stroke:#642770;}.cls-158{stroke:#632771;}.cls-159{stroke:#622771;}.cls-160{stroke:#622772;}.cls-161{stroke:#612772;}.cls-162{stroke:#602772;}.cls-163{stroke:#602773;}.cls-164{stroke:#5f2773;}.cls-165{stroke:#5e2774;}.cls-166{stroke:#5d2774;}.cls-167{stroke:#5d2775;}.cls-168{stroke:#5c2775;}.cls-169{stroke:#5b2775;}.cls-170{stroke:#5b2776;}.cls-171{stroke:#5a2776;}.cls-172{stroke:#592777;}.cls-173{stroke:#582777;}.cls-174{stroke:#582778;}.cls-175{stroke:#572778;}.cls-176{stroke:#562778;}.cls-177{stroke:#562779;}.cls-178{stroke:#552779;}.cls-179{stroke:#54277a;}.cls-180{stroke:#53277a;}.cls-181{stroke:#52277b;}.cls-182{stroke:#51277b;}.cls-183{stroke:#50277c;}.cls-184{stroke:#4f267c;}.cls-185{stroke:#4f267d;}.cls-186{stroke:#4e267d;}.cls-187{stroke:#4d267d;}.cls-188{stroke:#4d267e;}.cls-189{stroke:#4c267e;}.cls-190{stroke:#4b267f;}.cls-191{stroke:#4a267f;}.cls-192{stroke:#49267f;}.cls-193{stroke:#492680;}.cls-194{stroke:#482680;}.cls-195{stroke:#472681;}.cls-196{stroke:#462681;}.cls-197{stroke:#452682;}</style></defs><g id="Layer_2" data-name="Layer 2"><g id="Capa_1" data-name="Capa 1"><path class="cls-1" d="M.19,31.59C19.65,8.85,88.56,33,131.91,33c23.81,0,91.68-40.39,133.86-24.39C330.24,33,347,35.69,372.1,30.36c14.81-3.15,86.81-23,129.76,4"/><path class="cls-2" d="M.2,31.57C19.65,8.86,88.59,33,131.92,32.94c23.79,0,91.48-40.34,133.6-24.39,64.5,24.39,81.06,27.16,106.23,21.8,15-3.22,87.18-23,130,3.95"/><path class="cls-2" d="M.2,31.55c19.45-22.68,88.43,1.39,131.74,1.36,23.76,0,91.27-40.3,133.32-24.39,64.55,24.35,80.93,27.21,106.14,21.82,15.16-3.28,87.54-23,130.31,3.91"/><path class="cls-3" d="M.21,31.52C19.65,8.88,88.66,32.93,132,32.88,155.69,32.85,223-7.37,265,8.49c64.58,24.3,80.78,27.27,106,21.85C386.39,27,459,7.28,501.64,34.2"/><path class="cls-4" d="M.22,31.5C19.65,8.89,88.7,32.91,132,32.84c23.7,0,90.85-40.19,132.78-24.38,64.63,24.25,80.65,27.38,106,21.87C386.23,27,459,7.25,501.56,34.14"/><path class="cls-5" d="M.22,31.48C19.64,8.9,88.73,32.89,132,32.81c23.68,0,90.65-40.15,132.52-24.37C329.17,32.64,345,35.88,370.35,30.32c15.71-3.44,88.64-23.1,131.13,3.77"/><path class="cls-5" d="M.23,31.46C19.64,8.91,88.77,32.88,132,32.78c23.66-.05,90.45-40.1,132.25-24.37C329,32.56,344.62,35.92,370,30.32,385.89,26.81,459,7.18,501.41,34"/><path class="cls-6" d="M.24,31.44C19.64,8.91,88.8,32.86,132,32.75c23.63-.06,90.24-40,132-24.37C328.74,32.48,344.22,36,369.66,30.31,385.72,26.75,459,7.15,501.33,34"/><path class="cls-7" d="M.24,31.42c19.4-22.5,88.6,1.43,131.78,1.29,23.61-.06,90-40,131.71-24.36,64.79,24,80.1,27.64,105.58,22,16.24-3.62,89.72-23.18,132,3.63"/><path class="cls-8" d="M.25,31.39C19.64,8.93,88.88,32.83,132,32.68c23.57-.07,89.83-39.95,131.44-24.36,64.83,24,79.95,27.7,105.48,22C385.38,26.61,459,7.09,501.18,33.88"/><path class="cls-9" d="M.26,31.37c19.38-22.43,88.65,1.45,131.79,1.28,23.55-.08,89.59-39.82,131.18-24.36C328,32.39,343,36.06,368.61,30.29c16.6-3.74,90.45-23.23,132.5,3.54"/><path class="cls-10" d="M.26,31.35C19.63,9,89,32.8,132.06,32.62,155.59,32.53,221.45-7.14,263,8.26c64.85,24.07,79.67,27.83,105.29,22C385,26.48,459.07,7,501,33.77"/><path class="cls-10" d="M.27,31.33C19.63,9,89,32.79,132.08,32.58c23.5-.09,89.18-39.7,130.64-24.34,64.88,24,79.53,27.89,105.19,22,17-3.87,91.18-23.29,133,3.44"/><path class="cls-11" d="M.28,31.31C19.63,9,89,32.77,132.09,32.55c23.47-.1,89-39.64,130.37-24.34,64.93,24,79.4,27.95,105.1,22.06C384.7,26.35,459.1,7,500.88,33.67"/><path class="cls-11" d="M.28,31.28C19.63,9,89.05,32.75,132.11,32.52c23.44-.11,88.76-39.59,130.1-24.34,65,24,79.25,28,105,22.09,17.31-4,91.9-23.34,133.58,3.34"/><path class="cls-12" d="M.29,31.26C19.63,9,89.09,32.74,132.12,32.49,155.54,32.37,220.67-7,262,8.15c65,23.92,79.12,28.08,104.92,22.11,17.49-4.05,92.26-23.36,133.86,3.3"/><path class="cls-13" d="M.3,31.24C19.62,9,89.12,32.72,132.13,32.45,155.53,32.33,220.48-7,261.7,8.12c65,23.89,79,28.14,104.82,22.13,17.67-4.11,92.63-23.38,134.13,3.26"/><path class="cls-14" d="M.3,31.22C19.62,9,89.16,32.71,132.15,32.42,155.51,32.29,220.29-7,261.44,8.09c65.07,23.85,78.84,28.21,104.73,22.16,17.85-4.17,93-23.41,134.4,3.21"/><path class="cls-15" d="M.31,31.2C19.62,9,89.19,32.69,132.16,32.39c23.34-.14,87.93-39.36,129-24.32,65.1,23.81,78.69,28.26,104.63,22.17C383.85,26,459.18,6.8,500.5,33.4"/><path class="cls-15" d="M.32,31.18C19.62,9,89.23,32.68,132.18,32.36,155.49,32.21,219.9-6.94,260.93,8c65.14,23.78,78.56,28.32,104.54,22.19,18.21-4.29,93.72-23.46,135,3.12"/><path class="cls-16" d="M.32,31.15C19.62,9,89.26,32.66,132.19,32.32,155.48,32.17,219.71-6.92,260.68,8c65.17,23.74,78.41,28.38,104.44,22.22,18.39-4.36,94.09-23.49,135.23,3.07"/><path class="cls-17" d="M.33,31.13C19.62,9,89.3,32.65,132.2,32.29,155.46,32.13,219.51-6.9,260.42,8c65.21,23.71,78.28,28.45,104.36,22.24,18.56-4.41,94.44-23.51,135.49,3"/><path class="cls-18" d="M.34,31.11c19.27-22.06,89,1.52,131.88,1.15,23.23-.17,87.1-39.13,128-24.31,65.25,23.67,78.13,28.51,104.26,22.27,18.74-4.48,94.81-23.54,135.77,3"/><path class="cls-19" d="M.34,31.09c19.27-22,89,1.52,131.89,1.14,23.21-.18,86.89-39.08,127.69-24.31,65.28,23.64,78,28.57,104.16,22.29,18.92-4.54,95.17-23.57,136,2.93"/><path class="cls-20" d="M.35,31.07c19.26-22,89.05,1.53,131.9,1.12,23.18-.18,86.68-39,127.41-24.3C325,31.5,337.51,36.52,363.73,30.2c19.1-4.6,95.54-23.59,136.31,2.89"/><path class="cls-20" d="M.36,31c19.25-22,89.08,1.54,131.9,1.12,23.15-.18,86.48-39,127.15-24.29,65.35,23.56,77.71,28.68,104,22.33C382.66,25.53,459.28,6.58,500,33"/><path class="cls-20" d="M.36,31c19.25-21.94,89.11,1.55,131.91,1.11,23.13-.19,86.27-38.91,126.88-24.29C324.54,31.37,336.72,36.58,363,30.19,382.49,25.47,459.3,6.55,499.89,33"/><path class="cls-21" d="M.37,31c19.24-21.91,89.14,1.55,131.92,1.1,23.1-.2,86.06-38.85,126.61-24.29,65.42,23.49,77.42,28.8,103.78,22.37,19.64-4.78,96.63-23.66,137.14,2.75"/><path class="cls-22" d="M.38,31C19.6,9.1,89.54,32.54,132.3,32.06c23.08-.2,85.86-38.79,126.34-24.28,65.46,23.46,77.29,28.86,103.7,22.4,19.81-4.85,97-23.69,137.4,2.69"/><path class="cls-23" d="M.38,31C19.6,9.11,89.58,32.52,132.32,32c23-.21,85.64-38.73,126.07-24.28,65.5,23.42,77.14,28.92,103.6,22.42,20-4.91,97.35-23.72,137.67,2.65"/><path class="cls-24" d="M.39,30.94C19.6,9.12,89.62,32.51,132.33,32c23-.22,85.44-38.68,125.8-24.28,65.54,23.39,77,29,103.51,22.45,20.17-5,97.72-23.75,138,2.6"/><path class="cls-25" d="M.4,30.91C19.6,9.12,89.65,32.49,132.34,32c23-.23,85.24-38.63,125.54-24.28,65.57,23.35,76.86,29,103.41,22.47,20.35-5,98.08-23.77,138.22,2.56"/><path class="cls-25" d="M.4,30.89c19.2-21.76,89.29,1.58,132,1,23-.23,85-38.56,125.26-24.26C323.23,31,334.35,36.76,360.94,30.15c20.53-5.1,98.45-23.79,138.5,2.51"/><path class="cls-26" d="M.41,30.87c19.19-21.73,89.31,1.59,132,1,22.94-.24,84.82-38.51,125-24.26C323,30.91,334,36.79,360.59,30.15,381.3,25,459.4,6.33,499.36,32.61"/><path class="cls-27" d="M.42,30.85c19.17-21.7,89.34,1.59,132,1C155.3,31.62,217-6.59,257.12,7.61c65.68,23.24,76.44,29.21,103.12,22.53,20.9-5.23,99.18-23.85,139.05,2.42"/><path class="cls-27" d="M.42,30.83c19.17-21.67,89.37,1.6,132,1,22.89-.26,84.4-38.4,124.46-24.26,65.72,23.21,76.3,29.26,103,22.55C381,24.85,459.43,6.26,499.21,32.5"/><path class="cls-28" d="M.43,30.81c19.16-21.64,89.4,1.6,132,1,22.87-.26,84.2-38.34,124.2-24.25,65.75,23.17,76.16,29.32,102.94,22.58,21.25-5.35,99.9-23.9,139.58,2.32"/><path class="cls-29" d="M.43,30.78c19.16-21.6,89.43,1.62,132,1,22.83-.27,84-38.29,123.92-24.25,65.79,23.14,76,29.38,102.85,22.6C380.63,24.71,459.46,6.2,499.06,32.4"/><path class="cls-30" d="M.44,30.76c19.15-21.58,89.46,1.62,132,1C155.25,31.46,216.22-6.49,256.1,7.5,321.92,30.59,332,36.93,358.85,30.11,380.46,24.64,459.48,6.17,499,32.35"/><path class="cls-31" d="M.45,30.74c19.13-21.55,89.48,1.63,132,1C155.24,31.42,216-6.47,255.84,7.47,321.71,30.53,331.58,37,358.5,30.11c21.79-5.54,101-24,140.41,2.18"/><path class="cls-32" d="M.45,30.72c19.13-21.52,89.52,1.63,132,1,22.76-.29,83.37-38.12,123.12-24.23,65.9,23,75.59,29.54,102.56,22.66,22-5.6,101.36-24,140.68,2.14"/><path class="cls-33" d="M.46,30.7c19.12-21.49,89.54,1.63,132,.94,22.73-.3,83.16-38.07,122.85-24.23C321.27,30.4,330.79,37,357.8,30.1c22.15-5.67,101.72-24,141,2.09"/><path class="cls-33" d="M.47,30.67c19.11-21.45,89.57,1.65,132,.94,22.7-.31,82.95-38,122.58-24.23,66,23,75.31,29.66,102.38,22.71,22.32-5.73,102.08-24,141.22,2"/><path class="cls-34" d="M.47,30.65c19.11-21.42,89.6,1.65,132,.93,22.68-.32,82.75-38,122.31-24.23,66,22.91,75.17,29.72,102.29,22.73,22.5-5.79,102.44-24.07,141.49,2"/><path class="cls-35" d="M.48,30.63c19.1-21.39,89.63,1.66,132,.91,22.66-.32,82.55-37.9,122-24.22,66.05,22.88,75,29.77,102.19,22.76C379.43,24.22,459.57,6,498.53,32"/><path class="cls-36" d="M.49,30.61c19.08-21.36,89.65,1.66,132,.9,22.62-.33,82.33-37.84,121.78-24.21C320.4,30.13,329.2,37.12,356.41,30.07c22.85-5.92,103.17-24.13,142,1.9"/><path class="cls-36" d="M.49,30.59c19.08-21.34,89.69,1.67,132.06.89,22.6-.34,82.13-37.79,121.51-24.21,66.12,22.8,74.75,29.88,102,22.79,23-6,103.54-24.15,142.32,1.86"/><path class="cls-37" d="M.5,30.57c19.07-21.31,89.71,1.67,132.07.88,22.57-.35,81.92-37.74,121.24-24.21C320,30,328.41,37.17,355.71,30.06c23.21-6,103.9-24.18,142.59,1.81"/><path class="cls-37" d="M.51,30.54c19.06-21.27,89.74,1.69,132.07.87,22.55-.35,81.71-37.68,121-24.2,66.2,22.73,74.46,30,101.81,22.84,23.39-6.11,104.27-24.2,142.86,1.77"/><path class="cls-38" d="M.51,30.52c19.06-21.24,89.77,1.69,132.08.86C155.12,31,214.1-6.24,253.3,7.18,319.53,29.87,327.62,37.23,355,30.05c23.56-6.18,104.62-24.23,143.13,1.71"/><path class="cls-39" d="M.52,30.5c19.05-21.21,89.8,1.69,132.09.85C155.1,31,213.91-6.22,253,7.15,319.31,29.81,327.22,37.25,354.67,30c23.74-6.24,105-24.25,143.4,1.67"/><path class="cls-39" d="M.53,30.48c19-21.18,89.83,1.7,132.09.84,22.47-.38,81.1-37.52,120.17-24.19,66.3,22.61,74,30.15,101.53,22.9C378.24,23.73,459.67,5.75,498,31.66"/><path class="cls-40" d="M.53,30.46c19-21.15,89.86,1.7,132.11.82C155.08,30.9,213.52-6.18,252.53,7.1,318.88,29.67,326.43,37.31,354,30c24.1-6.38,105.72-24.31,144,1.57"/><path class="cls-40" d="M.54,30.43c19-21.11,89.89,1.72,132.11.82,22.42-.39,80.68-37.41,119.63-24.18C318.66,29.61,326,37.33,353.62,30,377.9,23.58,459.7,5.69,497.85,31.55"/><path class="cls-41" d="M.55,30.41c19-21.09,89.91,1.72,132.11.81C155.05,30.82,213.14-6.13,252,7c66.42,22.5,73.62,30.32,101.25,23,24.46-6.5,106.45-24.35,144.5,1.49"/><path class="cls-42" d="M.55,30.39c19-21.06,90,1.73,132.13.8C155,30.78,212.94-6.11,251.77,7c66.45,22.47,73.47,30.37,101.15,23,24.64-6.57,106.81-24.38,144.77,1.44"/><path class="cls-42" d="M.56,30.37c19-21,90,1.73,132.13.78C155,30.74,212.75-6.09,251.51,7,318,29.41,324.84,37.41,352.58,30c24.81-6.63,107.17-24.41,145,1.39"/><path class="cls-43" d="M.57,30.35c19-21,90,1.74,132.14.77C155,30.7,212.56-6.07,251.26,7c66.53,22.39,73.19,30.48,101,23,25-6.69,107.53-24.43,145.31,1.35"/><path class="cls-43" d="M.57,30.33c19-21,90,1.74,132.15.76C155,30.66,212.37-6,251,6.93c66.56,22.35,73,30.53,100.87,23.06,25.17-6.76,107.9-24.46,145.59,1.3"/><path class="cls-44" d="M.58,30.3c19-20.93,90.06,1.67,132.15.76C155,30.57,212.17-6,250.75,6.9,317.36,29.21,323.66,37.48,351.53,30c25.35-6.82,108.26-24.48,145.86,1.25"/><path class="cls-45" d="M.59,30.28c19-20.9,90.08,1.67,132.16.74C155,30.53,212-6,250.5,6.87,317.14,29.14,323.26,37.51,351.18,30c25.53-6.89,108.63-24.51,146.13,1.2"/><path class="cls-46" d="M.59,30.26c19-20.87,90.12,1.68,132.17.73,22.2-.5,79-37,117.48-24.15C316.92,29.08,322.86,37.54,350.83,30c25.71-7,109-24.53,146.41,1.16"/><path class="cls-47" d="M.6,30.24C19.54,9.39,90.74,31.92,132.78,31,155,30.45,211.6-6,250,6.81,316.7,29,322.47,37.56,350.48,30c25.89-7,109.36-24.56,146.68,1.12"/><path class="cls-48" d="M.61,30.22c18.93-20.82,90.17,1.68,132.18.71,22.15-.52,78.62-36.87,116.94-24.15C316.49,28.94,322.07,37.59,350.14,30c26.06-7.09,109.71-24.59,147,1.06"/><path class="cls-48" d="M.61,30.2c18.93-20.79,90.2,1.69,132.19.69,22.13-.52,78.41-36.81,116.68-24.13C316.27,28.88,321.67,37.61,349.79,30,376,22.8,459.87,5.34,497,31"/><path class="cls-49" d="M.62,30.17c18.92-20.75,90.23,1.7,132.2.69,22.1-.53,78.2-36.76,116.4-24.13,66.83,22.08,72.06,30.9,100.22,23.21,26.42-7.21,110.44-24.63,147.5,1"/><path class="cls-50" d="M.63,30.15c18.91-20.72,90.25,1.7,132.2.68C154.9,30.29,210.83-5.88,249,6.7c66.87,22,71.91,31,100.12,23.24,26.6-7.28,110.81-24.66,147.77.92"/><path class="cls-50" d="M.63,30.13c18.91-20.69,90.29,1.71,132.22.67,22-.55,77.79-36.65,115.86-24.13,66.91,22,71.77,31,100,23.26,26.78-7.35,111.17-24.69,148,.88"/><path class="cls-51" d="M.64,30.11C19.53,9.45,91,31.82,132.86,30.76c22-.55,77.58-36.59,115.6-24.12,66.94,22,71.63,31.07,99.93,23.28,27-7.41,111.54-24.71,148.32.84"/><path class="cls-52" d="M.65,30.09C19.53,9.46,91,31.8,132.87,30.73c22-.56,77.38-36.54,115.34-24.12,67,21.93,71.48,31.12,99.83,23.31,27.14-7.48,111.9-24.74,148.59.79"/><path class="cls-53" d="M.65,30.06C19.53,9.46,91,31.79,132.89,30.7c22-.57,77.17-36.49,115.06-24.12,67,21.9,71.34,31.18,99.74,23.33C375,22.37,460,5.15,496.56,30.65"/><path class="cls-53" d="M.66,30c18.87-20.57,90.4,1.73,132.24.63,21.94-.58,77-36.44,114.8-24.11,67.05,21.85,71.2,31.22,99.65,23.35C374.84,22.3,460,5.12,496.48,30.6"/><path class="cls-53" d="M.67,30c18.86-20.54,90.42,1.73,132.25.61,21.91-.58,76.76-36.38,114.52-24.1C314.54,28.34,318.5,37.81,347,29.9c27.67-7.68,113-24.81,149.41.65"/><path class="cls-54" d="M.67,30c18.86-20.51,90.46,1.74,132.26.6C154.82,30,209.48-5.73,247.19,6.5c67.13,21.77,70.91,31.33,99.46,23.39,27.84-7.74,113.35-24.84,149.68.6"/><path class="cls-54" d="M.68,30c18.84-20.48,90.48,1.74,132.26.59,21.86-.6,76.35-36.28,114-24.1,67.17,21.74,70.78,31.38,99.37,23.42,28-7.81,113.72-24.87,150,.55"/><path class="cls-55" d="M.69,30C19.52,9.51,91.2,31.7,133,30.54c21.83-.61,76.14-36.23,113.72-24.1,67.21,21.7,70.63,31.44,99.27,23.44C374.15,22,460,5,496.18,30.39"/><path class="cls-55" d="M.69,29.93C19.52,9.52,91.23,31.69,133,30.5c21.81-.61,75.94-36.17,113.45-24.09,67.25,21.66,70.49,31.49,99.18,23.46C374,21.93,460.05,5,496.1,30.33"/><path class="cls-56" d="M.7,29.91C19.52,9.53,91.27,31.67,133,30.47c21.79-.62,75.74-36.12,113.19-24.08C313.45,28,316.52,37.92,345.25,29.87c28.56-8,114.81-24.94,150.78.41"/><path class="cls-57" d="M.71,29.89C19.52,9.53,91.3,31.65,133,30.44c21.75-.63,75.52-36.07,112.91-24.08,67.33,21.58,70.21,31.59,99,23.5s115.17-25,151,.37"/><path class="cls-57" d="M.71,29.87c18.8-20.33,90.63,1.77,132.3.54,21.73-.64,75.32-36,112.65-24.08C313,27.87,315.72,38,344.56,29.86s115.53-25,151.31.32"/><path class="cls-58" d="M.72,29.85c18.79-20.3,90.65,1.77,132.31.52,21.7-.64,75.11-36,112.38-24.07,67.4,21.5,69.92,31.7,98.8,23.55,29.09-8.21,115.9-25,151.59.27"/><path class="cls-58" d="M.73,29.82C19.51,9.56,91.41,31.61,133,30.34,154.72,29.68,208-5.57,245.15,6.27,312.59,27.73,314.93,38,343.86,29.84c29.27-8.27,116.26-25,151.86.23"/><path class="cls-59" d="M.73,29.8c18.78-20.23,90.71,1.79,132.32.51C154.7,29.64,207.76-5.55,244.9,6.24c67.47,21.42,69.63,31.8,98.61,23.6C373,21.5,460.14,4.77,495.65,30"/><path class="cls-60" d="M.74,29.78c18.77-20.2,90.74,1.79,132.33.5,21.62-.68,74.49-35.81,111.57-24.07,67.52,21.39,69.5,31.86,98.52,23.62,29.63-8.4,117-25.09,152.41.13"/><path class="cls-61" d="M.75,29.76c18.76-20.17,90.76,1.8,132.33.48,21.6-.68,74.29-35.75,111.31-24,67.55,21.34,69.35,31.9,98.42,23.63,29.81-8.47,117.36-25.12,152.69.09"/><path class="cls-62" d="M.75,29.74c18.75-20.15,90.8,1.8,132.35.47,21.57-.69,74.08-35.7,111-24,67.6,21.3,69.21,32,98.34,23.66,30-8.54,117.71-25.15,153,0"/><path class="cls-62" d="M.76,29.72c18.74-20.12,90.82,1.8,132.35.46,21.54-.7,73.88-35.65,110.77-24,67.63,21.26,69.06,32,98.24,23.68,30.15-8.6,118.08-25.17,153.22,0"/><path class="cls-63" d="M.77,29.69c18.73-20.08,90.85,1.82,132.35.46,21.52-.71,73.68-35.6,110.5-24,67.67,21.22,68.93,32.06,98.15,23.7,30.33-8.67,118.44-25.19,153.5-.05"/><path class="cls-64" d="M.77,29.67c18.73-20.05,90.88,1.82,132.37.45,21.49-.72,73.47-35.55,110.23-24,67.71,21.18,68.78,32.11,98.05,23.73,30.51-8.74,118.81-25.22,153.77-.1"/><path class="cls-65" d="M.78,29.65c18.72-20,90.91,1.82,132.37.43,21.47-.72,73.26-35.49,110-24,67.75,21.14,68.64,32.16,98,23.75,30.69-8.8,119.17-25.24,154.05-.14"/><path class="cls-66" d="M.79,29.63c18.71-20,90.94,1.83,132.38.42,21.43-.73,73.05-35.44,109.69-24,67.79,21.1,68.5,32.21,97.86,23.77,30.87-8.88,119.54-25.28,154.32-.2"/><path class="cls-66" d="M.79,29.61c18.7-20,91,1.83,132.39.41C154.59,29.28,206-5.37,242.6,6,310.43,27.05,311,38.25,340.37,29.78c31.05-8.94,119.9-25.3,154.59-.24"/><path class="cls-67" d="M.8,29.58c18.69-19.92,91,1.84,132.39.41,21.39-.75,72.65-35.34,109.16-24C310.21,27,310.56,38.27,340,29.77c31.22-9,120.26-25.32,154.86-.28"/><path class="cls-68" d="M.81,29.56c18.68-19.9,91,1.85,132.4.39,21.36-.75,72.44-35.28,108.89-24,67.9,21,68.07,32.37,97.58,23.84,31.4-9.08,120.62-25.35,155.13-.33"/><path class="cls-69" d="M.81,29.54c18.68-19.87,91.06,1.85,132.41.38,21.33-.76,72.24-35.23,108.62-24,67.94,20.94,67.93,32.42,97.49,23.86,31.58-9.14,121-25.37,155.41-.38"/><path class="cls-70" d="M.82,29.52c18.67-19.84,91.08,1.86,132.42.37,21.3-.77,72-35.18,108.35-24,68,20.9,67.78,32.47,97.39,23.88,31.76-9.21,121.35-25.4,155.68-.42"/><path class="cls-71" d="M.83,29.5c18.65-19.81,91.11,1.86,132.42.36,21.28-.78,71.82-35.13,108.08-24,68,20.86,67.64,32.52,97.3,23.91,31.93-9.28,121.72-25.43,156-.47"/><path class="cls-72" d="M.83,29.48C19.48,9.7,92,31.34,133.26,29.82c21.26-.78,71.62-35.07,107.82-24,68.06,20.81,67.5,32.57,97.2,23.92,32.11-9.34,122.08-25.45,156.23-.52"/><path class="cls-73" d="M.84,29.45C19.48,9.71,92,31.33,133.28,29.79c21.22-.79,71.41-35,107.54-24,68.1,20.77,67.36,32.62,97.11,24,32.29-9.42,122.45-25.48,156.5-.57"/><path class="cls-74" d="M.85,29.43C19.48,9.72,92,31.31,133.29,29.76c21.2-.8,71.21-35,107.28-24,68.14,20.73,67.21,32.67,97,24,32.46-9.48,122.8-25.5,156.77-.61"/><path class="cls-75" d="M.85,29.41c18.63-19.68,91.23,1.88,132.46.32,21.17-.81,71-34.93,107-24,68.18,20.69,67.07,32.72,96.93,24,32.64-9.55,123.17-25.52,157-.65"/><path class="cls-75" d="M.86,29.39c18.62-19.66,91.25,1.89,132.46.3,21.15-.81,70.8-34.87,106.74-24,68.21,20.65,66.93,32.78,96.83,24C369.71,20.1,460.42,4.16,494.21,29"/><path class="cls-76" d="M.87,29.37c18.6-19.63,91.28,1.89,132.46.29,21.12-.82,70.6-34.82,106.47-24,68.26,20.61,66.79,32.83,96.74,24,33-9.68,123.9-25.58,157.59-.75"/><path class="cls-77" d="M.87,29.35c18.6-19.6,91.31,1.9,132.48.28,21.09-.83,70.39-34.77,106.2-24,68.29,20.56,66.64,32.87,96.64,24C369.37,20,460.45,4.1,494.06,28.91"/><path class="cls-78" d="M.88,29.32c18.59-19.56,91.34,1.91,132.48.28,21.07-.84,70.18-34.72,105.94-24,68.33,20.52,66.5,32.92,96.54,24.08C369.2,19.88,460.47,4.07,494,28.85"/><path class="cls-79" d="M.89,29.3c18.58-19.53,91.36,1.91,132.49.26,21-.84,70-34.66,105.66-24,68.37,20.48,66.36,33,96.45,24.1C369,19.8,460.48,4,493.9,28.8"/><path class="cls-79" d="M.89,29.28c18.58-19.5,91.4,1.92,132.5.25,21-.85,69.77-34.62,105.4-24C307.2,26,305,38.59,335.15,29.68,368.85,19.73,460.5,4,493.83,28.75"/><path class="cls-80" d="M.9,29.26c18.57-19.47,91.42,1.92,132.5.24,21-.86,69.57-34.57,105.13-24C307,25.93,304.6,38.61,334.8,29.68c33.88-10,125.71-25.71,159-1"/><path class="cls-81" d="M.9,29.24c18.56-19.44,91.46,1.92,132.52.23,21-.87,69.36-34.52,104.86-24,68.49,20.36,65.93,33.13,96.17,24.17,34.06-10.09,126.07-25.73,159.23-1"/><path class="cls-82" d="M.91,29.21c18.55-19.41,91.48,1.94,132.52.22C154.37,28.56,202.59-5,238,5.47c68.53,20.32,65.79,33.18,96.08,24.2C368.34,19.5,460.54,3.91,493.6,28.59"/><path class="cls-83" d="M.92,29.19c18.54-19.38,91.51,1.94,132.53.21,20.9-.88,69-34.41,104.32-23.95,68.57,20.27,65.64,33.23,96,24.21,34.42-10.23,126.8-25.78,159.77-1.12"/><path class="cls-83" d="M.92,29.17c18.54-19.35,91.54,1.95,132.54.2,20.88-.89,68.75-34.36,104-24C306.12,25.65,303,38.7,333.4,29.65,368,19.36,460.57,3.85,493.45,28.48"/><path class="cls-84" d="M.93,29.15c18.53-19.32,91.57,2,132.54.19C154.33,28.44,202-5,237.26,5.39c68.65,20.19,65.36,33.33,95.79,24.26,34.77-10.37,127.53-25.84,160.32-1.22"/><path class="cls-84" d="M.94,29.13c18.51-19.29,91.59,1.95,132.55.17C154.32,28.4,201.82-5,237,5.36c68.69,20.15,65.22,33.38,95.71,24.28C367.65,19.21,460.6,3.78,493.3,28.38"/><path class="cls-85" d="M.94,29.11c18.51-19.26,91.63,2,132.56.16,20.8-.91,68.13-34.21,103.25-23.94,68.73,20.11,65.07,33.43,95.61,24.3,35.12-10.5,128.25-25.88,160.86-1.31"/><path class="cls-86" d="M1,29.08c18.5-19.22,91.65,2,132.56.16,20.78-.92,67.93-34.16,103-23.94C305.26,25.36,301.43,38.79,332,29.63c35.3-10.57,128.62-25.91,161.14-1.36"/><path class="cls-86" d="M1,29.06c18.49-19.19,91.68,2,132.57.15,20.75-.93,67.72-34.11,102.71-23.94,68.81,20,64.79,33.54,95.42,24.35,35.48-10.64,129-25.93,161.41-1.4"/><path class="cls-87" d="M1,29c18.49-19.17,91.71,2,132.58.13C154.27,28.24,201.06-4.89,236,5.25c68.84,20,64.64,33.58,95.32,24.36C367,18.91,460.66,3.65,493,28.17"/><path class="cls-87" d="M1,29c18.48-19.14,91.74,2,132.59.12,20.69-.94,67.31-34,102.17-23.92,68.89,19.93,64.5,33.63,95.23,24.39,35.84-10.78,129.71-26,162-1.5"/><path class="cls-88" d="M1,29c18.46-19.11,91.76,2,132.59.11,20.67-.95,67.11-34,101.91-23.92,68.92,19.89,64.36,33.68,95.13,24.41,36-10.84,130.08-26,162.23-1.54"/><path class="cls-89" d="M1,29c18.46-19.07,91.8,2,132.6.11,20.65-1,66.91-33.91,101.64-23.92,69,19.85,64.22,33.73,95,24.44,36.18-10.92,130.43-26,162.5-1.59"/><path class="cls-89" d="M1,29c18.45-19,91.82,2,132.61.09,20.62-1,66.7-33.86,101.37-23.91,69,19.81,64.07,33.79,95,24.46,36.36-11,130.8-26.06,162.77-1.64"/><path class="cls-90" d="M1,28.93c18.44-19,91.85,2,132.61.08C154.2,28,200.11-4.8,234.71,5.1c69,19.76,63.93,33.84,94.86,24.48,36.54-11,131.16-26.08,163-1.68"/><path class="cls-91" d="M1,28.91c18.44-19,91.89,2,132.63.07,20.56-1,66.29-33.76,100.83-23.9,69.09,19.71,63.79,33.88,94.76,24.5,36.72-11.13,131.53-26.12,163.32-1.73"/><path class="cls-92" d="M1,28.89c18.43-19,91.91,2,132.63.06,20.54-1,66.08-33.71,100.56-23.9C303.33,24.72,297.85,39,328.87,29.57c36.9-11.19,131.89-26.14,163.59-1.77"/><path class="cls-93" d="M1,28.87c18.41-18.93,91.94,2,132.63,0C154.17,27.92,199.53-4.75,234,5c69.17,19.63,63.5,34,94.57,24.54C365.6,18.3,460.78,3.4,492.39,27.74"/><path class="cls-93" d="M1,28.84c18.41-18.89,92,2,132.65,0,20.48-1,65.67-33.61,100-23.89,69.21,19.58,63.36,34,94.48,24.57,37.25-11.33,132.62-26.19,164.14-1.87"/><path class="cls-94" d="M1,28.82c18.4-18.86,92,2,132.65,0,20.46-1,65.47-33.56,99.76-23.89,69.25,19.54,63.22,34.09,94.39,24.59,37.42-11.4,133-26.21,164.41-1.91"/><path class="cls-94" d="M1,28.8c18.39-18.83,92,2,132.66,0C154.13,27.8,199-4.7,233.19,4.93c69.28,19.5,63.07,34.14,94.29,24.62,37.6-11.47,133.34-26.25,164.68-2"/><path class="cls-95" d="M1,28.78c18.39-18.8,92.06,2,132.67,0,20.41-1,65.06-33.46,99.22-23.88,69.33,19.46,62.93,34.19,94.2,24.64,37.78-11.54,133.71-26.27,165-2"/><path class="cls-96" d="M1.05,28.76c18.38-18.77,92.08,2,132.67,0,20.38-1,64.86-33.41,99-23.87,69.37,19.4,62.78,34.23,94.1,24.65,38-11.61,134.07-26.29,165.23-2.05"/><path class="cls-97" d="M1.06,28.74c18.36-18.74,92.11,2.06,132.68,0,20.35-1,64.65-33.37,98.68-23.87,69.41,19.36,62.65,34.28,94,24.68,38.14-11.68,134.44-26.32,165.5-2.1"/><path class="cls-97" d="M1.06,28.71c18.36-18.71,92.14,2.07,132.69,0,20.33-1.05,64.45-33.32,98.42-23.87,69.45,19.32,62.5,34.33,93.91,24.7,38.31-11.75,134.8-26.34,165.78-2.15"/><path class="cls-98" d="M1.07,28.69c18.35-18.68,92.17,2.07,132.7,0,20.3-1,64.24-33.26,98.14-23.86,69.49,19.27,62.36,34.38,93.82,24.72,38.49-11.81,135.17-26.36,166-2.19"/><path class="cls-99" d="M1.08,28.67c18.34-18.65,92.19,2.08,132.7-.05,20.27-1.06,64-33.22,97.88-23.86C301.19,24,293.87,39.2,325.39,29.51c38.66-11.89,135.52-26.4,166.31-2.24"/><path class="cls-100" d="M1.08,28.65C19.42,10,93.31,30.73,133.79,28.59,154,27.52,197.63-4.58,231.4,4.73,301,23.92,293.48,39.22,325,29.5c38.84-11.95,135.89-26.42,166.59-2.29"/><path class="cls-101" d="M1.09,28.63C19.41,10,93.34,30.72,133.81,28.56,154,27.48,197.44-4.56,231.15,4.71c69.61,19.13,61.93,34.53,93.54,24.78,39-12,136.25-26.44,166.86-2.33"/><path class="cls-101" d="M1.1,28.6c18.31-18.55,92.28,2.1,132.72-.08C154,27.44,197.25-4.55,230.89,4.68c69.66,19.09,61.79,34.58,93.45,24.81C363.53,17.39,461,3,491.48,27.11"/><path class="cls-102" d="M1.1,28.58c18.31-18.52,92.31,2.11,132.74-.09,20.16-1.09,63.22-33,96.8-23.84,69.69,19,61.64,34.63,93.35,24.83C363.36,17.32,461,3,491.4,27.06"/><path class="cls-102" d="M1.11,28.56c18.3-18.49,92.34,2.11,132.74-.1,20.14-1.1,63-33,96.54-23.84,69.73,19,61.49,34.68,93.25,24.86C363.19,17.24,461,3,491.33,27"/><path class="cls-103" d="M1.12,28.54c18.29-18.47,92.36,2.11,132.74-.11C154,27.32,196.68-4.5,230.13,4.59c69.78,19,61.36,34.73,93.16,24.88C363,17.16,461,2.92,491.25,27"/><path class="cls-104" d="M1.12,28.52c18.29-18.44,92.4,2.12,132.76-.13,20.09-1.11,62.61-32.87,96-23.83,69.81,18.91,61.21,34.78,93.07,24.9C362.85,17.09,461,2.89,491.17,26.9"/><path class="cls-104" d="M1.13,28.5c18.27-18.41,92.42,2.12,132.76-.14C154,27.24,196.3-4.47,229.62,4.53c69.86,18.87,61.07,34.83,93,24.93C362.67,17,461,2.86,491.1,26.84"/><path class="cls-105" d="M1.14,28.47c18.26-18.37,92.45,2.14,132.77-.14,20-1.13,62.2-32.78,95.46-23.82,69.89,18.82,60.92,34.88,92.88,24.94C362.5,16.94,461.05,2.83,491,26.79"/><path class="cls-105" d="M1.14,28.45c18.26-18.34,92.48,2.14,132.78-.15,20-1.14,62-32.73,95.19-23.82,69.94,18.77,60.79,34.93,92.79,25C362.33,16.86,461.06,2.8,491,26.74"/><path class="cls-106" d="M1.15,28.43c18.25-18.31,92.51,2.15,132.78-.17,20-1.14,61.79-32.68,94.93-23.81,70,18.73,60.64,35,92.69,25,40.61-12.66,139.53-26.68,169.32-2.75"/><path class="cls-107" d="M1.16,28.41C19.4,10.13,93.69,30.56,134,28.23c20-1.15,61.58-32.63,94.65-23.81,70,18.68,60.5,35,92.6,25C362,16.71,461.09,2.73,490.8,26.63"/><path class="cls-108" d="M1.16,28.39C19.4,10.14,93.73,30.54,134,28.2,153.89,27,195.34-4.39,228.35,4.39c70.06,18.64,60.35,35.08,92.5,25,41-12.8,140.26-26.73,169.87-2.85"/><path class="cls-108" d="M1.17,28.36C19.39,10.14,93.76,30.53,134,28.17,153.88,27,195.15-4.37,228.09,4.36,298.2,23,288.31,39.49,320.51,29.42c41.13-12.87,140.61-26.75,170.13-2.89"/><path class="cls-109" d="M1.18,28.34C19.39,10.15,93.8,30.51,134,28.13,153.87,27,195-4.35,227.84,4.34,298,22.88,287.91,39.51,320.16,29.41c41.31-12.93,141-26.77,170.41-2.94"/><path class="cls-109" d="M1.18,28.32C19.39,10.16,93.83,30.5,134,28.1c19.86-1.18,60.77-32.44,93.58-23.79,70.19,18.49,59.93,35.22,92.23,25.1,41.49-13,141.34-26.8,170.68-3"/><path class="cls-110" d="M1.19,28.3c18.2-18.13,92.68,2.18,132.83-.23,19.82-1.19,60.56-32.39,93.31-23.79,70.23,18.45,59.78,35.27,92.13,25.12,41.67-13.08,141.71-26.83,171-3"/><path class="cls-111" d="M1.2,28.28C19.39,10.18,93.9,30.47,134,28c19.8-1.2,60.36-32.35,93.05-23.79,70.26,18.4,59.63,35.32,92,25.14C361,16.25,461.18,2.54,490.34,26.31"/><path class="cls-112" d="M1.2,28.26C19.38,10.19,93.94,30.45,134.05,28c19.77-1.2,60.15-32.29,92.77-23.78,70.31,18.35,59.5,35.37,91.94,25.17,42-13.22,142.44-26.88,171.5-3.13"/><path class="cls-113" d="M1.21,28.23C19.38,10.2,94,30.44,134.06,28,153.81,26.76,194-4.28,226.57,4.19c70.35,18.31,59.35,35.43,91.84,25.19,42.2-13.29,142.8-26.9,171.78-3.17"/><path class="cls-114" d="M1.22,28.21c18.16-18,92.79,2.21,132.85-.27,19.72-1.22,59.75-32.2,92.24-23.78,70.39,18.26,59.21,35.48,91.75,25.21C360.44,16,461.23,2.45,490.11,26.16"/><path class="cls-114" d="M1.22,28.19c18.16-18,92.83,2.21,132.87-.28,19.69-1.23,59.54-32.16,92-23.77,70.43,18.21,59.06,35.52,91.66,25.23C360.27,15.94,461.24,2.41,490,26.1"/><path class="cls-115" d="M1.23,28.17c18.15-18,92.85,2.22,132.87-.3,19.67-1.23,59.34-32.1,91.7-23.76,70.48,18.16,58.93,35.57,91.57,25.25,42.72-13.5,143.89-27,172.59-3.31"/><path class="cls-115" d="M1.24,28.15c18.14-17.92,92.88,2.22,132.87-.31,19.65-1.24,59.14-32.06,91.44-23.76C296.06,22.19,284.33,39.7,317,29.36c42.9-13.58,144.25-27,172.87-3.36"/><path class="cls-116" d="M1.24,28.12c18.13-17.88,92.91,2.24,132.89-.31,19.61-1.25,58.93-32,91.16-23.76,70.56,18.07,58.64,35.67,91.38,25.3,43.08-13.64,144.62-27,173.14-3.41"/><path class="cls-117" d="M1.25,28.1c18.12-17.85,92.94,2.24,132.89-.32C153.73,26.52,192.87-4.19,225,4c70.6,18,58.49,35.72,91.28,25.32,43.26-13.71,145-27,173.41-3.45"/><path class="cls-118" d="M1.26,28.08c18.11-17.82,93,2.25,132.9-.34C153.72,26.48,192.68-4.17,224.78,4,295.42,22,283.13,39.76,316,29.34c43.44-13.79,145.35-27.08,173.69-3.5"/><path class="cls-118" d="M1.26,28.06c18.11-17.79,93,2.25,132.91-.35C153.71,26.44,192.49-4.16,224.53,4c70.68,17.92,58.21,35.81,91.09,25.36,43.61-13.86,145.71-27.11,174-3.54"/><path class="cls-119" d="M1.27,28c18.1-17.76,93,2.26,132.91-.36,19.51-1.28,58.12-31.82,90.1-23.74,70.72,17.87,58.06,35.86,91,25.38C359.06,15.4,461.35,2.19,489.51,25.73"/><path class="cls-119" d="M1.28,28c18.09-17.74,93.05,2.26,132.92-.37C153.68,26.36,192.11-4.13,224,3.91c70.76,17.82,57.92,35.91,90.91,25.41,44-14,146.43-27.16,174.5-3.64"/><path class="cls-120" d="M1.28,28c18.08-17.7,93.08,2.28,132.93-.38,19.46-1.29,57.71-31.72,89.56-23.73,70.8,17.77,57.77,36,90.81,25.43,44.14-14.07,146.8-27.18,174.77-3.68"/><path class="cls-121" d="M1.29,28c18.07-17.67,93.11,2.28,132.94-.39,19.43-1.3,57.5-31.68,89.28-23.73,70.85,17.73,57.63,36,90.72,25.45,44.31-14.14,147.16-27.2,175-3.73"/><path class="cls-121" d="M1.3,28c18.06-17.64,93.13,2.28,132.94-.4,19.4-1.31,57.3-31.63,89-23.73,70.89,17.68,57.49,36.06,90.62,25.48C358.37,15.09,461.41,2.06,489.2,25.52"/><path class="cls-122" d="M1.3,27.93c18.06-17.61,93.17,2.29,133-.41C153.63,26.2,191.35-4.07,223,3.79c70.93,17.63,57.35,36.11,90.53,25.5C358.2,15,461.42,2,489.13,25.47"/><path class="cls-122" d="M1.31,27.91c18.05-17.58,93.19,2.29,133-.43,19.35-1.32,56.89-31.54,88.48-23.71,71,17.57,57.2,36.15,90.43,25.52C358,14.93,461.44,2,489.05,25.42"/><path class="cls-123" d="M1.32,27.89c18-17.55,93.22,2.3,133-.44C153.61,26.12,191-4,222.49,3.74c71,17.52,57.06,36.21,90.35,25.54C357.85,14.85,461.45,2,489,25.36"/><path class="cls-124" d="M1.32,27.86c18-17.51,93.25,2.31,133-.44C153.59,26.08,190.78-4,222.24,3.71,293.29,21.19,279.15,40,312.49,29.27c45.19-14.49,149-27.33,176.41-4"/><path class="cls-125" d="M1.33,27.84c18-17.49,93.28,2.32,133-.45C153.58,26,190.59-4,222,3.68c71.1,17.43,56.78,36.31,90.16,25.59,45.37-14.57,149.34-27.36,176.68-4"/><path class="cls-125" d="M1.34,27.82c18-17.46,93.3,2.32,133-.46C153.57,26,190.4-4,221.73,3.65,292.87,21,278.36,40,311.79,29.26c45.55-14.64,149.71-27.39,177-4.06"/><path class="cls-126" d="M1.34,27.8c18-17.43,93.34,2.33,133-.48C153.56,26,190.21-4,221.48,3.62,292.66,21,278,40,311.44,29.25c45.72-14.71,150.07-27.41,177.23-4.1"/><path class="cls-126" d="M1.35,27.78c18-17.4,93.36,2.33,133-.49C153.54,25.92,190-4,221.22,3.6c71.22,17.27,56.34,36.45,89.87,25.65C357,14.47,461.53,1.81,488.6,25.1"/><path class="cls-127" d="M1.36,27.75c18-17.36,93.39,2.35,133-.49C153.53,25.88,189.83-4,221,3.57c71.26,17.22,56.19,36.5,89.77,25.67,46.08-14.85,150.8-27.46,177.78-4.19"/><path class="cls-127" d="M1.36,27.73c18-17.33,93.42,2.35,133-.5,19.14-1.39,55.26-31.17,86.33-23.69C292,20.71,276.77,40.09,310.4,29.24,356.65,14.31,461.56,1.75,488.45,25"/><path class="cls-128" d="M1.37,27.71c18-17.3,93.45,2.36,133-.52,19.12-1.39,55.06-31.12,86.07-23.68,71.35,17.12,55.91,36.6,89.59,25.72,46.42-15,151.52-27.52,178.32-4.29"/><path class="cls-129" d="M1.38,27.69c18-17.28,93.47,2.36,133-.53,19.08-1.39,54.85-31.08,85.79-23.68C291.59,20.55,276,40.13,309.7,29.22c46.6-15.07,151.89-27.54,178.59-4.33"/><path class="cls-130" d="M1.38,27.67c18-17.25,93.51,2.37,133-.54,19.06-1.4,54.65-31,85.53-23.68,71.43,17,55.62,36.7,89.4,25.77C356.13,14.08,461.6,1.65,488.22,24.83"/><path class="cls-130" d="M1.39,27.65c18-17.22,93.54,2.37,133.05-.55,19-1.41,54.45-31,85.25-23.68,71.48,17,55.48,36.75,89.31,25.79C356,14,461.62,1.62,488.14,24.78"/><path class="cls-131" d="M1.39,27.62C19.33,10.44,95,30,134.45,27.06c19-1.41,54.25-30.94,85-23.66C291,20.31,274.78,40.19,308.65,29.2c47.13-15.28,153-27.61,179.42-4.47"/><path class="cls-131" d="M1.4,27.6C19.33,10.45,95,30,134.46,27c19-1.42,54-30.89,84.72-23.66,71.56,16.86,55.2,36.84,89.12,25.83C355.61,13.84,461.65,1.56,488,24.67"/><path class="cls-132" d="M1.41,27.58C19.33,10.46,95,30,134.48,27c19-1.43,53.84-30.85,84.45-23.66,71.6,16.81,55.05,36.89,89,25.85,47.48-15.43,153.7-27.67,180-4.57"/><path class="cls-133" d="M1.41,27.56C19.33,10.47,95.07,30,134.49,27c18.93-1.44,53.64-30.81,84.18-23.66,71.65,16.76,54.91,36.94,88.94,25.87,47.66-15.5,154.07-27.69,180.23-4.61"/><path class="cls-134" d="M1.42,27.54C19.33,10.48,95.1,30,134.51,26.93c18.9-1.44,53.43-30.75,83.91-23.65,71.69,16.71,54.76,37,88.84,25.9,47.83-15.57,154.43-27.72,180.5-4.66"/><path class="cls-134" d="M1.43,27.51c17.9-17,93.71,2.42,133.09-.61,18.87-1.45,53.23-30.71,83.65-23.65,71.73,16.66,54.62,37,88.74,25.92,48-15.64,154.8-27.74,180.78-4.71"/><path class="cls-135" d="M1.43,27.49c17.89-17,93.74,2.43,133.1-.62,18.85-1.46,53-30.67,83.38-23.64,71.77,16.6,54.48,37.08,88.65,25.94C354.75,13.45,461.72,1.4,487.61,24.41"/><path class="cls-136" d="M1.44,27.47c17.88-17,93.77,2.43,133.11-.63,18.82-1.47,52.82-30.62,83.11-23.64,71.81,16.55,54.33,37.13,88.55,26,48.37-15.79,155.53-27.8,181.33-4.8"/><path class="cls-136" d="M1.45,27.45c17.87-16.94,93.79,2.44,133.11-.65,18.8-1.47,52.62-30.57,82.84-23.63,71.86,16.5,54.19,37.18,88.46,26C354.4,13.29,461.75,1.33,487.46,24.3"/><path class="cls-137" d="M1.45,27.43c17.87-16.91,93.83,2.44,133.13-.66C153.34,25.29,187-3.76,217.15,3.14c71.9,16.44,54,37.23,88.37,26,48.71-15.94,156.25-27.85,181.86-4.9"/><path class="cls-137" d="M1.46,27.41c17.86-16.88,93.85,2.45,133.13-.67,18.74-1.49,52.21-30.48,82.3-23.63,71.95,16.39,53.91,37.28,88.28,26,48.89-16,156.61-27.87,182.14-4.94"/><path class="cls-138" d="M1.47,27.38c17.84-16.84,93.88,2.46,133.13-.67,18.72-1.5,52-30.44,82-23.63,72,16.34,53.76,37.33,88.18,26.05,49.07-16.07,157-27.89,182.41-5"/><path class="cls-138" d="M1.47,27.36c17.84-16.81,93.91,2.47,133.15-.69,18.69-1.5,51.8-30.39,81.76-23.62,72,16.29,53.62,37.38,88.09,26.08,49.24-16.15,157.34-27.92,182.69-5"/><path class="cls-139" d="M1.48,27.34c17.83-16.79,93.94,2.47,133.15-.7,18.66-1.51,51.6-30.35,81.5-23.61,72.07,16.22,53.47,37.42,88,26.09C353.54,12.9,461.83,1.17,487.08,24"/><path class="cls-140" d="M1.49,27.32c17.82-16.76,94,2.48,133.15-.71C153.28,25.09,186-3.69,215.87,3,288,19.17,269.2,40.47,303.77,29.12,353.37,12.82,461.84,1.14,487,24"/><path class="cls-141" d="M1.49,27.3c17.82-16.73,94,2.48,133.17-.72,18.61-1.53,51.19-30.26,81-23.61,72.16,16.12,53.19,37.52,87.8,26.14,49.77-16.37,158.44-28,183.51-5.18"/><path class="cls-141" d="M1.5,27.28c17.81-16.7,94,2.49,133.17-.74,18.59-1.53,51-30.21,80.7-23.6,72.19,16.07,53,37.57,87.71,26.16,49.94-16.44,158.79-28,183.77-5.22"/><path class="cls-142" d="M1.51,27.25c17.79-16.66,94.05,2.5,133.18-.74C153.25,25,185.47-3.66,215.11,2.91c72.24,16,52.9,37.62,87.62,26.19,50.12-16.52,159.16-28,184-5.27"/><path class="cls-142" d="M1.51,27.23C19.3,10.6,95.59,29.74,134.7,26.48c18.53-1.55,50.58-30.12,80.16-23.6,72.28,16,52.75,37.67,87.52,26.21C352.68,12.51,461.9,1,486.7,23.78"/><path class="cls-143" d="M1.52,27.21c17.78-16.6,94.11,2.51,133.19-.76,18.51-1.56,50.38-30.08,79.89-23.59,72.33,15.9,52.61,37.71,87.43,26.22C352.5,12.43,461.92,1,486.63,23.72"/><path class="cls-144" d="M1.53,27.19c17.77-16.57,94.13,2.52,133.2-.78,18.48-1.55,50.17-30,79.62-23.58,72.37,15.84,52.47,37.76,87.33,26.25C352.33,12.35,461.93,1,486.55,23.67"/><path class="cls-145" d="M1.53,27.17c17.77-16.55,94.17,2.52,133.21-.79,18.46-1.56,50-30,79.35-23.58,72.42,15.79,52.33,37.81,87.24,26.27C352.16,12.27,462,.92,486.47,23.62"/><path class="cls-145" d="M1.54,27.14c17.76-16.51,94.2,2.54,133.22-.79,18.42-1.57,49.76-29.95,79.08-23.58C286.29,18.5,266,40.63,301,29.06,352,12.19,462,.89,486.4,23.56"/><path class="cls-146" d="M1.55,27.12c17.74-16.48,94.22,2.54,133.22-.8,18.4-1.58,49.57-29.9,78.81-23.58,72.5,15.68,52,37.91,87.06,26.32C351.81,12.11,462,.86,486.32,23.51"/><path class="cls-146" d="M1.55,27.1c17.74-16.45,94.26,2.55,133.23-.82,18.38-1.58,49.37-29.85,78.55-23.57,72.54,15.63,51.89,38,87,26.34,51.35-17,161.7-28.23,186-5.59"/><path class="cls-147" d="M1.56,27.08c17.73-16.42,94.28,2.55,133.24-.83C153.15,24.66,184-3.56,213.07,2.68c72.59,15.57,51.75,38,86.87,26.37C351.47,12,462,.79,486.17,23.41"/><path class="cls-148" d="M1.57,27.06c17.72-16.39,94.31,2.56,133.24-.84,18.32-1.6,49-29.77,78-23.56C285.45,18.17,264.43,40.71,299.59,29,351.29,11.87,462,.76,486.1,23.35"/><path class="cls-149" d="M1.57,27c17.72-16.36,94.34,2.56,133.26-.85,18.29-1.61,48.75-29.73,77.74-23.56C285.24,18.08,264,40.73,299.24,29,351.12,11.79,462,.73,486,23.3"/><path class="cls-149" d="M1.58,27C19.29,10.69,96,29.59,134.84,26.15c18.27-1.61,48.55-29.67,77.47-23.55C285,18,263.63,40.75,298.89,29,351,11.72,462.05.7,485.94,23.25"/><path class="cls-150" d="M1.59,27c17.69-16.3,94.39,2.59,133.26-.87C153.1,24.5,183.2-3.51,212.06,2.57c72.75,15.34,51.17,38.2,86.48,26.45C350.77,11.64,462.06.67,485.87,23.19"/><path class="cls-150" d="M1.59,27C19.28,10.7,96,29.56,134.87,26.09,153.08,24.46,183-3.5,211.8,2.54c72.8,15.28,51,38.25,86.4,26.47C350.6,11.56,462.08.63,485.79,23.14"/><path class="cls-151" d="M1.6,27c17.68-16.24,94.45,2.6,133.28-.89,18.19-1.64,47.94-29.55,76.67-23.55,72.84,15.23,50.89,38.3,86.3,26.5C350.43,11.48,462.09.6,485.72,23.09"/><path class="cls-152" d="M1.61,26.93C19.28,10.72,96.09,29.53,134.9,26c18.16-1.64,47.73-29.5,76.39-23.54C284.18,17.65,262,40.83,297.5,29,350.25,11.4,462.11.57,485.64,23"/><path class="cls-153" d="M1.61,26.9c17.67-16.17,94.51,2.62,133.3-.91C153.05,24.34,182.44-3.47,211,2.46,284,17.56,261.64,40.85,297.15,29c52.93-17.67,165-28.45,188.41-6"/><path class="cls-153" d="M1.62,26.88C19.27,10.74,96.16,29.5,134.92,26,153,24.3,182.25-3.46,210.78,2.43c73,15.05,50.46,38.44,86,26.56C349.91,11.24,462.14.51,485.49,22.93"/><path class="cls-154" d="M1.63,26.86c17.64-16.11,94.56,2.63,133.31-.93C153,24.26,182.06-3.44,210.53,2.4c73,15,50.31,38.49,85.92,26.58,53.29-17.82,165.7-28.51,189-6.1"/><path class="cls-154" d="M1.63,26.84c17.64-16.08,94.6,2.63,133.32-.95C153,24.22,181.87-3.43,210.27,2.37,283.33,17.3,260.44,40.91,296.1,29,349.56,11.08,462.17.44,485.34,22.82"/><path class="cls-155" d="M1.64,26.82c17.63-16.06,94.62,2.64,133.33-1C153,24.19,181.68-3.42,210,2.34c73.1,14.88,50,38.59,85.74,26.63,53.63-18,166.42-28.56,189.5-6.2"/><path class="cls-156" d="M1.65,26.8c17.62-16,94.65,2.64,133.33-1,18-1.68,46.51-29.24,74.78-23.52C282.91,17.13,259.65,41,295.41,29c53.81-18,166.79-28.58,189.78-6.24"/><path class="cls-157" d="M1.65,26.77c17.62-16,94.68,2.66,133.34-1,18-1.69,46.31-29.2,74.52-23.51C282.7,17,259.25,41,295.06,29,349,10.84,462.21.35,485.11,22.66"/><path class="cls-157" d="M1.66,26.75c17.6-16,94.71,2.67,133.35-1,18-1.69,46.11-29.15,74.25-23.5C282.49,17,258.85,41,294.71,29,348.87,10.76,462.23.32,485,22.61"/><path class="cls-158" d="M1.67,26.73C19.26,10.8,96.41,29.4,135,25.73,153,24,180.93-3.38,209,2.23,282.28,16.86,258.45,41,294.36,28.94,348.7,10.68,462.24.28,485,22.56"/><path class="cls-158" d="M1.67,26.71c17.59-15.9,94.77,2.68,133.37-1C152.93,24,180.74-3.37,208.75,2.2,282.07,16.78,258.05,41,294,28.94,348.52,10.6,462.26.25,484.88,22.51"/><path class="cls-159" d="M1.68,26.69c17.58-15.87,94.8,2.68,133.37-1,17.87-1.72,45.5-29,73.44-23.5,73.37,14.52,49.17,38.88,85.17,26.76C348.35,10.52,462.27.22,484.81,22.45"/><path class="cls-160" d="M1.69,26.66c17.57-15.84,94.82,2.7,133.37-1,17.85-1.72,45.3-29,73.18-23.49,73.41,14.46,49,38.93,85.08,26.79,54.86-18.49,169-28.74,191.41-6.53"/><path class="cls-161" d="M1.69,26.64c17.57-15.81,94.86,2.7,133.39-1C152.9,23.87,180.17-3.34,208,2.11c73.45,14.4,48.88,39,85,26.81C348,10.36,462.3.16,484.65,22.35"/><path class="cls-161" d="M1.7,26.62c17.55-15.78,94.88,2.71,133.39-1.05C152.88,23.83,180-3.33,207.73,2.09c73.49,14.33,48.73,39,84.89,26.82,55.21-18.63,169.7-28.79,192-6.62"/><path class="cls-162" d="M1.71,26.6c17.54-15.75,94.91,2.72,133.4-1.06,17.76-1.75,44.68-28.85,72.36-23.48,73.54,14.27,48.59,39.07,84.8,26.85C347.66,10.2,462.33.09,484.5,22.24"/><path class="cls-163" d="M1.71,26.58C19.25,10.86,96.65,29.3,135.12,25.5,152.86,23.75,179.6-3.3,207.22,2c73.58,14.21,48.44,39.12,84.7,26.87C347.48,10.13,462.35.06,484.43,22.19"/><path class="cls-164" d="M1.72,26.56c17.53-15.69,95,2.73,133.41-1.09C152.85,23.71,179.41-3.29,207,2c73.63,14.15,48.31,39.17,84.61,26.89C347.31,10.05,462.36,0,484.35,22.14"/><path class="cls-164" d="M1.73,26.53c17.52-15.65,95,2.74,133.42-1.09C152.84,23.67,179.22-3.28,206.71,2c73.67,14.09,48.16,39.22,84.51,26.92C347.14,10,462.38,0,484.28,22.08"/><path class="cls-165" d="M1.73,26.51c17.51-15.62,95,2.75,133.43-1.1C152.82,23.64,179-3.27,206.46,1.94c73.71,14,48,39.27,84.42,26.94C347,9.89,462.39,0,484.2,22"/><path class="cls-165" d="M1.74,26.49c17.5-15.6,95.05,2.75,133.44-1.12,17.63-1.77,43.66-28.63,71-23.45,73.76,14,47.87,39.31,84.33,27C346.79,9.81,462.41-.07,484.12,22"/><path class="cls-166" d="M1.75,26.47c17.49-15.57,95.08,2.76,133.44-1.13C152.8,23.56,178.65-3.25,206,1.89c73.8,13.9,47.72,39.36,84.23,27,56.44-19.14,172.24-29,193.87-6.95"/><path class="cls-167" d="M1.75,26.45c17.49-15.54,95.11,2.77,133.45-1.14,17.59-1.79,43.26-28.55,70.49-23.45,73.85,13.84,47.59,39.41,84.14,27,56.61-19.21,172.61-29,194.14-7"/><path class="cls-168" d="M1.76,26.43C19.24,10.92,96.9,29.2,135.22,25.28c17.55-1.8,43.05-28.51,70.22-23.45,73.89,13.77,47.44,39.46,84,27,56.79-19.29,173-29,194.42-7"/><path class="cls-168" d="M1.77,26.4c17.47-15.47,95.17,2.79,133.46-1.16,17.53-1.8,42.86-28.46,70-23.44,73.94,13.71,47.3,39.51,83.95,27.05,57-19.36,173.34-29,194.69-7.08"/><path class="cls-169" d="M1.77,26.38C19.23,10.94,97,29.17,135.24,25.21,152.75,23.4,177.9-3.21,204.93,1.77c74,13.65,47.15,39.56,83.85,27.07,57.14-19.43,173.7-29.07,195-7.13"/><path class="cls-170" d="M1.78,26.36C19.23,11,97,29.16,135.26,25.18c17.48-1.82,42.45-28.38,69.41-23.44,74,13.59,47,39.61,83.76,27.1C345.75,9.32,462.5-.26,483.67,21.66"/><path class="cls-171" d="M1.79,26.34C19.23,11,97,29.15,135.27,25.15c17.45-1.83,42.25-28.34,69.15-23.43,74.06,13.51,46.86,39.65,83.67,27.11C345.58,9.24,462.51-.29,483.59,21.61"/><path class="cls-171" d="M1.79,26.32C19.23,11,97.08,29.13,135.29,25.11c17.42-1.83,42-28.29,68.87-23.42,74.11,13.45,46.73,39.7,83.58,27.13C345.4,9.16,462.53-.32,483.52,21.55"/><path class="cls-172" d="M1.8,26.29C19.23,11,97.12,29.19,135.3,25.08c17.4-1.8,41.84-28.25,68.61-23.42,74.15,13.39,46.58,39.75,83.48,27.16C345.23,9.08,462.54-.35,483.44,21.5"/><path class="cls-172" d="M1.81,26.27C19.23,11,97.16,29.18,135.31,25.05,152.69,23.24,177-3.16,203.66,1.63,277.85,15,250.09,41.43,287,28.81,345.06,9,462.56-.38,483.37,21.45"/><path class="cls-173" d="M1.81,26.25C19.22,11,97.19,29.16,135.33,25,152.68,23.2,176.76-3.16,203.4,1.6c74.24,13.26,46.29,39.85,83.29,27.21C344.88,8.92,462.57-.42,483.29,21.4"/><path class="cls-174" d="M1.82,26.23C19.22,11,97.23,29.15,135.34,25c17.33-1.82,41.23-28.13,67.81-23.41,74.28,13.2,46.14,39.9,83.19,27.23,58.37-20,176.25-29.25,196.87-7.46"/><path class="cls-175" d="M1.83,26.21C19.22,11,97.26,29.13,135.36,25c17.29-1.83,41-28.09,67.53-23.4,74.33,13.12,46,39.94,83.1,27.24,58.55-20,176.61-29.27,197.15-7.5"/><path class="cls-175" d="M1.83,26.19C19.22,11,97.3,29.12,135.37,24.92c17.27-1.84,40.82-28,67.27-23.4,74.37,13.06,45.85,40,83,27.27,58.71-20.11,177-29.3,197.41-7.55"/><path class="cls-176" d="M1.84,26.16C19.22,11,97.33,29.1,135.38,24.89c17.25-1.85,40.62-28,67-23.4,74.42,13,45.72,40,82.92,27.29C344.19,8.6,462.63-.54,483,21.18"/><path class="cls-177" d="M1.85,26.14C19.21,11,97.37,29.08,135.4,24.85c17.22-1.85,40.41-28,66.73-23.39C276.59,14.39,247.7,41.55,285,28.77,344,8.52,462.65-.58,482.91,21.13"/><path class="cls-178" d="M1.85,26.12C19.21,11,97.4,29.07,135.41,24.82,152.6,23,175.62-3.1,201.87,1.43c74.51,12.86,45.43,40.14,82.73,27.34C343.84,8.44,462.66-.61,482.84,21.08"/><path class="cls-178" d="M1.86,26.1c17.35-15,95.58,2.95,133.57-1.31,17.16-1.87,40-27.88,66.19-23.39,74.55,12.8,45.28,40.18,82.63,27.36C343.67,8.36,462.68-.64,482.76,21"/><path class="cls-179" d="M1.86,26.08c17.35-15,95.61,3,133.58-1.32,17.14-1.88,39.8-27.84,65.92-23.39C276,14.1,246.5,41.6,283.9,28.75,343.5,8.28,462.69-.67,482.68,21"/><path class="cls-179" d="M1.87,26.05c17.34-15,95.64,3,133.58-1.32,17.12-1.89,39.61-27.8,65.66-23.38,74.64,12.65,45,40.27,82.44,27.4C343.32,8.2,462.71-.7,482.61,20.92"/><path class="cls-180" d="M1.88,26c17.33-14.95,95.66,3,133.59-1.34,17.08-1.89,39.4-27.75,65.38-23.37,74.69,12.59,44.86,40.32,82.36,27.42C343.15,8.12,462.72-.73,482.53,20.87"/><path class="cls-180" d="M1.88,26c17.32-14.92,95.7,3,133.6-1.35C152.54,22.76,174.68-3,200.6,1.29c74.73,12.52,44.71,40.37,82.26,27.45C343,8,462.74-.77,482.46,20.81"/><path class="cls-181" d="M1.89,26C19.2,11.1,97.61,29,135.5,24.63c17-1.91,39-27.68,64.85-23.37,74.77,12.45,44.56,40.42,82.16,27.47C342.8,8,462.75-.8,482.38,20.76"/><path class="cls-181" d="M1.9,26C19.2,11.1,97.65,29,135.51,24.6c17-1.92,38.79-27.64,64.58-23.37,74.82,12.39,44.42,40.47,82.07,27.49,60.47-20.84,180.61-29.55,200.14-8"/><path class="cls-182" d="M1.9,26c17.3-14.84,95.78,3,133.62-1.39C152.5,22.64,174.11-3,199.84,1.2c74.85,12.32,44.27,40.52,82,27.52,60.64-20.92,181-29.58,200.42-8.07"/><path class="cls-183" d="M1.91,25.92c17.29-14.8,95.81,3,133.63-1.39,17-1.93,38.38-27.55,64-23.35,74.9,12.24,44.11,40.49,81.88,27.53C342.24,7.6,462.8-.89,482.15,20.6"/><path class="cls-183" d="M1.92,25.9c17.28-14.77,95.83,3,133.63-1.4C152.48,22.56,173.73-3,199.33,1.15c74.94,12.17,44,40.54,81.78,27.55,61-21.18,181.7-29.62,201-8.15"/><path class="cls-184" d="M1.92,25.88c17.27-14.74,95.87,3,133.65-1.41,16.9-1.95,38-27.47,63.5-23.35,75,12.1,43.82,40.59,81.7,27.58C341.9,7.45,462.83-1,482,20.5"/><path class="cls-185" d="M1.93,25.86c17.26-14.71,95.89,3,133.65-1.43C152.45,22.48,173.35-3,198.82,1.09c75,12,43.68,40.65,81.6,27.6C341.72,7.37,462.84-1,481.93,20.44"/><path class="cls-186" d="M1.94,25.84c17.25-14.68,95.92,3,133.65-1.44,16.85-2,37.57-27.39,63-23.34,75.08,12,43.54,40.7,81.51,27.62C341.55,7.3,462.86-1,481.85,20.39"/><path class="cls-186" d="M1.94,25.81c17.25-14.64,96,3,133.67-1.44C152.43,22.4,173-3,198.31,1c75.12,11.9,43.39,40.75,81.41,27.65C341.38,7.22,462.87-1,481.77,20.34"/><path class="cls-187" d="M2,25.79c17.24-14.62,96,3.05,133.67-1.45C152.42,22.36,172.78-3,198.05,1c75.17,11.83,43.26,40.81,81.32,27.67C341.21,7.15,462.89-1.08,481.7,20.28"/><path class="cls-188" d="M2,25.77c17.23-14.59,96,3.05,133.68-1.47C152.4,22.32,172.59-3,197.8,1,273,12.73,240.91,41.83,279,28.67c62-21.6,183.88-29.79,202.6-8.44"/><path class="cls-189" d="M2,25.75c17.22-14.56,96,3.06,133.69-1.48,16.74-2,36.75-27.22,61.9-23.32,75.25,11.68,43,40.9,81.12,27.71C340.87,7,462.92-1.15,481.55,20.18"/><path class="cls-189" d="M2,25.73C19.18,11.2,98,28.79,135.66,24.24c16.72-2,36.55-27.19,61.63-23.32,75.3,11.6,42.82,41,81,27.73,62.36-21.73,184.6-29.83,203.14-8.52"/><path class="cls-190" d="M2,25.71c17.2-14.5,96.09,3.06,133.7-1.5C152.37,22.2,172-2.94,197,.89c75.34,11.53,42.68,41,80.94,27.76C340.52,6.84,463-1.21,481.39,20.07"/><path class="cls-190" d="M2,25.68c17.2-14.46,96.13,3.08,133.71-1.51,16.66-2,36.14-27.1,61.09-23.31,75.39,11.46,42.54,41.06,80.85,27.78C340.35,6.77,463-1.24,481.32,20"/><path class="cls-191" d="M2,25.66c17.19-14.43,96.15,3.08,133.72-1.52,16.63-2,35.94-27.06,60.82-23.31,75.43,11.39,42.39,41.11,80.75,27.8C340.18,6.69,463-1.27,481.24,20"/><path class="cls-192" d="M2,25.64c17.17-14.41,96.18,3.09,133.72-1.53,16.61-2,35.74-27,60.55-23.3C271.75,12.12,238.52,42,276.93,28.63,340,6.62,463-1.31,481.17,19.91"/><path class="cls-193" d="M2,25.62c17.17-14.38,96.21,3.09,133.73-1.54,16.59-2,35.54-27,60.29-23.3C271.54,12,238.13,42,276.58,28.62,339.84,6.54,463-1.34,481.09,19.86"/><path class="cls-194" d="M2,25.6C19.17,11.25,98.25,28.7,135.75,24c16.55-2,35.33-26.94,60-23.29,75.57,11.16,42,41.26,80.47,27.87C339.66,6.47,463-1.37,481,19.81"/><path class="cls-194" d="M2,25.58C19.17,11.26,98.28,28.68,135.76,24,152.29,22,170.89-2.93,195.51.72c75.63,11,41.82,41.32,80.38,27.89C339.49,6.39,463-1.4,480.94,19.76"/><path class="cls-195" d="M2,25.55C19.17,11.27,98.32,28.67,135.78,24c16.5-2.06,34.92-26.9,59.47-23.29,75.68,10.91,41.69,41.37,80.29,27.91,63.78-22.28,187.51-30,205.32-8.9"/><path class="cls-195" d="M2,25.53C19.17,11.28,98.35,28.65,135.79,24,152.27,21.88,170.51-2.9,195,.66c75.71,10.86,41.54,41.42,80.19,27.94,64-22.36,187.88-30.07,205.6-9"/><path class="cls-196" d="M2,25.51c17.12-14.22,96.35,3.12,133.76-1.6,16.46-2.07,34.52-26.8,58.95-23.28,75.75,10.81,41.39,41.48,80.09,28C339,6.16,463.08-1.5,480.71,19.6"/><path class="cls-196" d="M2,25.49c17.12-14.19,96.38,3.13,133.78-1.61C152.24,21.8,170.13-2.87,194.49.61c75.79,10.75,41.25,41.52,80,28,64.31-22.49,188.61-30.11,206.15-9"/><path class="cls-197" d="M2.05,25.47C19.16,11.3,98.46,28.6,135.83,23.85c16.4-2.09,34.11-26.7,58.41-23.27,75.83,10.71,41.11,41.57,79.9,28C338.63,6,463.11-1.56,480.56,19.49"/></g></g></svg>