<svg id="Layer_1" data-name="Layer 1" xmlns="http://www.w3.org/2000/svg" viewBox="0 0 442.63 278.1"><defs><style>.cls-1{fill:#253452;}.cls-2{fill:none;stroke:#1b8cca;stroke-linejoin:bevel;stroke-width:4px;}</style></defs><path class="cls-1" d="M139.89,92.2v94.15H104.58V92.2ZM122.55,42.09a16,16,0,0,1,11.88,5.06,17.3,17.3,0,0,1-.06,24.29,17.17,17.17,0,0,1-29.28-12.19,16.43,16.43,0,0,1,5-12.2A17,17,0,0,1,122.55,42.09Z"/><path class="cls-1" d="M310.65,90.21A46.7,46.7,0,0,1,345,104.61a47.26,47.26,0,0,1,14.31,34.52,47.08,47.08,0,0,1-14.5,34.75,49.8,49.8,0,0,1-70,0,47.07,47.07,0,0,1-14.54-34.7q0-20.68,14.54-34.8T310.65,90.21Zm-.95,34.85a12.89,12.89,0,0,0-9.63,4.11,14.59,14.59,0,0,0,.05,20.06,13.23,13.23,0,0,0,19.26,0,14.59,14.59,0,0,0,.05-20.06A13,13,0,0,0,309.7,125.06Z"/><path class="cls-1" d="M152,198V142.62q0-21.61,11.33-35.22A46.36,46.36,0,0,1,179.9,94.94a48.85,48.85,0,0,1,20.64-4.63q21.06,0,35.5,14.16t14.45,34.75q0,20-14.35,34.57t-34,14.54q-3.21,0-9.44-.66V152.2c8.69.06,5.79.06,8.69.06a12.61,12.61,0,0,0,9.39-4.06,13.38,13.38,0,0,0,3.92-9.64,12.71,12.71,0,0,0-4.06-9.49,13.53,13.53,0,0,0-9.72-3.92q-13.6,0-13.6,18.8v87.68H152V198"/><path class="cls-2" d="M207.79,217.12h35.54a1.15,1.15,0,0,0,1.12-.91l6.44-30.76a1.14,1.14,0,0,1,2.24,0l9.09,41.48a1.15,1.15,0,0,0,2.24,0l2.3-9a1.14,1.14,0,0,1,1.11-.86h7a1.15,1.15,0,0,0,1.12-.91l4.83-22.7a1.14,1.14,0,0,1,2.24,0l5.83,27.28a1.15,1.15,0,0,0,2.23.06l4.27-15.95a1.15,1.15,0,0,1,2.12-.24l6.32,11.85a1.16,1.16,0,0,0,1,.61h18.35a1.15,1.15,0,0,0,1.11-.85l4.68-17.42a1.15,1.15,0,0,1,2.21,0l6.92,23.72a1.15,1.15,0,0,0,2.2,0l4.6-14.46a1.15,1.15,0,0,1,2.06-.28l5.63,8.76a1.14,1.14,0,0,0,1,.53h17.36a7.22,7.22,0,0,0,7.19-7.19V66.48a7.21,7.21,0,0,0-7.19-7.19H146.25"/><path class="cls-2" d="M138.86,217.12H75.32a7.22,7.22,0,0,1-7.19-7.19V66.48a7.21,7.21,0,0,1,7.19-7.19H97.9"/></svg>