<svg id="Layer_1" data-name="Layer 1" xmlns="http://www.w3.org/2000/svg" viewBox="0 0 524.23 21.26"><defs><style>.cls-1,.cls-10,.cls-100,.cls-101,.cls-102,.cls-103,.cls-104,.cls-105,.cls-106,.cls-107,.cls-108,.cls-109,.cls-11,.cls-110,.cls-111,.cls-112,.cls-113,.cls-114,.cls-115,.cls-116,.cls-117,.cls-118,.cls-119,.cls-12,.cls-120,.cls-121,.cls-122,.cls-123,.cls-124,.cls-125,.cls-126,.cls-127,.cls-128,.cls-129,.cls-13,.cls-130,.cls-131,.cls-132,.cls-133,.cls-134,.cls-135,.cls-136,.cls-137,.cls-138,.cls-139,.cls-14,.cls-140,.cls-141,.cls-142,.cls-143,.cls-144,.cls-145,.cls-146,.cls-147,.cls-148,.cls-149,.cls-15,.cls-150,.cls-151,.cls-152,.cls-153,.cls-154,.cls-155,.cls-156,.cls-157,.cls-158,.cls-159,.cls-16,.cls-160,.cls-161,.cls-162,.cls-163,.cls-164,.cls-165,.cls-166,.cls-167,.cls-168,.cls-169,.cls-17,.cls-170,.cls-171,.cls-172,.cls-173,.cls-174,.cls-175,.cls-176,.cls-177,.cls-178,.cls-179,.cls-18,.cls-180,.cls-181,.cls-182,.cls-183,.cls-184,.cls-185,.cls-186,.cls-187,.cls-188,.cls-189,.cls-19,.cls-190,.cls-191,.cls-192,.cls-193,.cls-194,.cls-195,.cls-2,.cls-20,.cls-21,.cls-22,.cls-23,.cls-24,.cls-25,.cls-26,.cls-27,.cls-28,.cls-29,.cls-3,.cls-30,.cls-31,.cls-32,.cls-33,.cls-34,.cls-35,.cls-36,.cls-37,.cls-38,.cls-39,.cls-4,.cls-40,.cls-41,.cls-42,.cls-43,.cls-44,.cls-45,.cls-46,.cls-47,.cls-48,.cls-49,.cls-5,.cls-50,.cls-51,.cls-52,.cls-53,.cls-54,.cls-55,.cls-56,.cls-57,.cls-58,.cls-59,.cls-6,.cls-60,.cls-61,.cls-62,.cls-63,.cls-64,.cls-65,.cls-66,.cls-67,.cls-68,.cls-69,.cls-7,.cls-70,.cls-71,.cls-72,.cls-73,.cls-74,.cls-75,.cls-76,.cls-77,.cls-78,.cls-79,.cls-8,.cls-80,.cls-81,.cls-82,.cls-83,.cls-84,.cls-85,.cls-86,.cls-87,.cls-88,.cls-89,.cls-9,.cls-90,.cls-91,.cls-92,.cls-93,.cls-94,.cls-95,.cls-96,.cls-97,.cls-98,.cls-99{fill:none;stroke-miterlimit:10;stroke-width:0.5px;}.cls-1{stroke:#c21718;}.cls-2{stroke:#c11819;}.cls-3{stroke:#c1181a;}.cls-4{stroke:#c0181a;}.cls-5{stroke:#c0181b;}.cls-6{stroke:#bf181c;}.cls-7{stroke:#bf191c;}.cls-8{stroke:#bf191d;}.cls-9{stroke:#be191d;}.cls-10{stroke:#be191e;}.cls-11{stroke:#bd191f;}.cls-12{stroke:#bd1920;}.cls-13{stroke:#bc1a20;}.cls-14{stroke:#bc1a21;}.cls-15{stroke:#bb1a21;}.cls-16{stroke:#bb1a22;}.cls-17{stroke:#ba1a22;}.cls-18{stroke:#ba1a23;}.cls-19{stroke:#ba1b23;}.cls-20{stroke:#b91b24;}.cls-21{stroke:#b81b25;}.cls-22{stroke:#b81b26;}.cls-23{stroke:#b71b26;}.cls-24{stroke:#b71c27;}.cls-25{stroke:#b61c27;}.cls-26{stroke:#b61c28;}.cls-27{stroke:#b51c29;}.cls-28{stroke:#b51c2a;}.cls-29{stroke:#b41d2a;}.cls-30{stroke:#b41d2b;}.cls-31{stroke:#b31d2b;}.cls-32{stroke:#b31d2c;}.cls-33{stroke:#b21d2c;}.cls-34{stroke:#b21d2d;}.cls-35{stroke:#b11d2e;}.cls-36{stroke:#b01e2e;}.cls-37{stroke:#b01e2f;}.cls-38{stroke:#af1e30;}.cls-39{stroke:#af1e31;}.cls-40{stroke:#ae1e31;}.cls-41{stroke:#ad1e32;}.cls-42{stroke:#ad1f33;}.cls-43{stroke:#ac1f33;}.cls-44{stroke:#ac1f34;}.cls-45{stroke:#ab1f34;}.cls-46{stroke:#ab1f35;}.cls-47{stroke:#aa1f35;}.cls-48{stroke:#aa1f36;}.cls-49{stroke:#a91f37;}.cls-50{stroke:#a92037;}.cls-51{stroke:#a82038;}.cls-52{stroke:#a72039;}.cls-53{stroke:#a6203a;}.cls-54{stroke:#a6203b;}.cls-55{stroke:#a5203b;}.cls-56{stroke:#a4213c;}.cls-57{stroke:#a4213d;}.cls-58{stroke:#a3213d;}.cls-59{stroke:#a3213e;}.cls-60{stroke:#a2213e;}.cls-61{stroke:#a2213f;}.cls-62{stroke:#a1213f;}.cls-63{stroke:#a12140;}.cls-64{stroke:#a02140;}.cls-65{stroke:#a02141;}.cls-66{stroke:#9f2141;}.cls-67{stroke:#9f2142;}.cls-68{stroke:#9e2142;}.cls-69{stroke:#9e2242;}.cls-70{stroke:#9e2243;}.cls-71{stroke:#9d2243;}.cls-72{stroke:#9d2244;}.cls-73{stroke:#9c2244;}.cls-74{stroke:#9c2245;}.cls-75{stroke:#9b2245;}.cls-76{stroke:#9b2246;}.cls-77{stroke:#9a2246;}.cls-78{stroke:#992247;}.cls-79{stroke:#992347;}.cls-80{stroke:#992348;}.cls-81{stroke:#982348;}.cls-82{stroke:#972349;}.cls-83{stroke:#97234a;}.cls-84{stroke:#96234a;}.cls-85{stroke:#95234b;}.cls-86{stroke:#95234c;}.cls-87{stroke:#94234c;}.cls-88{stroke:#93234d;}.cls-89{stroke:#93244d;}.cls-90{stroke:#92244d;}.cls-91{stroke:#92244e;}.cls-92{stroke:#91244f;}.cls-93{stroke:#90244f;}.cls-94{stroke:#902450;}.cls-95{stroke:#8f2450;}.cls-96{stroke:#8f2451;}.cls-97{stroke:#8e2451;}.cls-98{stroke:#8e2452;}.cls-99{stroke:#8d2452;}.cls-100{stroke:#8c2453;}.cls-101{stroke:#8b2453;}.cls-102{stroke:#8b2554;}.cls-103{stroke:#8a2555;}.cls-104{stroke:#892555;}.cls-105{stroke:#892556;}.cls-106{stroke:#882556;}.cls-107{stroke:#872557;}.cls-108{stroke:#862557;}.cls-109{stroke:#862558;}.cls-110{stroke:#852558;}.cls-111{stroke:#852559;}.cls-112{stroke:#842559;}.cls-113{stroke:#83255a;}.cls-114{stroke:#82255a;}.cls-115{stroke:#82255b;}.cls-116{stroke:#81265b;}.cls-117{stroke:#80265c;}.cls-118{stroke:#80265d;}.cls-119{stroke:#7f265d;}.cls-120{stroke:#7e265e;}.cls-121{stroke:#7d265e;}.cls-122{stroke:#7d265f;}.cls-123{stroke:#7c265f;}.cls-124{stroke:#7b2660;}.cls-125{stroke:#7a2661;}.cls-126{stroke:#792661;}.cls-127{stroke:#792662;}.cls-128{stroke:#782662;}.cls-129{stroke:#772763;}.cls-130{stroke:#762763;}.cls-131{stroke:#762764;}.cls-132{stroke:#752764;}.cls-133{stroke:#752765;}.cls-134{stroke:#742765;}.cls-135{stroke:#732766;}.cls-136{stroke:#722767;}.cls-137{stroke:#712767;}.cls-138{stroke:#712768;}.cls-139{stroke:#702768;}.cls-140{stroke:#6f2769;}.cls-141{stroke:#6e2769;}.cls-142{stroke:#6e276a;}.cls-143{stroke:#6d276a;}.cls-144{stroke:#6c276b;}.cls-145{stroke:#6b276b;}.cls-146{stroke:#6b276c;}.cls-147{stroke:#6a276c;}.cls-148{stroke:#69276d;}.cls-149{stroke:#68276d;}.cls-150{stroke:#68276e;}.cls-151{stroke:#67276e;}.cls-152{stroke:#66276f;}.cls-153{stroke:#65276f;}.cls-154{stroke:#652770;}.cls-155{stroke:#642770;}.cls-156{stroke:#632771;}.cls-157{stroke:#622771;}.cls-158{stroke:#622772;}.cls-159{stroke:#612772;}.cls-160{stroke:#602772;}.cls-161{stroke:#602773;}.cls-162{stroke:#5f2773;}.cls-163{stroke:#5e2774;}.cls-164{stroke:#5d2774;}.cls-165{stroke:#5d2775;}.cls-166{stroke:#5c2775;}.cls-167{stroke:#5b2775;}.cls-168{stroke:#5b2776;}.cls-169{stroke:#5a2776;}.cls-170{stroke:#592777;}.cls-171{stroke:#582777;}.cls-172{stroke:#582778;}.cls-173{stroke:#572778;}.cls-174{stroke:#562778;}.cls-175{stroke:#562779;}.cls-176{stroke:#552779;}.cls-177{stroke:#54277a;}.cls-178{stroke:#53277a;}.cls-179{stroke:#52277b;}.cls-180{stroke:#51277b;}.cls-181{stroke:#50277c;}.cls-182{stroke:#4f267c;}.cls-183{stroke:#4f267d;}.cls-184{stroke:#4e267d;}.cls-185{stroke:#4d267d;}.cls-186{stroke:#4d267e;}.cls-187{stroke:#4c267e;}.cls-188{stroke:#4b267f;}.cls-189{stroke:#4a267f;}.cls-190{stroke:#49267f;}.cls-191{stroke:#492680;}.cls-192{stroke:#482680;}.cls-193{stroke:#472681;}.cls-194{stroke:#462681;}.cls-195{stroke:#452682;}</style></defs><g id="Layer_2" data-name="Layer 2"><g id="Capa_1" data-name="Capa 1"><path class="cls-1" d="M23.09,5.78c19.47-9.47,43.28,9.61,84.84,12.34C119.41,18.87,225.17-6,263.1,1.76c93.1,19.16,101.62,19.33,130.08,18.17,15.69-.63,88.17-14.8,131.12-3.56" transform="translate(-0.13 0.01)"/><path class="cls-2" d="M23,5.79c19.47-9.46,43.49,9.59,85,12.3C119.54,18.84,225-6,262.86,1.76c93,19.11,101.53,19.36,130,18.17,15.87-.66,88.41-14.8,131.27-3.59" transform="translate(-0.13 0.01)"/><path class="cls-2" d="M22.93,5.79c19.45-9.44,43.68,9.57,85.21,12.27C119.66,18.8,224.78-6,262.62,1.75c93,19.06,101.45,19.4,130,18.18,16-.68,88.61-14.83,131.38-3.62" transform="translate(-0.13 0.01)"/><path class="cls-3" d="M22.85,5.8C42.29-3.63,66.73,15.35,108.24,18c11.54.74,116.35-24,154.14-16.28,92.91,19,101.36,19.44,129.89,18.18,16.23-.7,88.9-14.85,131.58-3.65" transform="translate(-0.13 0.01)"/><path class="cls-4" d="M22.77,5.8C42.2-3.61,66.85,15.34,108.35,18,119.9,18.74,224.4-6,262.14,1.74,355,20.7,363.41,21.21,392,19.93c16.38-.73,89.11-14.88,131.7-3.67" transform="translate(-0.13 0.01)"/><path class="cls-5" d="M22.69,5.81C42.11-3.59,66.94,15.35,108.45,18,120,18.71,224.21-5.95,261.9,1.74c92.79,18.9,101.18,19.49,129.76,18.19,16.6-.75,89.39-14.9,131.89-3.71" transform="translate(-0.13 0.01)"/><path class="cls-5" d="M22.61,5.81C42-3.57,67.06,15.35,108.56,18,120.13,18.67,224-5.94,261.66,1.74c92.73,18.84,101.09,19.52,129.7,18.2C408.14,19.16,481,5,523.36,16.2" transform="translate(-0.13 0.01)"/><path class="cls-6" d="M22.52,5.82c19.41-9.39,44.65,9.52,86.14,12.1,11.59.72,115.16-23.84,152.76-16.18,92.67,18.78,101,19.55,129.64,18.2C408,19.14,480.93,5,523.25,16.18" transform="translate(-0.13 0.01)"/><path class="cls-7" d="M22.44,5.83c19.4-9.37,44.84,9.5,86.32,12.06,11.61.72,114.87-23.79,152.42-16.15C353.78,20.48,362.09,21.33,390.75,20c17.14-.83,90.12-15,132.34-3.8" transform="translate(-0.13 0.01)"/><path class="cls-8" d="M22.36,5.83c19.39-9.35,45,9.5,86.51,12,11.62.71,114.57-23.75,152.07-16.14,92.54,18.69,100.82,19.62,129.51,18.21,17.32-.85,90.36-15,132.49-3.82" transform="translate(-0.13 0.01)"/><path class="cls-9" d="M22.28,5.84c19.38-9.34,45.23,9.48,86.72,12,11.61.71,114.25-23.7,151.7-16.12,92.48,18.64,100.73,19.65,129.44,18.22,17.51-.89,90.61-15,132.65-3.85" transform="translate(-0.13 0.01)"/><path class="cls-10" d="M22.2,5.84c19.37-9.32,45.43,9.47,86.88,12,11.66.7,114-23.65,151.38-16.09C352.88,20.3,361.1,21.41,389.84,19.94c17.69-.9,90.85-15,132.8-3.88" transform="translate(-0.13 0.01)"/><path class="cls-10" d="M22.12,5.85c19.36-9.32,45.62,9.45,87.06,11.93,11.68.7,113.68-23.6,151-16.07C352.54,20.25,360.73,21.43,389.5,19.94c17.87-.92,91.09-15,133-3.91" transform="translate(-0.13 0.01)"/><path class="cls-11" d="M22,5.85c19.35-9.3,45.82,9.44,87.24,11.9C121,18.45,222.67-5.8,260,1.71c92.3,18.48,100.47,19.74,129.25,18.23,18-1,91.34-15.06,133.11-3.94" transform="translate(-0.13 0.01)"/><path class="cls-11" d="M22,5.86c19.35-9.28,46,9.43,87.44,11.87,11.66.69,113-23.51,150.3-16C352,20.13,360.12,21.47,388.93,19.94c18.23-1,91.58-15.08,133.26-4" transform="translate(-0.13 0.01)"/><path class="cls-12" d="M21.87,5.87c19.34-9.29,46.21,9.41,87.62,11.83,11.73.68,112.8-23.47,150-16,92.18,18.38,100.3,19.8,129.13,18.24,18.38-1,91.83-15.1,133.38-4" transform="translate(-0.13 0.01)"/><path class="cls-13" d="M21.79,5.87c19.33-9.26,46.41,9.4,87.81,11.8,11.74.68,112.5-23.43,149.66-16C351.37,20,359.46,21.52,388.32,19.94c18.6-1,92.07-15.11,133.57-4" transform="translate(-0.13 0.01)"/><path class="cls-14" d="M21.71,5.88c19.29-9.25,46.6,9.39,88,11.77,11.76.66,112.2-23.38,149.3-16C351.05,20,359.11,21.55,388,19.94c18.8-1.05,92.33-15.13,133.74-4.06" transform="translate(-0.13 0.01)"/><path class="cls-15" d="M21.63,5.88c19.31-9.23,46.8,9.38,88.17,11.73,11.78.67,111.91-23.32,149-15.91,92,18.22,100,19.89,128.93,18.25,19-1.07,92.56-15.15,133.88-4.08" transform="translate(-0.13 0.01)"/><path class="cls-15" d="M21.55,5.89c19.3-9.23,47,9.36,88.36,11.7,11.79.66,111.54-23.27,148.63-15.91,91.75,18.21,99.93,19.92,128.87,18.26,19.15-1.1,92.8-15.17,134-4.11" transform="translate(-0.13 0.01)"/><path class="cls-16" d="M21.47,5.89C40.76-3.32,68.66,15.24,110,17.56c11.81.66,111.25-23.21,148.29-15.88,91.71,18.16,99.85,20,128.81,18.26,19.34-1.12,93-15.19,134.18-4.13" transform="translate(-0.13 0.01)"/><path class="cls-17" d="M21.38,5.9c19.29-9.2,47.4,9.34,88.74,11.63,11.82.66,110.94-23.17,147.94-15.86,91.61,18.11,99.75,20,128.74,18.27,19.52-1.15,93.29-15.21,134.33-4.16" transform="translate(-0.13 0.01)"/><path class="cls-18" d="M21.3,5.91c19.28-9.19,47.59,9.31,88.92,11.59,11.84.67,110.65-23.12,147.6-15.83,91.54,18.06,99.66,20,128.67,18.27C406.2,18.77,480,4.71,521,15.75" transform="translate(-0.13 0.01)"/><path class="cls-19" d="M21.22,5.91C40.49-3.26,69,15.22,110.32,17.47c11.86.65,110.35-23.07,147.25-15.8,91.48,18,99.58,20,128.62,18.27,19.89-1.2,93.77-15.25,134.64-4.22" transform="translate(-0.13 0.01)"/><path class="cls-20" d="M21.14,5.92c19.26-9.17,48,9.3,89.29,11.53,11.87.64,110-23,146.9-15.79,91.41,18,99.49,20.05,128.56,18.28,20.07-1.22,94-15.27,134.79-4.25" transform="translate(-0.13 0.01)"/><path class="cls-20" d="M21.06,5.92c19.25-9.15,48.18,9.28,89.47,11.49,11.89.65,109.75-23,146.56-15.75,91.34,17.9,99.4,20.08,128.49,18.28,20.26-1.25,94.26-15.29,135-4.27" transform="translate(-0.13 0.01)"/><path class="cls-20" d="M21,5.94c19.22-9.15,48.35,9.26,89.64,11.45C122.54,18,220.08-5.54,256.85,1.66c91.27,17.85,99.3,20.11,128.43,18.28,20.44-1.27,94.5-15.31,135.1-4.3" transform="translate(-0.13 0.01)"/><path class="cls-21" d="M20.9,5.94c19.23-9.13,48.57,9.25,89.84,11.42C122.66,18,219.89-5.52,256.61,1.65,347.81,19.46,355.82,21.78,385,19.94c20.6-1.3,94.72-15.33,135.23-4.33" transform="translate(-0.13 0.01)"/><path class="cls-21" d="M20.81,5.94c19.23-9.11,48.78,9.24,90,11.39C122.75,18,219.66-5.5,256.34,1.64c91.13,17.76,99.12,20.16,128.3,18.3,20.81-1.33,95-15.35,135.41-4.36" transform="translate(-0.13 0.01)"/><path class="cls-22" d="M20.73,5.94C40-3.15,69.7,15.17,111,17.31c12,.62,108.55-22.79,145.18-15.67,91.06,17.71,99,20.18,128.24,18.3,21-1.35,95.23-15.37,135.55-4.39" transform="translate(-0.13 0.01)"/><path class="cls-23" d="M20.65,6c19.21-9.08,49.17,9.22,90.4,11.33C123,17.89,219.3-5.46,255.89,1.64c91,17.66,98.94,20.21,128.17,18.3,21.18-1.37,95.48-15.39,135.71-4.42" transform="translate(-0.13 0.01)"/><path class="cls-24" d="M20.57,6c19.2-9.07,49.37,9.2,90.58,11.29,12,.61,108-22.69,144.5-15.62C346.57,19.24,354.5,21.87,383.76,20c21.36-1.41,95.72-15.41,135.86-4.45" transform="translate(-0.13 0.01)"/><path class="cls-24" d="M20.49,6c19.19-9.06,49.56,9.19,90.77,11.26,12,.61,107.65-22.64,144.15-15.59,90.85,17.56,98.76,20.26,128,18.32,21.55-1.43,96-15.43,136-4.48" transform="translate(-0.13 0.01)"/><path class="cls-25" d="M20.41,6c19.18-9,49.76,9.17,91,11.23,12,.6,107.36-22.6,143.81-15.58C346,19.13,353.89,21.91,383.22,20c21.66-1.46,96.14-15.45,136.1-4.51" transform="translate(-0.13 0.01)"/><path class="cls-26" d="M20.33,6c19.17-9,50,9.17,91.14,11.2,12,.59,107.05-22.55,143.46-15.55C345.64,19.08,353.5,21.93,382.85,20c21.91-1.49,96.45-15.48,136.32-4.54" transform="translate(-0.13 0.01)"/><path class="cls-26" d="M20.24,6c19.17-9,50.16,9.15,91.33,11.16,12.06.59,106.76-22.51,143.12-15.52C345.33,19,353.17,22,382.54,20c22.1-1.51,96.7-15.49,136.48-4.56" transform="translate(-0.13 0.01)"/><path class="cls-27" d="M20.16,6c19.16-9,50.36,9.13,91.51,11.12,12.08.59,106.46-22.45,142.78-15.5C345,19,352.84,22,382.24,20c22.28-1.54,96.94-15.51,136.63-4.59" transform="translate(-0.13 0.01)"/><path class="cls-27" d="M20.08,6c19.15-9,50.56,9.12,91.7,11.1,12.09.57,106.16-22.42,142.43-15.48C344.71,18.92,352.51,22,381.93,20c22.47-1.56,97.19-15.53,136.79-4.62" transform="translate(-0.13 0.01)"/><path class="cls-28" d="M20,6c19.14-9,50.75,9.1,91.88,11.05C124,17.63,217.75-5.31,254,1.6,344.44,18.86,352.21,22,381.66,20c22.65-1.59,97.43-15.55,136.94-4.64" transform="translate(-0.13 0.01)"/><path class="cls-29" d="M19.92,6c19.13-9,51,9.09,92.07,11C124.11,17.6,217.55-5.29,253.73,1.6,344.1,18.81,351.84,22,381.33,20,404.16,18.33,479,4.39,518.42,15.27" transform="translate(-0.13 0.01)"/><path class="cls-30" d="M19.84,6C39-2.95,71,15.09,112.09,17c12.14.57,105.27-22.27,141.4-15.4,90.3,17.15,98,20.45,127.53,18.34,23-1.63,97.92-15.58,137.24-4.7" transform="translate(-0.13 0.01)"/><path class="cls-31" d="M19.76,6c19.11-8.94,51.34,9.07,92.43,11,12.17.56,105-22.22,141.06-15.38C343.48,18.7,351.18,22.07,380.72,20c23.2-1.67,98.16-15.61,137.39-4.73" transform="translate(-0.13 0.01)"/><path class="cls-31" d="M19.67,6C38.79-2.9,71.22,15.07,112.3,17,124.48,17.5,217-5.23,253,1.59,343.16,18.64,350.83,22.09,380.4,20c23.4-1.7,98.42-15.63,137.6-4.76" transform="translate(-0.13 0.01)"/><path class="cls-32" d="M19.59,6c19.11-8.92,51.75,9,92.81,10.9,12.2.55,104.37-22.13,140.37-15.34,90.09,17,97.74,20.53,127.34,18.37,23.57-1.72,98.65-15.64,137.7-4.79" transform="translate(-0.13 0.01)"/><path class="cls-33" d="M19.51,6c19.1-8.91,51.95,9,93,10.86,12.21.55,104.07-22.08,140-15.31,90,17,97.65,20.56,127.28,18.37,23.75-1.75,98.89-15.66,137.85-4.82" transform="translate(-0.13 0.01)"/><path class="cls-34" d="M19.43,6c19.09-8.9,52.14,9,93.18,10.83,12.23.54,103.77-22,139.68-15.29,90,16.9,97.56,20.58,127.21,18.37,23.94-1.76,99.14-15.69,138-4.84" transform="translate(-0.13 0.01)"/><path class="cls-34" d="M19.35,6c19.08-8.88,52.34,9,93.36,10.79,12.25.54,103.48-22,139.34-15.25C341.93,18.44,349.51,22.18,379.2,20c24.12-1.8,99.38-15.7,138.16-4.87" transform="translate(-0.13 0.01)"/><path class="cls-35" d="M19.27,6.05c19.07-8.87,52.54,9,93.55,10.76,12.26.53,103.17-21.94,139-15.24C341.63,18.37,349.19,22.19,378.9,20c24.31-1.83,99.63-15.72,138.32-4.9" transform="translate(-0.13 0.01)"/><path class="cls-35" d="M19.19,6.05c19.06-8.85,52.74,9,93.73,10.73,12.28.53,102.88-21.9,138.65-15.22,89.74,16.76,97.27,20.65,127,18.39,24.5-1.86,99.89-15.74,138.49-4.93" transform="translate(-0.13 0.01)"/><path class="cls-36" d="M19.1,6.06c19.06-8.84,53,9,93.93,10.69,12.3.52,102.57-21.85,138.3-15.19C341,18.26,348.51,22.23,378.29,20,403,18.06,478.4,4.19,516.91,15" transform="translate(-0.13 0.01)"/><path class="cls-37" d="M19,6.06C38.07-2.77,72.16,15,113.13,16.72c12.32.52,102.28-21.8,138-15.16C340.7,18.21,348.18,22.25,378,20,402.83,18,478.34,4.17,516.75,15" transform="translate(-0.13 0.01)"/><path class="cls-37" d="M18.94,6.07C38-2.75,72.28,15,113.23,16.69c12.34.52,102-21.75,137.61-15.14,89.55,16.61,97,20.71,126.84,18.4,25-1.94,100.6-15.8,138.92-5" transform="translate(-0.13 0.01)"/><path class="cls-38" d="M18.86,6.08c19-8.81,53.54,8.91,94.48,10.59C125.69,17.17,215-5,250.6,1.55,340.08,18.09,347.51,22.29,377.37,20c25.22-2,100.85-15.82,139.08-5" transform="translate(-0.13 0.01)"/><path class="cls-38" d="M18.78,6.08c19-8.79,53.74,8.9,94.66,10.56,12.37.5,101.39-21.66,136.92-15.1C339.77,18,347.17,22.29,377.07,20c25.4-2,101.09-15.84,139.23-5.08" transform="translate(-0.13 0.01)"/><path class="cls-39" d="M18.7,6.09c19-8.77,53.94,8.88,94.85,10.52C125.93,17.11,214.63-5,250.12,1.54,339.46,18,346.84,22.31,376.76,20c25.59-2,101.34-15.86,139.39-5.1" transform="translate(-0.13 0.01)"/><path class="cls-40" d="M18.62,6.09c19-8.76,54.14,8.87,95,10.49,12.4.5,100.79-21.56,136.23-15C339.13,17.94,346.48,22.34,376.43,20,402.23,17.9,478,4.07,516,14.82" transform="translate(-0.13 0.01)"/><path class="cls-40" d="M18.53,6.1c19-8.76,54.34,8.84,95.22,10.45C126.17,17,214.24-5,249.64,1.52,338.85,17.88,346.17,22.35,376.16,20,402.11,17.87,478,4.05,515.85,14.8" transform="translate(-0.13 0.01)"/><path class="cls-41" d="M18.45,6.1C37.45-2.64,73,15,113.86,16.53,126.3,17,214.05-4.94,249.4,1.52c89.14,16.3,96.44,20.85,126.45,18.42C402,17.85,477.92,4,515.7,14.78" transform="translate(-0.13 0.01)"/><path class="cls-41" d="M18.37,6.11c19-8.73,54.74,8.82,95.59,10.39,12.46.49,99.89-21.42,135.2-15C338.23,17.77,345.5,22.39,375.55,20c26.31-2.14,102.31-15.94,140-5.22" transform="translate(-0.13 0.01)"/><path class="cls-42" d="M18.29,6.12c19-8.72,54.94,8.81,95.78,10.35,12.47.47,99.59-21.36,134.85-14.95,89,16.2,96.25,20.89,126.32,18.43,26.5-2.16,102.56-16,140.16-5.24" transform="translate(-0.13 0.01)"/><path class="cls-43" d="M18.21,6.12c19-8.7,55.14,8.8,96,10.32,12.45.47,99.26-21.32,134.47-14.92C337.61,17.67,344.83,22.43,374.94,20c26.68-2.2,102.8-16,140.31-5.28" transform="translate(-0.13 0.01)"/><path class="cls-44" d="M18.13,6.13c19-8.69,55.34,8.78,96.14,10.29,12.51.46,99-21.28,134.17-14.91C337.31,17.61,344.5,22.45,374.64,20c26.86-2.21,103-16,140.45-5.3" transform="translate(-0.13 0.01)"/><path class="cls-45" d="M18.05,6.13c19-8.67,55.54,8.77,96.33,10.26,12.52.46,98.7-21.23,133.82-14.87,88.8,16.05,96,21,126.13,18.45,27.05-2.26,103.29-16,140.61-5.34" transform="translate(-0.13 0.01)"/><path class="cls-46" d="M18,6.14c18.9-8.67,55.7,8.75,96.48,10.22C127,16.81,212.88-4.82,248,1.5c88.69,16,95.82,21,126,18.45,27.23-2.27,103.53-16,140.76-5.35" transform="translate(-0.13 0.01)"/><path class="cls-46" d="M17.88,6.14c18.93-8.65,55.94,8.74,96.71,10.18,12.56.45,98.1-21.13,133.13-14.83,88.66,16,95.77,21,126,18.46,27.41-2.3,103.78-16,140.92-5.38" transform="translate(-0.13 0.01)"/><path class="cls-47" d="M17.8,6.16c18.92-8.64,56.14,8.72,96.89,10.15,12.58.44,97.81-21.09,132.79-14.81,88.6,15.9,95.67,21,125.94,18.47,27.59-2.34,104-16.08,141.07-5.42" transform="translate(-0.13 0.01)"/><path class="cls-48" d="M17.72,6.16c18.91-8.62,56.34,8.7,97.07,10.12,12.6.44,97.51-21,132.45-14.79C335.77,17.34,342.82,22.54,373.12,20c27.77-2.36,104.26-16.1,141.22-5.44" transform="translate(-0.13 0.01)"/><path class="cls-48" d="M17.64,6.16c18.9-8.62,56.54,8.69,97.26,10.09,12.61.44,97.21-21,132.1-14.77C335.46,17.28,342.48,22.55,372.81,20c28-2.39,104.51-16.11,141.38-5.47" transform="translate(-0.13 0.01)"/><path class="cls-49" d="M17.56,6.17c18.89-8.61,56.74,8.67,97.44,10,12.63.43,96.91-20.95,131.76-14.74C335.15,17.23,342.15,22.57,372.51,20,400.65,17.53,477.26,3.82,514,14.46" transform="translate(-0.13 0.01)"/><path class="cls-50" d="M17.47,6.17c18.89-8.59,57,8.67,97.64,10,12.65.43,96.61-20.9,131.41-14.71C334.85,17.17,341.81,22.58,372.2,20c28.32-2.45,105-16.16,141.69-5.53" transform="translate(-0.13 0.01)"/><path class="cls-51" d="M17.39,6.18c18.88-8.58,57.15,8.65,97.82,10,12.67.41,96.32-20.86,131.07-14.7C334.54,17.12,341.47,22.6,371.9,20c28.5-2.48,105.24-16.18,141.84-5.56" transform="translate(-0.13 0.01)"/><path class="cls-51" d="M17.31,6.18c18.87-8.56,57.35,8.64,98,10,12.69.42,96-20.8,130.69-14.66C334.19,17.07,341.1,22.62,371.56,20c28.68-2.51,105.48-16.2,142-5.59" transform="translate(-0.13 0.01)"/><path class="cls-51" d="M17.23,6.19c18.86-8.55,57.55,8.62,98.19,9.92,12.7.41,95.72-20.76,130.38-14.65C333.92,17,340.8,22.64,371.29,20,400.16,17.43,477,3.74,513.43,14.34" transform="translate(-0.13 0.01)"/><path class="cls-52" d="M17.15,6.2C36-2.34,74.9,14.8,115.52,16.08c12.72.4,95.42-20.71,130-14.62C333.58,17,340.42,22.65,371,20,400,17.39,477,3.73,513.28,14.32" transform="translate(-0.13 0.01)"/><path class="cls-52" d="M17.07,6.2c18.84-8.53,58,8.59,98.56,9.86,12.73.39,95.12-20.67,129.69-14.59,88,15.44,94.81,21.22,125.36,18.5,29.23-2.59,106.21-16.25,142.45-5.67" transform="translate(-0.13 0.01)"/><path class="cls-53" d="M17,6.21C35.82-2.31,75.14,14.78,115.73,16c12.76.39,94.83-20.62,129.35-14.58C333,16.85,339.79,22.69,370.38,20,399.79,17.34,476.83,3.69,513,14.26" transform="translate(-0.13 0.01)"/><path class="cls-53" d="M16.9,6.21c18.83-8.5,58.36,8.57,98.93,9.79,12.78.38,94.53-20.57,129-14.55C332.69,16.79,339.44,22.7,370.07,20c29.58-2.65,106.69-16.29,142.75-5.73" transform="translate(-0.13 0.01)"/><path class="cls-54" d="M16.82,6.22C35.64-2.27,75.38,14.76,115.94,16c12.79.38,94.23-20.52,128.65-14.53,87.8,15.3,94.53,21.28,125.18,18.52,29.77-2.68,106.94-16.31,142.91-5.75" transform="translate(-0.13 0.01)"/><path class="cls-55" d="M16.74,6.22C35.55-2.24,75.5,14.75,116,15.94c12.85.38,94-20.48,128.35-14.5C332.08,16.69,338.78,22.74,369.47,20c29.95-2.71,107.18-16.33,143.06-5.78" transform="translate(-0.13 0.01)"/><path class="cls-55" d="M16.66,6.23c18.8-8.46,59,8.51,99.49,9.69,12.82.37,93.63-20.44,128-14.49,87.67,15.2,94.33,21.32,125,18.53,30.13-2.74,107.43-16.36,143.22-5.81" transform="translate(-0.13 0.01)"/><path class="cls-56" d="M16.58,6.23c18.79-8.45,59.16,8.5,99.67,9.65,12.84.37,93.34-20.38,127.62-14.45,87.6,15.14,94.23,21.34,125,18.53,30.3-2.77,107.66-16.37,143.36-5.85" transform="translate(-0.13 0.01)"/><path class="cls-56" d="M16.5,6.24c18.78-8.44,59.36,8.48,99.85,9.62,12.87.36,93-20.34,127.28-14.43C331.16,16.52,337.77,22.79,368.56,20c30.49-2.8,107.91-16.39,143.51-5.87" transform="translate(-0.13 0.01)"/><path class="cls-57" d="M16.42,6.25c18.77-8.43,59.58,8.46,100,9.58,12.88.36,92.74-20.28,126.93-14.41,87.47,15,94,21.38,124.86,18.54s108.16-16.41,143.67-5.9" transform="translate(-0.13 0.01)"/><path class="cls-58" d="M16.33,6.25C35.1-2.16,76.1,14.7,116.56,15.8c12.9.35,92.44-20.24,126.59-14.38,87.4,15,93.94,21.4,124.8,18.54S476.35,3.53,511.77,14" transform="translate(-0.13 0.01)"/><path class="cls-59" d="M16.25,6.26c18.76-8.4,60,8.43,100.42,9.51,12.91.35,92.14-20.19,126.24-14.36C330.24,16.35,336.75,22.83,367.64,20s108.65-16.45,144-6" transform="translate(-0.13 0.01)"/><path class="cls-60" d="M16.17,6.26c18.75-8.38,60.17,8.42,100.6,9.49,12.93.34,91.85-20.15,125.9-14.34C329.94,16.3,336.42,22.85,367.34,20c31.21-2.91,108.89-16.45,144.13-6" transform="translate(-0.13 0.01)"/><path class="cls-60" d="M16.09,6.27c18.74-8.37,60.37,8.4,100.78,9.45,13,.34,91.56-20.1,125.56-14.31C329.63,16.25,336.08,22.87,367,20,398.43,17,476.17,3.48,511.32,14" transform="translate(-0.13 0.01)"/><path class="cls-61" d="M16,6.28c18.73-8.36,60.57,8.38,101,9.41,13,.33,91.25-20,125.21-14.29C329.34,16.19,335.76,22.88,366.75,20c31.55-3,109.36-16.52,144.42-6" transform="translate(-0.13 0.01)"/><path class="cls-62" d="M15.93,6.28c18.72-8.35,60.77,8.37,101.15,9.38,13,.33,91-20,124.87-14.27C329,16.13,335.4,22.9,366.43,20,398.18,17,476.05,3.43,511,13.89" transform="translate(-0.13 0.01)"/><path class="cls-63" d="M15.85,6.29c18.71-8.34,61,8.36,101.34,9.35,13,.32,90.66-20,124.52-14.25,87,14.69,93.35,21.53,124.41,18.57,31.93-3,109.88-16.54,144.75-6.09" transform="translate(-0.13 0.01)"/><path class="cls-64" d="M15.76,6.29C34.47-2,76.94,14.63,117.29,15.61c13,.31,90.36-19.91,124.18-14.22C328.41,16,334.72,22.93,365.82,20c32.11-3.07,110.11-16.57,144.9-6.13" transform="translate(-0.13 0.01)"/><path class="cls-64" d="M15.68,6.3C34.38-2,77.06,14.63,117.39,15.58c13,.31,90.07-19.86,123.84-14.19C328.1,16,334.39,23,365.51,20c32.3-3.1,110.36-16.58,145.06-6.16" transform="translate(-0.13 0.01)"/><path class="cls-65" d="M15.6,6.3C34.29-2,77.18,14.61,117.5,15.55c13.06.31,89.77-19.82,123.5-14.17C327.8,15.92,334.06,23,365.22,20c32.47-3.13,110.6-16.61,145.2-6.19" transform="translate(-0.13 0.01)"/><path class="cls-66" d="M15.52,6.31C34.2-2,77.3,14.61,117.6,15.52c13.08.3,89.47-19.77,123.15-14.14C327.49,15.87,333.75,23,364.91,20c32.65-3.16,110.84-16.63,145.35-6.21" transform="translate(-0.13 0.01)"/><path class="cls-67" d="M15.44,6.32c18.68-8.28,62,8.27,102.27,9.18,13.09.29,89.17-19.73,122.8-14.13C327.18,15.81,333.37,23,364.6,20c32.83-3.19,111.09-16.65,145.51-6.24" transform="translate(-0.13 0.01)"/><path class="cls-68" d="M15.36,6.32C34-1.94,77.54,14.59,117.81,15.47c13.11.29,88.88-19.67,122.46-14.1C326.88,15.75,333,23,364.27,20c33-3.22,111.33-16.67,145.66-6.27" transform="translate(-0.13 0.01)"/><path class="cls-69" d="M15.28,6.33c18.66-8.25,62.38,8.24,102.63,9.11C131.05,15.72,206.49-4.19,240,1.36,326.54,15.7,332.66,23,364,20c33.18-3.25,111.57-16.69,145.81-6.3" transform="translate(-0.13 0.01)"/><path class="cls-70" d="M15.19,6.33C33.85-1.9,77.78,14.56,118,15.41c13.17.28,88.3-19.58,121.79-14C326.27,15.64,332.35,23,363.69,20c33.36-3.28,111.82-16.71,146-6.33" transform="translate(-0.13 0.01)"/><path class="cls-71" d="M15.11,6.34c18.65-8.22,62.79,8.22,103,9.05,13.17.27,88-19.54,121.43-14C326,15.59,332,23.06,363.39,20c33.54-3.32,112.06-16.73,146.12-6.35" transform="translate(-0.13 0.01)"/><path class="cls-72" d="M15,6.35c18.67-8.21,63,8.19,103.23,9,13.18.26,87.68-19.49,121.08-14C325.66,15.53,331.67,23.07,363.08,20c33.72-3.34,112.31-16.75,146.28-6.38" transform="translate(-0.13 0.01)"/><path class="cls-73" d="M15,6.35c18.58-8.2,63.14,8.18,103.33,9,13.2.26,87.39-19.45,120.74-14C325.35,15.48,331.34,23.09,362.78,20c33.9-3.37,112.55-16.77,146.43-6.41" transform="translate(-0.13 0.01)"/><path class="cls-73" d="M14.87,6.36c18.62-8.18,63.39,8.16,103.56,8.94,13.23.26,87.1-19.39,120.4-14C325.05,15.42,331,23.1,362.47,20c34.08-3.4,112.8-16.79,146.59-6.44" transform="translate(-0.13 0.01)"/><path class="cls-74" d="M14.79,6.36C33.4-1.8,78.38,14.51,118.54,15.27c13.24.25,86.8-19.34,120.05-13.92,86.15,14,92.07,21.78,123.58,18.63,34.26-3.43,113-16.8,146.73-6.47" transform="translate(-0.13 0.01)"/><path class="cls-75" d="M14.71,6.38C33.31-1.8,78.5,14.5,118.64,15.25c13.26.24,86.5-19.31,119.71-13.92,86.09,14,92,21.8,123.52,18.64,34.43-3.46,113.28-16.83,146.88-6.5" transform="translate(-0.13 0.01)"/><path class="cls-76" d="M14.62,6.38c18.6-8.15,64,8.12,104.13,8.84C132,15.46,205-4,238.1,1.33,324.1,15.26,330,23.15,361.56,20c34.61-3.49,113.53-16.84,147-6.52" transform="translate(-0.13 0.01)"/><path class="cls-77" d="M14.54,6.38c18.59-8.13,64.21,8.1,104.31,8.81,13.3.24,85.91-19.21,119-13.86,86,13.87,91.78,21.84,123.4,18.64,34.8-3.52,113.75-16.86,147.2-6.55" transform="translate(-0.13 0.01)"/><path class="cls-77" d="M14.46,6.38C33-1.74,78.87,14.47,119,15.16,132.32,15.38,204.61-4,237.67,1.32,323.52,15.15,329.3,23.18,361,20c35-3.55,114-16.88,147.35-6.58" transform="translate(-0.13 0.01)"/><path class="cls-78" d="M14.38,6.39C33-1.72,79,14.46,119.06,15.14,132.39,15.36,204.37-4,237.38,1.32,323.22,15.09,329,23.2,360.65,20c35.14-3.58,114.26-16.91,147.5-6.61" transform="translate(-0.13 0.01)"/><path class="cls-79" d="M14.3,6.4c18.56-8.1,64.81,8,104.86,8.71,13.35.22,85-19.07,118-13.8C322.93,15,328.64,23.21,360.37,20,395.69,16.36,474.87,3.05,508,13.34" transform="translate(-0.13 0.01)"/><path class="cls-80" d="M14.22,6.4c18.55-8.08,65,8,105.05,8.68,13.36.22,84.72-19,117.63-13.77C322.61,15,328.28,23.23,360,20,395.54,16.32,474.79,3,507.85,13.31" transform="translate(-0.13 0.01)"/><path class="cls-81" d="M14.14,6.41c18.54-8.07,65.21,8,105.23,8.64,13.39.21,84.42-19,117.29-13.74C322.3,14.93,327.94,23.24,359.74,20c35.67-3.67,115-17,148-6.69" transform="translate(-0.13 0.01)"/><path class="cls-81" d="M14.05,6.41c18.54-8,65.42,8,105.42,8.62,13.41.19,84.13-18.93,117-13.74,85.58,13.58,91.18,22,123,18.68,35.86-3.71,115.24-17,148.12-6.73" transform="translate(-0.13 0.01)"/><path class="cls-82" d="M14,6.42c18.5-8,65.59,8,105.58,8.58,13.42.2,83.83-18.88,116.6-13.71,85.52,13.53,91.08,22,123,18.68,36-3.73,115.43-17,148.22-6.74" transform="translate(-0.13 0.01)"/><path class="cls-82" d="M13.89,6.42c18.52-8,65.82,8,105.79,8.55,13.44.19,83.53-18.83,116.26-13.68,85.45,13.47,91,22,122.89,18.68C395,16.21,474.55,3,507.24,13.19" transform="translate(-0.13 0.01)"/><path class="cls-83" d="M13.81,6.43c18.51-8,66,8,106,8.51C133.24,15.12,203-3.85,235.7,1.29c85.39,13.42,90.88,22,122.82,18.69,36.39-3.8,116-17,148.57-6.81" transform="translate(-0.13 0.01)"/><path class="cls-84" d="M13.73,6.44c18.5-8,66.27,7.94,106.16,8.47,13.48.18,82.94-18.74,115.57-13.62,85.32,13.36,90.78,22,122.76,18.68,36.56-3.82,116.21-17.06,148.72-6.83" transform="translate(-0.13 0.01)"/><path class="cls-84" d="M13.65,6.44c18.49-8,66.43,7.93,106.35,8.44,13.5.18,82.65-18.69,115.23-13.6,85.26,13.32,90.68,22,122.69,18.69C394.66,16.11,474.38,2.9,506.8,13.12" transform="translate(-0.13 0.01)"/><path class="cls-85" d="M13.57,6.45c18.48-8,66.63,7.91,106.53,8.41C133.61,15,202.44-3.79,235,1.28,320.2,14.54,325.57,23.35,357.63,20c36.91-3.89,116.7-17.09,149-6.89" transform="translate(-0.13 0.01)"/><path class="cls-85" d="M13.48,6.45c18.52-8,66.84,7.89,106.72,8.38,13.53.17,82.05-18.6,114.54-13.56C319.87,14.49,325.21,23.36,357.31,20c37.08-3.92,116.94-17.11,149.18-6.92" transform="translate(-0.13 0.01)"/><path class="cls-86" d="M13.4,6.46c18.47-8,67,7.87,106.91,8.34C133.86,15,202.06-3.75,234.5,1.27,319.57,14.43,324.87,23.37,357,20,394.27,16,474.19,2.84,506.34,13" transform="translate(-0.13 0.01)"/><path class="cls-87" d="M13.32,6.46c18.46-7.94,67.24,7.88,107.09,8.32C134,14.93,201.87-3.73,234.26,1.27,319.26,14.38,324.53,23.4,356.7,20c37.44-4,117.43-17.16,149.49-7" transform="translate(-0.13 0.01)"/><path class="cls-87" d="M13.24,6.47c18.45-7.93,67.44,7.84,107.27,8.27C134.1,14.89,201.68-3.71,234,1.26,319,14.32,324.19,23.41,356.39,20,394,16,474.07,2.8,506,13" transform="translate(-0.13 0.01)"/><path class="cls-88" d="M13.16,6.48C31.6-1.44,80.8,14.3,120.62,14.72c13.6.14,80.86-18.41,113.16-13.46,84.88,13,90.07,22.16,122.31,18.71,37.79-4,117.92-17.19,149.8-7" transform="translate(-0.13 0.01)"/><path class="cls-89" d="M13.08,6.48c18.43-7.9,67.84,7.81,107.64,8.21,13.63.14,80.57-18.37,112.82-13.44,84.81,13,90,22.19,122.25,18.72,38-4.07,118.16-17.21,149.94-7.06" transform="translate(-0.13 0.01)"/><path class="cls-90" d="M13,6.49c18.42-7.89,68,7.79,107.83,8.17C134.47,14.8,201.1-3.65,233.3,1.25,318.05,14.16,323.17,23.46,355.48,20c38.15-4.11,118.41-17.24,150.1-7.09" transform="translate(-0.13 0.01)"/><path class="cls-91" d="M12.91,6.49c18.42-7.88,68.26,7.78,108,8.14,13.66.13,80-18.27,112.13-13.39C317.73,14.1,322.81,23.47,355.16,20c38.34-4.14,118.66-17.26,150.27-7.12" transform="translate(-0.13 0.01)"/><path class="cls-91" d="M12.83,6.5C31.24-1.36,81.29,14.26,121,14.61c13.68.11,79.68-18.23,111.79-13.37,84.62,12.81,89.66,22.24,122,18.74,38.5-4.17,118.89-17.28,150.41-7.15" transform="translate(-0.13 0.01)"/><path class="cls-92" d="M12.75,6.5c18.4-7.86,68.66,7.75,108.39,8.08,13.69.11,79.38-18.18,111.44-13.34C317.14,14,322.14,23.5,354.58,20c38.67-4.2,119.13-17.3,150.56-7.18" transform="translate(-0.13 0.01)"/><path class="cls-92" d="M12.67,6.51c18.39-7.84,68.86,7.73,108.57,8.05,13.72.1,79.09-18.13,111.1-13.32C316.84,13.94,321.8,23.52,354.26,20,393.11,15.74,473.64,2.66,505,12.77" transform="translate(-0.13 0.01)"/><path class="cls-93" d="M12.59,6.52c18.41-7.83,69.06,7.71,108.76,8,13.73.11,78.79-18.09,110.75-13.29C316.54,13.88,321.46,23.53,354,20c39-4.27,119.58-17.34,150.83-7.24" transform="translate(-0.13 0.01)"/><path class="cls-94" d="M12.51,6.52c18.37-7.81,69.26,7.69,108.94,8,13.75.1,78.5-18,110.41-13.26,84.37,12.6,89.26,22.33,121.8,18.76,39.19-4.3,119.86-17.36,151-7.27" transform="translate(-0.13 0.01)"/><path class="cls-95" d="M12.43,6.53c18.36-7.81,69.46,8.21,109.12,7.94,13.77-.1,78.2-18,110.06-13.25C315.93,13.77,320.78,23.56,353.35,20c39.37-4.33,120.11-17.37,151.18-7.3" transform="translate(-0.13 0.01)"/><path class="cls-95" d="M12.34,6.53C30.7-1.26,82,14.73,121.66,14.44c13.78-.1,77.9-17.94,109.71-13.22C315.63,13.71,320.43,23.57,353.05,20c39.54-4.36,120.35-17.39,151.33-7.32" transform="translate(-0.13 0.01)"/><path class="cls-96" d="M12.26,6.54c18.35-7.78,69.89,8.18,109.5,7.87,13.8-.11,77.61-17.9,109.37-13.2,84.19,12.45,89,22.38,121.61,18.77,39.72-4.39,120.6-17.41,151.49-7.35" transform="translate(-0.13 0.01)"/><path class="cls-97" d="M12.18,6.54c18.34-7.76,70.09,8.17,109.69,7.84,13.81-.11,77.31-17.85,109-13.17C315,13.6,319.75,23.6,352.44,20c39.89-4.42,120.84-17.43,151.63-7.38" transform="translate(-0.13 0.01)"/><path class="cls-98" d="M12.1,6.55C30.43-1.2,82.4,14.7,122,14.36c13.84-.13,77-17.81,108.68-13.16C314.75,13.55,319.44,23.62,352.17,20c40-4.47,121.05-17.46,151.75-7.42" transform="translate(-0.13 0.01)"/><path class="cls-99" d="M12,6.56c18.34-7.74,70.52,8.12,110.07,7.78,13.86-.13,76.72-17.76,108.34-13.13,84,12.29,88.66,22.43,121.42,18.78,40.25-4.48,121.33-17.46,151.94-7.43" transform="translate(-0.13 0.01)"/><path class="cls-99" d="M11.94,6.56c18.31-7.73,70.71,8.11,110.24,7.74,13.87-.13,76.42-17.71,108-13.1,84,12.24,88.55,22.45,121.36,18.78C392,15.46,473.1,2.49,503.62,12.52" transform="translate(-0.13 0.01)"/><path class="cls-100" d="M11.86,6.57c18.3-7.71,70.92,8.09,110.42,7.7,13.89-.14,76.13-17.66,107.65-13.08C313.81,13.38,318.38,23.66,351.22,20,391.82,15.44,473,2.47,503.47,12.49" transform="translate(-0.13 0.01)"/><path class="cls-100" d="M11.77,6.57c18.3-7.71,71.13,8.08,110.62,7.67,13.9-.14,75.83-17.61,107.3-13C313.51,13.33,318,23.68,350.92,20,391.69,15.39,473,2.44,503.32,12.46" transform="translate(-0.13 0.01)"/><path class="cls-101" d="M11.69,6.58C30-1.11,83,14.64,122.49,14.22c13.92-.15,75.54-17.57,107-13C313.25,13.27,317.74,23.69,350.66,20,391.6,15.36,473,2.42,503.21,12.43" transform="translate(-0.13 0.01)"/><path class="cls-102" d="M11.61,6.58c18.28-7.67,71.54,8.05,111,7.61,13.94-.16,75.25-17.53,106.62-13,83.7,12,88.15,22.53,121.1,18.8C391.44,15.34,472.88,2.41,503,12.41" transform="translate(-0.13 0.01)"/><path class="cls-102" d="M11.53,6.6c18.27-7.67,71.75,8,111.17,7.56,14-.16,74.94-17.48,106.27-13,83.64,12,88,22.55,121,18.81,41.32-4.68,122.83-17.58,152.9-7.6" transform="translate(-0.13 0.01)"/><path class="cls-103" d="M11.45,6.6c18.26-7.65,72,8,111.35,7.53,14-.17,74.65-17.43,105.93-13C312.3,13.1,316.67,23.74,349.73,20c41.46-4.71,123-17.61,153-7.63" transform="translate(-0.13 0.01)"/><path class="cls-103" d="M11.37,6.6c18.25-7.63,72.16,8,111.54,7.51,14-.17,74.35-17.38,105.58-12.93C312,13.05,316.33,23.75,349.4,20,391,15.24,472.68,2.35,502.56,12.32" transform="translate(-0.13 0.01)"/><path class="cls-104" d="M11.29,6.6C29.53-1,83.65,14.58,123,14.08c14-.19,74.07-17.34,105.25-12.92C311.7,13,316,23.76,349.1,20c41.8-4.77,123.52-17.65,153.31-7.69" transform="translate(-0.13 0.01)"/><path class="cls-105" d="M11.2,6.61c18.24-7.61,72.58,8,111.91,7.44,14-.19,73.77-17.29,104.9-12.89C311.4,12.94,315.64,23.78,348.79,20c42-4.8,123.77-17.66,153.47-7.71" transform="translate(-0.13 0.01)"/><path class="cls-106" d="M11.12,6.62C29.36-1,83.91,14.56,123.22,14c14-.19,73.47-17.24,104.55-12.87C311.1,12.88,315.3,23.79,348.49,20c42.15-4.84,124-17.68,153.62-7.73" transform="translate(-0.13 0.01)"/><path class="cls-106" d="M11,6.62C29.27-1,84,14.54,123.32,14,137.37,13.8,196.49-3.2,227.53,1.15,310.8,12.83,315,23.81,348.18,20,390.51,15.11,472.44,2.28,502,12.21" transform="translate(-0.13 0.01)"/><path class="cls-107" d="M11,6.63C29.18-.94,84.16,14.53,123.43,14c14.07-.2,72.87-17.15,103.86-12.82C310.5,12.77,314.61,23.82,347.88,20c42.5-4.9,124.5-17.72,153.93-7.8" transform="translate(-0.13 0.01)"/><path class="cls-107" d="M10.88,6.63c18.21-7.55,73.4,7.88,112.65,7.31,14.09-.21,72.58-17.11,103.52-12.8C310.2,12.72,314.27,23.84,347.58,20c42.67-4.94,124.74-17.75,154.08-7.84" transform="translate(-0.13 0.01)"/><path class="cls-108" d="M10.8,6.64C29-.92,84.41,14.5,123.63,13.91c14.11-.22,72.29-17.06,103.18-12.77C309.89,12.66,313.93,23.85,347.27,20c42.85-5,125-17.77,154.24-7.86" transform="translate(-0.13 0.01)"/><path class="cls-109" d="M10.72,6.65c18.19-7.54,73.81,7.84,113,7.23,14.12-.22,72-17,102.83-12.75,83,11.47,87,22.74,120.4,18.86C390,15,472.2,2.2,501.36,12.1" transform="translate(-0.13 0.01)"/><path class="cls-110" d="M10.63,6.65c18.19-7.51,74,7.82,113.21,7.2,14.14-.22,71.7-17,102.49-12.72,83,11.42,86.91,22.75,120.33,18.86,43.19-5,125.48-17.81,154.55-7.92" transform="translate(-0.13 0.01)"/><path class="cls-111" d="M10.55,6.66C28.73-.86,84.78,14.46,124,13.83c14.15-.23,71.4-16.92,102.14-12.71C309,12.49,312.9,23.89,346.36,20,389.72,14.92,472.08,2.16,501.06,12" transform="translate(-0.13 0.01)"/><path class="cls-112" d="M10.47,6.66C28.64-.83,84.91,14.45,124.05,13.8c14.17-.24,71.11-16.87,101.8-12.68C308.69,12.44,312.56,23.91,346.06,20,389.59,14.89,472,2.14,500.9,12" transform="translate(-0.13 0.01)"/><path class="cls-112" d="M10.39,6.67C28.55-.81,85,14.43,124.15,13.77,138.34,13.53,195-3,225.61,1.12c82.78,11.27,86.6,22.8,120.14,18.87,43.71-5.13,126.25-17.87,155-8" transform="translate(-0.13 0.01)"/><path class="cls-113" d="M10.31,6.67c18.15-7.47,74.85,7.74,114,7.08C138.51,13.5,194.82-3,225.42,1.12,308.14,12.33,311.92,24,345.5,20c43.82-5.17,126.4-17.89,155.1-8" transform="translate(-0.13 0.01)"/><path class="cls-113" d="M10.23,6.68c18.14-7.46,75.05,7.73,114.13,7C138.58,13.46,194.58-3,225.12,1.12,307.79,12.28,311.53,24,345.12,20c44.05-5.2,126.7-17.91,155.31-8.06" transform="translate(-0.13 0.01)"/><path class="cls-114" d="M10.15,6.69c18.13-7.45,75.26,7.7,114.32,7C138.7,13.43,194.39-3,224.88,1.1,307.49,12.21,311.18,24,344.88,20c44.18-5.23,126.9-17.93,155.42-8.09" transform="translate(-0.13 0.01)"/><path class="cls-115" d="M10.06,6.69c18.13-7.43,75.47,7.69,114.51,7C138.82,13.39,194.2-3,224.64,1.1,307.19,12.15,310.84,24,344.54,20,388.93,14.72,471.72,2,500.15,11.87" transform="translate(-0.13 0.01)"/><path class="cls-116" d="M10,6.7c18.1-7.42,75.66,7.67,114.67,6.93C138.94,13.36,194-3,224.4,1.1,306.89,12.1,310.49,24,344.23,20,388.79,14.69,471.66,2,500,11.84" transform="translate(-0.13 0.01)"/><path class="cls-116" d="M9.9,6.7C28-.69,85.78,14.35,124.78,13.6c14.29-.27,69-16.54,99.38-12.51C306.59,12,310.16,24,343.93,20c44.73-5.33,127.67-18,155.92-8.18" transform="translate(-0.13 0.01)"/><path class="cls-117" d="M9.82,6.71c18.1-7.4,75.95,7.12,115.06,6.87,14.36-.1,68.75-16.5,99-12.49C306.25,12,309.77,24,343.58,20c44.95-5.36,128-18,156.12-8.2" transform="translate(-0.13 0.01)"/><path class="cls-117" d="M9.74,6.71C27.83-.67,85.89,13.82,125,13.55c14.36-.1,68.44-16.45,98.68-12.48C306,11.93,309.46,24,343.32,20,388.4,14.6,471.48,2,499.55,11.76" transform="translate(-0.13 0.01)"/><path class="cls-118" d="M9.66,6.72C27.74-.65,86,13.81,125.09,13.52c14.39-.11,68.16-16.4,98.35-12.44C305.69,11.88,309.12,24.06,343,20c45.26-5.43,128.42-18,156.39-8.26" transform="translate(-0.13 0.01)"/><path class="cls-119" d="M9.58,6.73C27.65-.63,86.13,13.8,125.19,13.49c14.41-.11,67.87-16.36,98-12.42,82.19,10.75,85.58,23,119.51,18.92,45.42-5.46,128.65-18.06,156.53-8.29" transform="translate(-0.13 0.01)"/><path class="cls-119" d="M9.49,6.73c18.07-7.34,76.76,7,115.81,6.73,14.42-.11,67.56-16.31,97.7-12.39,82.13,10.7,85.47,23,119.45,18.92C388,14.5,471.3,1.91,499.09,11.68" transform="translate(-0.13 0.01)"/><path class="cls-120" d="M9.41,6.74c18.06-7.33,77,7,116,6.7,14.45-.13,67.27-16.27,97.32-12.38C304.8,11.7,308.1,24.09,342.11,20,387.87,14.46,471.25,1.88,499,11.64" transform="translate(-0.13 0.01)"/><path class="cls-120" d="M9.33,6.74c18-7.32,77.17,7,116.18,6.67,14.46-.13,67-16.22,97-12.35,82,10.59,85.26,23.05,119.32,18.93,45.93-5.56,129.38-18.13,157-8.37" transform="translate(-0.13 0.01)"/><path class="cls-121" d="M9.25,6.75c18-7.31,77.37,7,116.36,6.63,14.48-.13,66.68-16.17,96.63-12.32C304.19,11.59,307.4,24.13,341.49,20c46.11-5.59,129.63-18.14,157.15-8.4" transform="translate(-0.13 0.01)"/><path class="cls-122" d="M9.17,6.75c18-7.29,77.57,7,116.54,6.6,14.5-.14,66.39-16.13,96.29-12.3C303.89,11.54,307.06,24.14,341.19,20c46.27-5.62,129.87-18.16,157.3-8.43" transform="translate(-0.13 0.01)"/><path class="cls-123" d="M9.09,6.76c18-7.28,77.77,7,116.73,6.56,14.52-.14,66.09-16.08,95.94-12.27C303.59,11.48,306.71,24.15,340.89,20,387.33,14.34,471,1.81,498.34,11.54" transform="translate(-0.13 0.01)"/><path class="cls-123" d="M9,6.77C27-.5,87,13.71,125.92,13.3c14.54-.16,65.8-16,95.6-12.26,81.77,10.39,84.85,23.13,119.06,19,46.62-5.69,130.36-18.2,157.61-8.48" transform="translate(-0.13 0.01)"/><path class="cls-124" d="M8.92,6.77C26.93-.47,87.1,13.7,126,13.27c14.55-.16,65.5-16,95.25-12.23C303,11.37,306,24.18,340.28,20,387.06,14.27,470.88,1.77,498,11.48" transform="translate(-0.13 0.01)"/><path class="cls-124" d="M8.84,6.78c18-7.25,78.38,6.9,117.29,6.45C140.7,13.07,191.34-2.7,221,1c81.7,10.27,84.68,23.16,119,19,47-5.75,130.85-18.24,157.92-8.54" transform="translate(-0.13 0.01)"/><path class="cls-125" d="M8.76,6.78c18-7.23,78.58,6.89,117.47,6.43C140.82,13,191.15-2.68,220.8,1c81.6,10.23,84.53,23.18,118.87,19,47.12-5.78,131.08-18.25,158.06-8.57" transform="translate(-0.13 0.01)"/><path class="cls-125" d="M8.68,6.79c18-7.22,78.78,6.87,117.66,6.39C141,13,191-2.66,220.56,1,302.1,11.2,305,24.22,339.37,20c47.29-5.82,131.32-18.27,158.21-8.59" transform="translate(-0.13 0.01)"/><path class="cls-126" d="M8.6,6.8c18-7.21,79,6.85,117.84,6.36C141.07,13,190.77-2.64,220.32,1c81.48,10.11,84.33,23.2,118.74,19,47.47-5.85,131.57-18.29,158.37-8.62" transform="translate(-0.13 0.01)"/><path class="cls-127" d="M8.52,6.8c18-7.19,79.18,6.83,118,6.33,14.64-.19,64-15.76,93.53-12.11C301.5,11.09,304.3,24.25,338.76,20c47.63-5.88,131.81-18.31,158.52-8.65" transform="translate(-0.13 0.01)"/><path class="cls-128" d="M8.44,6.81c18-7.18,79.38,6.81,118.21,6.29C141.31,12.9,190.39-2.61,219.84,1,301.2,11,304,24.27,338.45,20c47.81-5.92,132.06-18.33,158.68-8.68" transform="translate(-0.13 0.01)"/><path class="cls-128" d="M8.35,6.82c18-7.17,79.59,6.8,118.4,6.26C141.43,12.88,190.2-2.58,219.6,1c81.31,10,84,23.27,118.55,19,48-5.95,132.3-18.34,158.83-8.71" transform="translate(-0.13 0.01)"/><path class="cls-129" d="M8.27,6.82C26.21-.34,88.07,13.6,126.86,13c14.7-.2,63.15-15.61,92.5-12,81.25,9.91,83.91,23.29,118.49,19,48.15-6,132.54-18.37,159-8.74" transform="translate(-0.13 0.01)"/><path class="cls-129" d="M8.19,6.82C26.12-.32,88.19,13.58,127,13c14.72-.22,62.86-15.57,92.16-12C300.35,10.85,303,24.3,337.58,20c48.27-6,132.75-18.39,159.1-8.76" transform="translate(-0.13 0.01)"/><path class="cls-130" d="M8.11,6.82C26-.3,88.31,13.57,127.07,13c14.73-.22,62.56-15.53,91.81-12,81.12,9.8,83.7,23.32,118.36,19,48.48-6.06,133-18.42,159.29-8.8" transform="translate(-0.13 0.01)"/><path class="cls-131" d="M8,6.84C25.91-.28,88.4,13.56,127.14,13c14.75-.22,62.27-15.47,91.46-12,81.08,9.75,83.6,23.34,118.3,19,48.65-6.09,133.28-18.44,159.45-8.83" transform="translate(-0.13 0.01)"/><path class="cls-132" d="M8,6.84c17.85-7.09,80.55,6.71,119.27,6.09C142,12.7,189.27-2.5,218.39,1c81,9.7,83.5,23.36,118.24,19,48.82-6.13,133.52-18.46,159.59-8.86" transform="translate(-0.13 0.01)"/><path class="cls-132" d="M7.87,6.85c17.89-7.1,80.8,6.69,119.51,6.06C142.17,12.66,189.06-2.48,218.15,1c81,9.64,83.39,23.38,118.18,19,49-6.16,133.76-18.48,159.74-8.89" transform="translate(-0.13 0.01)"/><path class="cls-133" d="M7.78,6.85c17.89-7.07,81,6.67,119.7,6,14.81-.25,61.39-15.34,90.43-11.9,80.91,9.6,83.29,23.4,118.09,19,49.18-6.19,134-18.48,159.92-8.91" transform="translate(-0.13 0.01)"/><path class="cls-134" d="M7.7,6.86c17.88-7.07,81.21,6.65,119.89,6C142.41,12.6,188.68-2.44,217.67,1c80.85,9.54,83.18,23.41,118.05,19C385,13.78,470,1.48,495.77,11.06" transform="translate(-0.13 0.01)"/><path class="cls-134" d="M7.62,6.86c17.87-7,81.41,6.64,120.07,6,14.84-.26,60.8-15.25,89.74-11.84,80.79,9.48,83.08,23.42,118,19,49.48-6.27,134.48-18.55,160.19-9" transform="translate(-0.13 0.01)"/><path class="cls-135" d="M7.54,6.87c17.86-7,81.61,6.61,120.25,5.92,14.86-.27,60.51-15.2,89.4-11.83,80.74,9.44,83,23.46,117.92,19,49.66-6.29,134.74-18.55,160.36-9" transform="translate(-0.13 0.01)"/><path class="cls-135" d="M7.46,6.88c17.85-7,81.81,6.59,120.44,5.89,14.88-.28,60.21-15.16,89-11.8,80.73,9.39,82.92,23.47,117.91,19,49.83-6.33,135-18.57,160.51-9" transform="translate(-0.13 0.01)"/><path class="cls-136" d="M7.38,6.88c17.84-7,82,6.57,120.62,5.86C142.9,12.46,187.92-2.37,216.71,1c80.62,9.33,82.76,23.49,117.79,19,50-6.36,135.23-18.59,160.67-9.06" transform="translate(-0.13 0.01)"/><path class="cls-136" d="M7.3,6.89c17.83-7,82.21,6.56,120.81,5.82C143,12.43,187.73-2.35,216.47,1,297,10.24,299.13,24.47,334.2,20,384.37,13.61,469.67,1.39,495,10.92" transform="translate(-0.13 0.01)"/><path class="cls-137" d="M7.21,6.89c17.79-7,82.42,6.54,121,5.79,14.93-.29,59.33-15,88-11.73C296.72,10.18,298.76,24.48,333.87,20c50.34-6.42,135.72-18.63,161-9.11" transform="translate(-0.13 0.01)"/><path class="cls-138" d="M7.13,6.9c17.87-7,82.62,6.52,121.18,5.76,14.95-.3,59-15,87.68-11.72C296.44,10.12,298.44,24.5,333.59,20c50.5-6.46,136-18.65,161.13-9.14" transform="translate(-0.13 0.01)"/><path class="cls-139" d="M7.05,6.9c17.81-7,82.82,6.51,121.37,5.73,15-.31,58.74-14.93,87.33-11.68C296.14,10.06,298.09,24.5,333.29,20,384,13.51,469.49,1.33,494.56,10.83" transform="translate(-0.13 0.01)"/><path class="cls-139" d="M7,6.91C24.77,0,90,13.39,128.52,12.6c15-.31,58.45-14.88,87-11.66C295.86,10,297.76,24.52,333,20c50.83-6.52,136.44-18.69,161.42-9.2" transform="translate(-0.13 0.01)"/><path class="cls-140" d="M6.89,6.92C24.69,0,90.11,13.38,128.63,12.57c15-.32,58.15-14.84,86.64-11.64,80.28,9,82.13,23.6,117.41,19.07,51-6.55,136.69-18.71,161.58-9.22" transform="translate(-0.13 0.01)"/><path class="cls-140" d="M6.81,6.92C24.6,0,90.23,13.37,128.73,12.54c15-.32,57.86-14.78,86.3-11.61,80.22,9,82,23.62,117.34,19.07,51.18-6.59,136.94-18.73,161.74-9.25" transform="translate(-0.13 0.01)"/><path class="cls-141" d="M6.73,6.93C24.51,0,90.35,13.36,128.83,12.52c15-.33,57.57-14.74,86-11.59C295,9.83,296.71,24.56,332.07,20,383.41,13.37,469.25,1.25,494,10.72" transform="translate(-0.13 0.01)"/><path class="cls-142" d="M6.64,6.93c17.78-6.9,83.83,6.41,122.3,5.56C144,12.15,186.21-2.21,214.55.93,294.66,9.77,296.36,24.58,331.76,20c51.52-6.66,137.43-18.77,162.05-9.31" transform="translate(-0.13 0.01)"/><path class="cls-143" d="M6.56,6.94C24.33.05,90.56,13.33,129,12.46c15.08-.33,57-14.65,85.27-11.54C294.36,9.72,296,24.59,331.46,20c51.68-6.69,137.67-18.78,162.2-9.34" transform="translate(-0.13 0.01)"/><path class="cls-143" d="M6.48,6.94C24.24.07,90.71,13.32,129.15,12.43c15.09-.34,56.68-14.6,84.92-11.51,80,8.74,81.6,23.69,117.09,19.08C383,13.27,469.07,1.2,493.51,10.64" transform="translate(-0.13 0.01)"/><path class="cls-144" d="M6.4,7C24.15.1,90.83,13.3,129.25,12.4c15.11-.35,56.39-14.55,84.58-11.49,79.94,8.69,81.5,23.71,117,19.09,52-6.76,138.16-18.83,162.51-9.39" transform="translate(-0.13 0.01)"/><path class="cls-144" d="M6.32,7C24.06.1,91,13.29,129.32,12.38,144.45,12,185.42-2.13,213.56.91,293.44,9.55,295,24.64,330.56,20,382.73,13.21,469,1.16,493.21,10.58" transform="translate(-0.13 0.01)"/><path class="cls-145" d="M6.24,7C24,.12,91.07,13.28,129.46,12.35,144.6,12,185.26-2.12,213.35.9,293.18,9.49,294.63,24.65,330.24,20c52.35-6.82,138.65-18.86,162.81-9.45" transform="translate(-0.13 0.01)"/><path class="cls-146" d="M6.16,7c17.72-6.83,85,6.3,123.4,5.35C144.73,12,185.07-2.1,213.11.9,292.88,9.43,294.29,24.66,329.94,20c52.52-6.85,138.89-18.88,163-9.47" transform="translate(-0.13 0.01)"/><path class="cls-147" d="M6.07,7c17.72-6.81,85.24,6.28,123.6,5.32,15.18-.38,55.21-14.36,83.2-11.39C292.59,9.37,293.94,24.68,329.64,20c52.68-6.9,139.13-18.91,163.11-9.51" transform="translate(-0.13 0.01)"/><path class="cls-147" d="M6,7C23.7.19,91.43,13.23,129.77,12.26,145,11.88,184.69-2.06,212.63.89c79.66,8.43,81,23.8,116.7,19.12,52.85-6.94,139.38-18.94,163.27-9.54" transform="translate(-0.13 0.01)"/><path class="cls-148" d="M5.91,7c17.7-6.79,85.64,6.25,124,5.26C145.09,11.84,184.5-2,212.38.89,292,9.25,293.25,24.7,329,20c53-7,139.65-19,163.45-9.57" transform="translate(-0.13 0.01)"/><path class="cls-148" d="M5.83,7C23.52.22,91.67,13.21,130,12.21,145.23,11.81,184.33-2,212.16.88,291.7,9.2,292.91,24.72,328.72,20c53.19-7,139.87-19,163.58-9.6" transform="translate(-0.13 0.01)"/><path class="cls-149" d="M5.75,7c17.68-6.77,86,6.2,124.33,5.18,15.25-.4,54-14.19,81.82-11.3C291.4,9.14,292.56,24.72,328.42,20c53.35-7,140.11-19,163.73-9.63" transform="translate(-0.13 0.01)"/><path class="cls-150" d="M5.67,7C23.34.25,91.9,13.19,130.19,12.15,145.46,11.74,183.93-2,211.66.88,291.11,9.09,292.21,24.75,328.12,20,381.63,12.94,468.47,1,492,10.36" transform="translate(-0.13 0.01)"/><path class="cls-151" d="M5.59,7C23.25.27,92,13.17,130.29,12.13,145.58,11.71,183.74-2,211.42.87,290.81,9,291.87,24.76,327.81,20c53.68-7.1,140.6-19,164-9.68" transform="translate(-0.13 0.01)"/><path class="cls-151" d="M5.5,7C23.16.29,92.14,13.16,130.39,12.1c15.31-.42,53.16-14,80.79-11.23C290.52,9,291.52,24.77,327.51,20,381.36,12.87,468.35,1,491.7,10.3" transform="translate(-0.13 0.01)"/><path class="cls-152" d="M5.42,7C23.07.31,92.26,13.15,130.5,12.07c15.32-.44,52.86-14,80.44-11.21C290.22,8.91,291.17,24.79,327.2,20c54-7.17,141.09-19.07,164.35-9.73" transform="translate(-0.13 0.01)"/><path class="cls-152" d="M5.34,7C23,.33,92.38,13.13,130.6,12c15.34-.44,52.57-14,80.1-11.18,79.23,8,80.13,23.94,116.2,19.15C381.08,12.8,468.23.92,491.39,10.24" transform="translate(-0.13 0.01)"/><path class="cls-153" d="M5.26,7C22.89.34,92.5,13.12,130.71,12,146.06,11.57,183-1.91,210.46.85c79.17,7.94,80,24,116.14,19.16,54.34-7.24,141.57-19.1,164.64-9.79" transform="translate(-0.13 0.01)"/><path class="cls-154" d="M5.18,7C22.8.36,92.62,13.11,130.81,12c15.37-.45,52-13.87,79.41-11.14,79.11,7.88,79.92,24,116.07,19.16C380.8,12.74,468.11.89,491.09,10.19" transform="translate(-0.13 0.01)"/><path class="cls-155" d="M5.1,7C22.71.38,92.74,13.09,130.91,12,146.31,11.5,182.61-1.86,210,.85c79,7.83,79.79,24,116,19.16,54.68-7.3,142.06-19.14,165-9.85" transform="translate(-0.13 0.01)"/><path class="cls-155" d="M5,7c17.62-6.63,87.86,6,126,4.89,15.43-.47,51.42-13.78,78.74-11.08,79,7.78,79.7,24,115.94,19.17C380.53,12.67,468,.85,490.79,10.14" transform="translate(-0.13 0.01)"/><path class="cls-156" d="M4.93,7.05C22.53.41,93,13.07,131.12,11.9,146.55,11.43,182.23-1.83,209.5.84c78.95,7.72,79.6,24,115.88,19.17,55-7.37,142.55-19.18,165.26-9.9" transform="translate(-0.13 0.01)"/><path class="cls-156" d="M4.85,7.06c17.59-6.62,88.25,6,126.38,4.82,15.44-.48,50.77-13.68,78-11C288.15,8.5,288.75,24.89,325.08,20,380.25,12.6,467.87.81,490.49,10.07" transform="translate(-0.13 0.01)"/><path class="cls-157" d="M4.77,7.06C22.35.45,93.21,13,131.33,11.85c15.46-.49,50.52-13.65,77.67-11C287.84,8.44,288.38,24.9,324.75,20c55.34-7.44,143-19.23,165.57-10" transform="translate(-0.13 0.01)"/><path class="cls-158" d="M4.69,7.07c17.57-6.6,88.64,6,126.74,4.75,15.48-.49,50.23-13.6,77.35-11C287.56,8.38,288.06,24.92,324.47,20,380,12.53,467.75.78,490.19,10" transform="translate(-0.13 0.01)"/><path class="cls-159" d="M4.61,7.07C22.17.49,93.45,13,131.54,11.79c15.49-.5,49.93-13.55,77-11C287.27,8.34,287.71,24.93,324.16,20,379.84,12.5,467.68.75,490,10" transform="translate(-0.13 0.01)"/><path class="cls-159" d="M4.53,7.08C22.08.51,93.57,13,131.64,11.76c15.52-.5,49.64-13.5,76.66-10.94C287,8.27,287.36,25,323.86,20c55.84-7.55,143.76-19.28,166-10" transform="translate(-0.13 0.01)"/><path class="cls-160" d="M4.45,7.09C22,.53,93.69,13,131.75,11.74c15.53-.51,49.34-13.46,76.31-10.93,78.62,7.4,79,24.15,115.5,19.2,56-7.58,144-19.3,166.17-10.08" transform="translate(-0.13 0.01)"/><path class="cls-161" d="M4.36,7.09C21.9.55,93.81,13,131.85,11.71c15.55-.52,49.05-13.41,76-10.9C286.39,8.15,286.67,25,323.25,20,379.42,12.39,467.5.69,489.58,9.91" transform="translate(-0.13 0.01)"/><path class="cls-162" d="M4.28,7.1C21.81.57,93.93,13,132,11.68c15.57-.52,48.77-13.36,75.63-10.87C286.14,8.1,286.37,25,323,20,379.28,12.36,467.44.67,489.43,9.88" transform="translate(-0.13 0.01)"/><path class="cls-162" d="M4.2,7.1C21.72.59,94.05,13,132.06,11.65,147.64,11.12,180.53-1.67,207.34.8,285.8,8,286,25,322.64,20,379.14,12.33,467.38.65,489.28,9.84" transform="translate(-0.13 0.01)"/><path class="cls-163" d="M4.12,7.11c17.51-6.51,90,5.82,128,4.51,15.6-.53,48.18-13.27,74.94-10.83C285.46,8,285.59,25,322.3,20,379,12.29,467.32.63,489.13,9.82" transform="translate(-0.13 0.01)"/><path class="cls-163" d="M4,7.11C21.54.63,94.28,12.92,132.27,11.6c15.61-.55,47.88-13.23,74.59-10.81C285.21,7.91,285.28,25,322,20,378.86,12.26,467.26.62,489,9.79" transform="translate(-0.13 0.01)"/><path class="cls-164" d="M4,7.12C21.45.63,94.4,12.91,132.37,11.57,148,11,180-1.62,206.62.79,284.91,7.86,284.94,25,321.73,20,378.73,12.23,467.2.6,488.83,9.77" transform="translate(-0.13 0.01)"/><path class="cls-165" d="M3.88,7.13C21.36.66,94.52,12.89,132.47,11.55,148.13,11,179.77-1.59,206.38.79c78.24,7,78.21,24.27,115.05,19.23C378.58,12.19,467.14.58,488.68,9.74" transform="translate(-0.13 0.01)"/><path class="cls-166" d="M3.79,7.13C21.27.68,94.64,12.88,132.58,11.51c15.67-.56,47-13.09,73.56-10.73,78.18,7,78.1,24.29,115,19.23C378.46,12.15,467.14.56,488.55,9.7" transform="translate(-0.13 0.01)"/><path class="cls-166" d="M3.71,7.14c17.47-6.44,91.05,5.73,129,4.34,15.69-.57,46.71-13,73.21-10.7,78.14,6.9,78,24.31,114.93,19.23C378.31,12.13,467,.54,488.37,9.68" transform="translate(-0.13 0.01)"/><path class="cls-167" d="M3.63,7.14C21.09.71,94.87,12.85,132.79,11.46c15.7-.57,46.41-13,72.86-10.68C283.74,7.63,283.55,25.1,320.51,20,378.17,12.09,467,.52,488.22,9.65" transform="translate(-0.13 0.01)"/><path class="cls-168" d="M3.55,7.15C21,.73,95,12.84,132.89,11.43c15.72-.58,46.11-13,72.52-10.66,78,6.79,77.79,24.34,114.8,19.24C378,12.06,466.9.5,488.07,9.63" transform="translate(-0.13 0.01)"/><path class="cls-169" d="M3.47,7.15C20.91.75,95.11,12.82,133,11.4c15.73-.59,45.82-12.91,72.17-10.64,78,6.74,77.68,24.36,114.74,19.25,58-8,146.93-19.53,168-10.41" transform="translate(-0.13 0.01)"/><path class="cls-169" d="M3.39,7.16C20.82.77,95.23,12.81,133.1,11.37c15.75-.59,45.54-12.86,71.83-10.61C282.85,7.44,282.51,25.14,319.6,20,377.75,12,466.78.46,487.77,9.57" transform="translate(-0.13 0.01)"/><path class="cls-170" d="M3.31,7.17c17.42-6.38,92,5.62,129.89,4.18C149,10.74,178.45-1.47,204.69.76,282.56,7.39,282.16,25.15,319.3,20,377.61,12,466.72.44,487.62,9.54" transform="translate(-0.13 0.01)"/><path class="cls-170" d="M3.22,7.17C20.64.81,95.46,12.79,133.31,11.32c15.78-.61,44.95-12.78,71.14-10.57C282.27,7.32,281.81,25.17,319,20,377.47,11.92,466.66.42,487.47,9.51" transform="translate(-0.13 0.01)"/><path class="cls-171" d="M3.14,7.18C20.55.82,95.58,12.77,133.41,11.29c15.8-.62,44.66-12.73,70.8-10.54C282,7.26,281.47,25.18,318.69,20,377.33,11.88,466.6.41,487.32,9.48" transform="translate(-0.13 0.01)"/><path class="cls-172" d="M3.06,7.18C20.46.85,95.7,12.76,133.51,11.26,149.34,10.64,177.88-1.42,204,.74,281.71,7.2,281.15,25.19,318.42,20,377.22,11.84,466.57.38,487.2,9.46" transform="translate(-0.13 0.01)"/><path class="cls-173" d="M3,7.19C20.37.85,95.82,12.74,133.62,11.24c15.84-.63,44.07-12.64,70.11-10.5,77.65,6.41,77,24.47,114.35,19.28C377.05,11.81,466.48.36,487,9.43" transform="translate(-0.13 0.01)"/><path class="cls-173" d="M2.9,7.19c17.38-6.31,93,5.53,130.82,4,15.86-.64,43.78-12.6,69.77-10.47C281.09,7.08,280.42,25.22,317.78,20,376.91,11.78,466.42.34,486.87,9.41" transform="translate(-0.13 0.01)"/><path class="cls-174" d="M2.82,7.2c17.37-6.3,93.23,5.51,131,4C149.7,10.53,177.31-1.37,203.25.73,280.8,7,280.08,25.23,317.47,20,376.77,11.75,466.36.33,486.71,9.37" transform="translate(-0.13 0.01)"/><path class="cls-175" d="M2.73,7.21C20.1.92,96.17,12.7,133.93,11.15,149.82,10.5,177.12-1.36,203,.73,280.49,7,279.72,25.26,317.16,20,376.62,11.71,466.3.31,486.56,9.34" transform="translate(-0.13 0.01)"/><path class="cls-176" d="M2.65,7.21C20,.93,96.29,12.69,134,11.12c15.91-.66,42.91-12.46,68.74-10.39,77.44,6.18,76.61,24.54,114.1,19.3C376.48,11.68,466.24.29,486.41,9.32" transform="translate(-0.13 0.01)"/><path class="cls-176" d="M2.57,7.22C19.93,1,96.4,12.67,134.14,11.1c15.92-.67,42.61-12.42,68.39-10.38C279.91,6.84,279,25.28,316.53,20,376.34,11.64,466.18.27,486.26,9.29" transform="translate(-0.13 0.01)"/><path class="cls-177" d="M2.49,7.22c17.35-6.25,94,5.44,131.75,3.85,15.94-.67,42.32-12.38,68-10.36,77.33,6.07,76.4,24.58,114,19.31C376.2,11.61,466.12.25,486.11,9.25" transform="translate(-0.13 0.01)"/><path class="cls-177" d="M2.41,7.23C19.75,1,96.64,12.64,134.35,11c16-.68,42-12.33,67.7-10.33,77.28,6,76.29,24.6,114,19.31C376.06,11.57,466.06.23,486,9.23" transform="translate(-0.13 0.01)"/><path class="cls-178" d="M2.33,7.23C19.66,1,96.76,12.63,134.45,11c16-.69,41.73-12.28,67.36-10.31C279,6.66,278,25.32,315.65,20,375.92,11.54,466,.21,485.81,9.2" transform="translate(-0.13 0.01)"/><path class="cls-178" d="M2.25,7.24C19.57,1,96.87,12.62,134.55,11c16-.69,41.44-12.23,67-10.28,77.19,5.9,76.1,24.63,113.8,19.32C375.78,11.5,465.94.19,485.66,9.17" transform="translate(-0.13 0.01)"/><path class="cls-179" d="M2.16,7.25C19.48,1,97,12.6,134.66,11c16-.7,41.14-12.2,66.67-10.26C278.45,6.54,277.33,25.35,315,20,375.64,11.46,465.88.17,485.51,9.15" transform="translate(-0.13 0.01)"/><path class="cls-179" d="M2.08,7.26c17.31-6.19,95,5.34,132.68,3.68,16-.71,40.85-12.15,66.33-10.24C278.15,6.48,277,25.36,314.74,20,375.5,11.43,465.82.15,485.36,9.12" transform="translate(-0.13 0.01)"/><path class="cls-180" d="M2,7.26c17.3-6.19,95.22,5.31,132.87,3.64,16-.71,40.55-12.1,66-10.21,77,5.72,75.75,24.68,113.58,19.33C375.38,11.4,465.78.13,485.22,9.09" transform="translate(-0.13 0.01)"/><path class="cls-181" d="M1.92,7.26C19.21,1.1,97.34,12.57,135,10.87c16-.72,40.23-12,65.61-10.19C277.56,6.35,276.26,25.39,314.13,20,375.22,11.36,465.7.11,485.05,9.06" transform="translate(-0.13 0.01)"/><path class="cls-181" d="M1.84,7.26c17.28-6.14,95.62,5.29,133.23,3.58,16.08-.72,40-12,65.3-10.16C277.27,6.29,275.91,25.4,313.83,20,375.07,11.33,465.64.09,484.9,9" transform="translate(-0.13 0.01)"/><path class="cls-182" d="M1.76,7.27C19,1.14,97.57,12.53,135.18,10.82c16.09-.74,39.68-12,64.95-10.14C277,6.23,275.56,25.42,313.52,20,374.93,11.29,465.58.07,484.75,9" transform="translate(-0.13 0.01)"/><path class="cls-183" d="M1.68,7.28c17.26-6.12,96,5.24,133.6,3.52,16.11-.75,39.39-11.94,64.61-10.13C276.68,6.17,275.21,25.43,313.22,20c61.57-8.76,152.3-20,171.38-11" transform="translate(-0.13 0.01)"/><path class="cls-184" d="M1.59,7.29c17.26-6.12,96.22,5.22,133.8,3.47C151.51,10,174.48-1.12,199.65.67,276.39,6.11,274.86,25.44,312.91,20,374.65,11.23,465.46,0,484.45,9" transform="translate(-0.13 0.01)"/><path class="cls-184" d="M1.51,7.29c17.25-6.1,96.41,5.2,134,3.44C151.65,10,174.31-1.1,199.42.66c76.7,5.39,75.12,24.8,113.21,19.36,61.9-8.84,152.79-20,171.69-11.1" transform="translate(-0.13 0.01)"/><path class="cls-185" d="M1.43,7.3C18.67,1.21,98,12.48,135.59,10.7c16.16-.76,38.51-11.78,63.57-10C275.8,6,274.16,25.47,312.31,20c62.06-8.86,153-20,171.84-11.13" transform="translate(-0.13 0.01)"/><path class="cls-186" d="M1.35,7.3c17.23-6.07,96.81,5.16,134.35,3.38,16.17-.77,38.21-11.75,63.22-10C275.51,5.94,273.82,25.49,312,20c62.23-8.9,153.28-20,172-11.15" transform="translate(-0.13 0.01)"/><path class="cls-187" d="M1.27,7.31c17.22-6.06,97,5.14,134.53,3.34C152,9.87,173.72-1,198.68.65c76.53,5.21,74.79,24.85,113,19.37,62.4-8.93,153.54-20,172.17-11.18" transform="translate(-0.13 0.01)"/><path class="cls-187" d="M1.19,7.32c17.21-6.05,97.2,5.12,134.72,3.31,16.2-.78,37.62-11.65,62.53-10,76.48,5.15,74.68,24.86,113,19.37,62.5-9,153.72-20.09,172.26-11.22" transform="translate(-0.13 0.01)"/><path class="cls-188" d="M1.11,7.32c17.2-6,97.4,5.1,134.89,3.27C152.22,9.8,173.33-1,198.19.65,274.62,5.74,272.77,25.53,311.08,20c62.71-9,154-20.11,172.45-11.24" transform="translate(-0.13 0.01)"/><path class="cls-188" d="M1,7.33c17.2-6,97.6,5.08,135.09,3.23C152.35,9.77,173.15-1,198,.63c76.37,5,74.47,24.91,112.83,19.39C373.7,11,465.08-.1,483.43,8.75" transform="translate(-0.13 0.01)"/><path class="cls-189" d="M.94,7.33c17.19-6,97.8,5.06,135.28,3.21C152.47,9.73,173-1,197.72.63,274,5.62,272.08,25.56,310.48,20,373.48,11,465-.12,483.24,8.73" transform="translate(-0.13 0.01)"/><path class="cls-190" d="M.86,7.34c17.14-6,98,5,135.46,3.17C152.59,9.69,172.78-1,197.48.63,273.75,5.56,271.73,25.57,310.18,20,373.37,10.91,464.92-.14,483.09,8.7" transform="translate(-0.13 0.01)"/><path class="cls-191" d="M.78,7.34c17.22-6,98.22,5,135.65,3.14C152.71,9.66,172.59-.95,197.24.63c76.21,4.86,74.15,25,112.63,19.4,63.36-9.15,155-20.18,173.07-11.36" transform="translate(-0.13 0.01)"/><path class="cls-192" d="M.7,7.35c17.16-6,98.39,5,135.83,3.09C152.83,9.63,172.4-.93,197,.63c76.16,4.81,74,25,112.57,19.41C373,10.82,464.8-.18,482.79,8.64" transform="translate(-0.13 0.01)"/><path class="cls-192" d="M.62,7.36c17.15-6,98.57,5,136,3.07C153,9.59,172.22-.92,196.76.62c76.14,4.72,73.89,25,112.5,19.41C372.89,10.8,464.74-.2,482.64,8.61" transform="translate(-0.13 0.01)"/><path class="cls-193" d="M.54,7.36c17.14-5.95,98.77,5,136.2,3C153.07,9.55,172-.9,196.52.61,272.6,5.27,270.31,25.61,309,20,372.76,10.76,464.68-.21,482.49,8.59" transform="translate(-0.13 0.01)"/><path class="cls-193" d="M.45,7.37c17.14-5.94,99,4.93,136.39,3,16.35-.85,35-11.26,59.44-9.76,76,4.62,73.69,25,112.38,19.42,64-9.3,156-20.26,173.68-11.47" transform="translate(-0.13 0.01)"/><path class="cls-194" d="M.37,7.37c17.13-5.92,99.17,4.92,136.63,3,16.31-.85,34.65-11.21,59-9.73,76,4.56,73.59,25,112.31,19.42C372.5,10.7,464.55-.25,482.19,8.53" transform="translate(-0.13 0.01)"/><path class="cls-194" d="M.29,7.38c17.12-5.91,99.37,4.9,136.76,2.94C153.43,9.45,171.45-.85,195.8.6,271.69,5.11,269.29,25.66,308.05,20,372.36,10.66,464.49-.27,482,8.5" transform="translate(-0.13 0.01)"/><path class="cls-195" d="M.21,7.38c17.11-5.89,99.57,4.89,136.94,2.91C153.55,9.42,171.26-.83,195.56.6,271.39,5.05,269,25.68,307.74,20,372.23,10.63,464.43-.29,481.88,8.47" transform="translate(-0.13 0.01)"/></g></g></svg>