<svg xmlns="http://www.w3.org/2000/svg" viewBox="0 0 524.49 94.41"><defs><style>.cls-1,.cls-10,.cls-100,.cls-101,.cls-102,.cls-103,.cls-104,.cls-105,.cls-106,.cls-107,.cls-108,.cls-109,.cls-11,.cls-110,.cls-111,.cls-112,.cls-113,.cls-114,.cls-115,.cls-116,.cls-117,.cls-118,.cls-119,.cls-12,.cls-120,.cls-121,.cls-122,.cls-123,.cls-124,.cls-125,.cls-126,.cls-127,.cls-128,.cls-129,.cls-13,.cls-130,.cls-131,.cls-132,.cls-133,.cls-134,.cls-135,.cls-136,.cls-137,.cls-138,.cls-139,.cls-14,.cls-140,.cls-141,.cls-142,.cls-143,.cls-144,.cls-145,.cls-146,.cls-147,.cls-148,.cls-149,.cls-15,.cls-150,.cls-151,.cls-152,.cls-153,.cls-154,.cls-155,.cls-156,.cls-157,.cls-158,.cls-159,.cls-16,.cls-160,.cls-161,.cls-162,.cls-163,.cls-164,.cls-165,.cls-166,.cls-167,.cls-168,.cls-169,.cls-17,.cls-170,.cls-171,.cls-172,.cls-173,.cls-174,.cls-175,.cls-176,.cls-177,.cls-178,.cls-179,.cls-18,.cls-180,.cls-181,.cls-182,.cls-183,.cls-184,.cls-185,.cls-186,.cls-187,.cls-188,.cls-189,.cls-19,.cls-190,.cls-191,.cls-192,.cls-193,.cls-194,.cls-195,.cls-196,.cls-197,.cls-2,.cls-20,.cls-21,.cls-22,.cls-23,.cls-24,.cls-25,.cls-26,.cls-27,.cls-28,.cls-29,.cls-3,.cls-30,.cls-31,.cls-32,.cls-33,.cls-34,.cls-35,.cls-36,.cls-37,.cls-38,.cls-39,.cls-4,.cls-40,.cls-41,.cls-42,.cls-43,.cls-44,.cls-45,.cls-46,.cls-47,.cls-48,.cls-49,.cls-5,.cls-50,.cls-51,.cls-52,.cls-53,.cls-54,.cls-55,.cls-56,.cls-57,.cls-58,.cls-59,.cls-6,.cls-60,.cls-61,.cls-62,.cls-63,.cls-64,.cls-65,.cls-66,.cls-67,.cls-68,.cls-69,.cls-7,.cls-70,.cls-71,.cls-72,.cls-73,.cls-74,.cls-75,.cls-76,.cls-77,.cls-78,.cls-79,.cls-8,.cls-80,.cls-81,.cls-82,.cls-83,.cls-84,.cls-85,.cls-86,.cls-87,.cls-88,.cls-89,.cls-9,.cls-90,.cls-91,.cls-92,.cls-93,.cls-94,.cls-95,.cls-96,.cls-97,.cls-98,.cls-99{fill:none;stroke-width:0.5px;}.cls-1{stroke:#c21718;}.cls-1,.cls-10,.cls-100,.cls-101,.cls-102,.cls-103,.cls-104,.cls-105,.cls-106,.cls-107,.cls-108,.cls-109,.cls-11,.cls-110,.cls-111,.cls-112,.cls-113,.cls-114,.cls-115,.cls-116,.cls-117,.cls-118,.cls-119,.cls-120,.cls-121,.cls-122,.cls-123,.cls-124,.cls-125,.cls-126,.cls-127,.cls-128,.cls-129,.cls-13,.cls-130,.cls-131,.cls-132,.cls-133,.cls-134,.cls-135,.cls-136,.cls-137,.cls-138,.cls-139,.cls-14,.cls-140,.cls-141,.cls-142,.cls-143,.cls-144,.cls-145,.cls-146,.cls-147,.cls-148,.cls-149,.cls-15,.cls-150,.cls-151,.cls-152,.cls-153,.cls-154,.cls-155,.cls-156,.cls-157,.cls-158,.cls-159,.cls-160,.cls-161,.cls-162,.cls-163,.cls-164,.cls-165,.cls-166,.cls-167,.cls-168,.cls-169,.cls-17,.cls-170,.cls-171,.cls-172,.cls-173,.cls-174,.cls-175,.cls-176,.cls-177,.cls-178,.cls-179,.cls-18,.cls-180,.cls-181,.cls-182,.cls-183,.cls-184,.cls-185,.cls-186,.cls-187,.cls-188,.cls-189,.cls-19,.cls-190,.cls-191,.cls-192,.cls-193,.cls-194,.cls-195,.cls-196,.cls-197,.cls-2,.cls-20,.cls-22,.cls-23,.cls-24,.cls-25,.cls-26,.cls-27,.cls-29,.cls-3,.cls-31,.cls-32,.cls-33,.cls-34,.cls-35,.cls-36,.cls-37,.cls-38,.cls-39,.cls-4,.cls-40,.cls-41,.cls-42,.cls-43,.cls-44,.cls-45,.cls-46,.cls-47,.cls-48,.cls-49,.cls-5,.cls-50,.cls-51,.cls-52,.cls-53,.cls-54,.cls-55,.cls-56,.cls-57,.cls-58,.cls-59,.cls-6,.cls-60,.cls-61,.cls-62,.cls-63,.cls-64,.cls-65,.cls-66,.cls-67,.cls-68,.cls-69,.cls-7,.cls-70,.cls-71,.cls-72,.cls-73,.cls-74,.cls-75,.cls-76,.cls-77,.cls-78,.cls-79,.cls-8,.cls-80,.cls-81,.cls-82,.cls-83,.cls-84,.cls-85,.cls-86,.cls-87,.cls-88,.cls-89,.cls-9,.cls-90,.cls-91,.cls-92,.cls-93,.cls-94,.cls-95,.cls-96,.cls-97,.cls-98,.cls-99{stroke-miterlimit:10;}.cls-2{stroke:#c11819;}.cls-3{stroke:#c1181a;}.cls-4{stroke:#c0181a;}.cls-5{stroke:#c0181b;}.cls-6{stroke:#bf181c;}.cls-7{stroke:#bf191c;}.cls-8{stroke:#bf191d;}.cls-9{stroke:#be191d;}.cls-10{stroke:#be191e;}.cls-11{stroke:#bd191f;}.cls-12{stroke:#bd1920;}.cls-12,.cls-21,.cls-30{stroke-miterlimit:10;}.cls-13{stroke:#bc1a20;}.cls-14{stroke:#bc1a21;}.cls-15{stroke:#bb1a21;}.cls-16{stroke:#bb1a22;}.cls-16,.cls-28{stroke-miterlimit:10;}.cls-17{stroke:#ba1a22;}.cls-18{stroke:#ba1a23;}.cls-19{stroke:#ba1b23;}.cls-20{stroke:#b91b24;}.cls-21,.cls-22{stroke:#b81b25;}.cls-23{stroke:#b81b26;}.cls-24{stroke:#b71b26;}.cls-25{stroke:#b71c27;}.cls-26{stroke:#b61c27;}.cls-27{stroke:#b61c28;}.cls-28,.cls-29{stroke:#b51c29;}.cls-30{stroke:#b51c2a;}.cls-31{stroke:#b41d2a;}.cls-32{stroke:#b41d2b;}.cls-33{stroke:#b31d2b;}.cls-34{stroke:#b31d2c;}.cls-35{stroke:#b21d2c;}.cls-36{stroke:#b21d2d;}.cls-37{stroke:#b11d2e;}.cls-38{stroke:#b01e2e;}.cls-39{stroke:#b01e2f;}.cls-40{stroke:#af1e30;}.cls-41{stroke:#af1e31;}.cls-42{stroke:#ae1e31;}.cls-43{stroke:#ad1e32;}.cls-44{stroke:#ad1f33;}.cls-45{stroke:#ac1f33;}.cls-46{stroke:#ac1f34;}.cls-47{stroke:#ab1f34;}.cls-48{stroke:#ab1f35;}.cls-49{stroke:#aa1f35;}.cls-50{stroke:#aa1f36;}.cls-51{stroke:#a91f37;}.cls-52{stroke:#a92037;}.cls-53{stroke:#a82038;}.cls-54{stroke:#a72039;}.cls-55{stroke:#a6203a;}.cls-56{stroke:#a6203b;}.cls-57{stroke:#a5203b;}.cls-58{stroke:#a4213c;}.cls-59{stroke:#a4213d;}.cls-60{stroke:#a3213d;}.cls-61{stroke:#a3213e;}.cls-62{stroke:#a2213e;}.cls-63{stroke:#a2213f;}.cls-64{stroke:#a1213f;}.cls-65{stroke:#a12140;}.cls-66{stroke:#a02140;}.cls-67{stroke:#a02141;}.cls-68{stroke:#9f2141;}.cls-69{stroke:#9f2142;}.cls-70{stroke:#9e2142;}.cls-71{stroke:#9e2242;}.cls-72{stroke:#9e2243;}.cls-73{stroke:#9d2243;}.cls-74{stroke:#9d2244;}.cls-75{stroke:#9c2244;}.cls-76{stroke:#9c2245;}.cls-77{stroke:#9b2245;}.cls-78{stroke:#9b2246;}.cls-79{stroke:#9a2246;}.cls-80{stroke:#992247;}.cls-81{stroke:#992347;}.cls-82{stroke:#992348;}.cls-83{stroke:#982348;}.cls-84{stroke:#972349;}.cls-85{stroke:#97234a;}.cls-86{stroke:#96234a;}.cls-87{stroke:#95234b;}.cls-88{stroke:#95234c;}.cls-89{stroke:#94234c;}.cls-90{stroke:#93234d;}.cls-91{stroke:#93244d;}.cls-92{stroke:#92244d;}.cls-93{stroke:#92244e;}.cls-94{stroke:#91244f;}.cls-95{stroke:#90244f;}.cls-96{stroke:#902450;}.cls-97{stroke:#8f2450;}.cls-98{stroke:#8f2451;}.cls-99{stroke:#8e2451;}.cls-100{stroke:#8e2452;}.cls-101{stroke:#8d2452;}.cls-102{stroke:#8c2453;}.cls-103{stroke:#8b2453;}.cls-104{stroke:#8b2554;}.cls-105{stroke:#8a2555;}.cls-106{stroke:#892555;}.cls-107{stroke:#892556;}.cls-108{stroke:#882556;}.cls-109{stroke:#872557;}.cls-110{stroke:#862557;}.cls-111{stroke:#862558;}.cls-112{stroke:#852558;}.cls-113{stroke:#852559;}.cls-114{stroke:#842559;}.cls-115{stroke:#83255a;}.cls-116{stroke:#82255a;}.cls-117{stroke:#82255b;}.cls-118{stroke:#81265b;}.cls-119{stroke:#80265c;}.cls-120{stroke:#80265d;}.cls-121{stroke:#7f265d;}.cls-122{stroke:#7e265e;}.cls-123{stroke:#7d265e;}.cls-124{stroke:#7d265f;}.cls-125{stroke:#7c265f;}.cls-126{stroke:#7b2660;}.cls-127{stroke:#7a2661;}.cls-128{stroke:#792661;}.cls-129{stroke:#792662;}.cls-130{stroke:#782662;}.cls-131{stroke:#772763;}.cls-132{stroke:#762763;}.cls-133{stroke:#762764;}.cls-134{stroke:#752764;}.cls-135{stroke:#752765;}.cls-136{stroke:#742765;}.cls-137{stroke:#732766;}.cls-138{stroke:#722767;}.cls-139{stroke:#712767;}.cls-140{stroke:#712768;}.cls-141{stroke:#702768;}.cls-142{stroke:#6f2769;}.cls-143{stroke:#6e2769;}.cls-144{stroke:#6e276a;}.cls-145{stroke:#6d276a;}.cls-146{stroke:#6c276b;}.cls-147{stroke:#6b276b;}.cls-148{stroke:#6b276c;}.cls-149{stroke:#6a276c;}.cls-150{stroke:#69276d;}.cls-151{stroke:#68276d;}.cls-152{stroke:#68276e;}.cls-153{stroke:#67276e;}.cls-154{stroke:#66276f;}.cls-155{stroke:#65276f;}.cls-156{stroke:#652770;}.cls-157{stroke:#642770;}.cls-158{stroke:#632771;}.cls-159{stroke:#622771;}.cls-160{stroke:#622772;}.cls-161{stroke:#612772;}.cls-162{stroke:#602772;}.cls-163{stroke:#602773;}.cls-164{stroke:#5f2773;}.cls-165{stroke:#5e2774;}.cls-166{stroke:#5d2774;}.cls-167{stroke:#5d2775;}.cls-168{stroke:#5c2775;}.cls-169{stroke:#5b2775;}.cls-170{stroke:#5b2776;}.cls-171{stroke:#5a2776;}.cls-172{stroke:#592777;}.cls-173{stroke:#582777;}.cls-174{stroke:#582778;}.cls-175{stroke:#572778;}.cls-176{stroke:#562778;}.cls-177{stroke:#562779;}.cls-178{stroke:#552779;}.cls-179{stroke:#54277a;}.cls-180{stroke:#53277a;}.cls-181{stroke:#52277b;}.cls-182{stroke:#51277b;}.cls-183{stroke:#50277c;}.cls-184{stroke:#4f267c;}.cls-185{stroke:#4f267d;}.cls-186{stroke:#4e267d;}.cls-187{stroke:#4d267d;}.cls-188{stroke:#4d267e;}.cls-189{stroke:#4c267e;}.cls-190{stroke:#4b267f;}.cls-191{stroke:#4a267f;}.cls-192{stroke:#49267f;}.cls-193{stroke:#492680;}.cls-194{stroke:#482680;}.cls-195{stroke:#472681;}.cls-196{stroke:#462681;}.cls-197{stroke:#452682;}</style></defs><g id="Layer_2" data-name="Layer 2"><g id="Capa_1" data-name="Capa 1"><path class="cls-1" d="M23.09,25.29C42.56-17.54,66.37,68.76,107.93,81.1c11.48,3.42,117.24-109.31,155.17-74C356.2,93.8,364.72,94.54,393.18,89.33c15.69-2.88,88.17-67,131.12-16.13" transform="translate(0 0)"/><path class="cls-2" d="M23,25.32C42.47-17.46,66.49,68.71,108,81,119.54,84.36,225-28.13,262.86,7.09c93,86.46,101.53,87.59,130,82.24,15.87-3,88.41-67,131.27-16.26" transform="translate(0 0)"/><path class="cls-2" d="M22.93,25.34c19.45-42.71,43.68,43.31,85.21,55.51C119.66,84.21,224.78-28,262.62,7.08c93,86.21,101.45,87.74,130,82.25C408.63,86.24,481.23,22.2,524,72.94" transform="translate(0 0)"/><path class="cls-3" d="M22.85,25.37C42.29-17.29,66.73,68.6,108.24,80.72,119.78,84.06,224.59-28,262.38,7.06,355.29,93,363.74,95,392.27,89.33c16.23-3.19,88.9-67.22,131.58-16.52" transform="translate(0 0)"/><path class="cls-4" d="M22.77,25.39C42.2-17.21,66.85,68.55,108.35,80.6,119.9,83.91,224.4-27.88,262.14,7,355,92.78,363.41,95.08,392,89.33,408.38,86,481.11,22,523.7,72.69" transform="translate(0 0)"/><path class="cls-5" d="M22.69,25.42C42.11-17.12,66.94,68.6,108.45,80.47,120,83.78,224.21-27.79,261.9,7c92.79,85.51,101.18,88.19,129.76,82.32,16.6-3.41,89.39-67.4,131.89-16.78" transform="translate(0 0)"/><path class="cls-5" d="M22.61,25.44C42-17,67.06,68.57,108.56,80.35,120.13,83.63,224-27.71,261.66,7c92.73,85.27,101.09,88.34,129.7,82.34,16.78-3.52,89.63-67.49,132-16.91" transform="translate(0 0)"/><path class="cls-6" d="M22.52,25.47C41.93-17,67.17,68.54,108.66,80.22,120.25,83.49,223.82-27.63,261.42,7c92.67,85,101,88.48,129.64,82.36,16.95-3.63,89.87-67.58,132.19-17" transform="translate(0 0)"/><path class="cls-7" d="M22.44,25.5c19.4-42.37,44.84,43,86.32,54.59C120.37,83.34,223.63-27.54,261.18,7c92.6,84.8,100.91,88.63,129.57,82.38,17.14-3.74,90.12-67.66,132.34-17.16" transform="translate(0 0)"/><path class="cls-8" d="M22.36,25.52c19.39-42.31,45,43,86.51,54.45,11.62,3.22,114.57-107.43,152.07-73,92.54,84.56,100.82,88.77,129.51,82.4,17.32-3.84,90.36-67.75,132.49-17.29" transform="translate(0 0)"/><path class="cls-9" d="M22.28,25.55C41.66-16.71,67.51,68.44,109,79.84,120.61,83.05,223.25-27.37,260.7,6.93c92.48,84.32,100.73,88.9,129.44,82.41,17.51-4,90.61-67.84,132.65-17.42" transform="translate(0 0)"/><path class="cls-10" d="M22.2,25.57c19.37-42.19,45.43,42.84,86.88,54.15,11.66,3.18,114-107,151.38-72.81C352.88,91,361.1,96,389.84,89.34c17.69-4.06,90.85-67.93,132.8-17.54" transform="translate(0 0)"/><path class="cls-10" d="M22.12,25.6c19.36-42.14,45.62,42.77,87.06,54,11.68,3.16,113.68-106.8,151-72.7,92.36,83.85,100.55,89.18,129.32,82.46,17.87-4.18,91.09-68,133-17.68" transform="translate(0 0)"/><path class="cls-11" d="M22,25.62c19.35-42.08,45.82,42.72,87.24,53.84C121,82.6,222.67-27.12,260,6.87c92.3,83.61,100.47,89.31,129.25,82.48,18-4.29,91.34-68.11,133.11-17.81" transform="translate(0 0)"/><path class="cls-11" d="M22,25.65c19.35-42,46,42.66,87.44,53.69C121.1,82.46,222.48-27,259.74,6.85,352,90.23,360.12,96.3,388.93,89.35c18.23-4.4,91.58-68.2,133.26-17.93" transform="translate(0 0)"/><path class="cls-12" d="M21.87,25.68c19.34-42,46.21,42.59,87.62,53.53,11.73,3.1,112.8-106.17,150-72.38C351.67,90,359.79,96.41,388.62,89.35,407,84.84,480.45,21.06,522,71.29" transform="translate(0 0)"/><path class="cls-13" d="M21.79,25.7C41.12-16.21,68.2,68.24,109.6,79.09c11.74,3.07,112.5-106,149.66-72.28,92.11,82.91,100.2,89.71,129.06,82.54,18.6-4.62,92.07-68.37,133.57-18.19" transform="translate(0 0)"/><path class="cls-14" d="M21.71,25.73C41-16.12,68.31,68.21,109.7,79,121.46,82,221.9-26.79,259,6.79c92.05,82.67,100.11,89.85,129,82.56C406.8,84.62,480.33,20.89,521.74,71" transform="translate(0 0)"/><path class="cls-15" d="M21.63,25.75C40.94-16,68.43,68.17,109.8,78.83c11.78,3,111.91-105.53,149-72,92,82.43,100,90,128.93,82.58,19-4.85,92.56-68.56,133.88-18.45" transform="translate(0 0)"/><path class="cls-15" d="M21.55,25.78c19.3-41.74,47,42.36,88.36,52.93,11.79,3,111.54-105.25,148.63-71.95,91.75,82.38,99.93,90.09,128.87,82.6,19.15-5,92.8-68.65,134-18.58" transform="translate(0 0)"/><path class="cls-16" d="M21.47,25.81C40.76-15.87,68.66,68.11,110,78.58c11.81,3,111.25-105,148.29-71.84C350,88.9,358.14,97,387.1,89.36c19.34-5.08,93-68.73,134.18-18.71" transform="translate(0 0)"/><path class="cls-17" d="M21.38,25.83c19.29-41.62,47.4,42.24,88.74,52.63,11.82,3,110.94-104.83,147.94-71.74,91.61,81.93,99.75,90.35,128.74,82.64,19.52-5.19,93.29-68.82,134.33-18.83" transform="translate(0 0)"/><path class="cls-18" d="M21.3,25.86C40.58-15.71,68.89,68,110.22,78.33c11.84,3,110.65-104.61,147.6-71.63,91.54,81.71,99.66,90.47,128.67,82.66C406.2,84.06,480,20.45,521,70.4" transform="translate(0 0)"/><path class="cls-19" d="M21.22,25.88C40.49-15.62,69,68,110.32,78.2,122.18,81.13,220.67-26.19,257.57,6.68c91.48,81.48,99.58,90.6,128.62,82.68,19.89-5.42,93.77-69,134.64-19.09" transform="translate(0 0)"/><path class="cls-20" d="M21.14,25.91C40.4-15.54,69.12,68,110.43,78.08,122.3,81,220.47-26.1,257.33,6.66c91.41,81.26,99.49,90.72,128.56,82.7,20.07-5.53,94-69.08,134.79-19.21" transform="translate(0 0)"/><path class="cls-20" d="M21.06,25.93c19.25-41.39,48.18,42,89.47,52C122.42,80.84,220.28-26,257.09,6.64c91.34,81,99.4,90.84,128.49,82.73,20.26-5.65,94.26-69.18,135-19.35" transform="translate(0 0)"/><path class="cls-20" d="M21,26C40.22-15.37,69.35,67.9,110.64,77.83c11.9,2.86,109.44-103.76,146.21-71.2,91.27,80.79,99.3,91,128.43,82.74,20.44-5.77,94.5-69.27,135.1-19.48" transform="translate(0 0)"/><path class="cls-21" d="M20.9,26C40.13-15.29,69.47,67.87,110.74,77.7,122.66,80.54,219.89-25.84,256.61,6.61,347.81,87.18,355.82,97.68,385,89.37,405.6,83.49,479.72,20,520.23,69.76" transform="translate(0 0)"/><path class="cls-22" d="M20.81,26c19.23-41.22,48.78,41.82,90,51.56,11.94,2.82,108.85-103.32,145.53-71,91.13,80.34,99.12,91.19,128.3,82.78,20.81-6,95-69.44,135.41-19.73" transform="translate(0 0)"/><path class="cls-23" d="M20.73,26C40-15.12,69.7,67.79,111,77.45c12,2.8,108.55-103.11,145.18-70.88,91.06,80.12,99,91.31,128.24,82.8,21-6.12,95.23-69.53,135.55-19.86" transform="translate(0 0)"/><path class="cls-24" d="M20.65,26.06c19.21-41.1,49.17,41.7,90.4,51.26C123,80.1,219.3-25.57,255.89,6.55c91,79.89,98.94,91.43,128.17,82.82,21.18-6.23,95.48-69.62,135.71-20" transform="translate(0 0)"/><path class="cls-25" d="M20.57,26.09c19.2-41,49.37,41.63,90.58,51.11,12,2.75,108-102.69,144.5-70.67C346.57,86.2,354.5,98.08,383.76,89.38,405.12,83,479.48,19.67,519.62,69.26" transform="translate(0 0)"/><path class="cls-25" d="M20.49,26.12c19.19-41,49.56,41.57,90.77,50.95,12,2.73,107.65-102.47,144.15-70.56,90.85,79.44,98.76,91.66,128,82.87,21.55-6.47,96-69.8,136-20.25" transform="translate(0 0)"/><path class="cls-26" d="M20.41,26.14c19.18-40.93,49.76,41.51,91,50.8,12,2.72,107.36-102.25,143.81-70.45,90.78,79.21,98.67,91.78,128,82.89C404.88,82.79,479.36,19.49,519.32,69" transform="translate(0 0)"/><path class="cls-27" d="M20.33,26.17c19.17-40.88,50,41.45,91.14,50.65,12,2.69,107.05-102,143.46-70.34,90.71,79,98.57,91.88,127.92,82.9,21.91-6.71,96.45-70,136.32-20.51" transform="translate(0 0)"/><path class="cls-27" d="M20.24,26.19c19.17-40.81,50.16,41.39,91.33,50.5C123.63,79.36,218.33-25.14,254.69,6.46c90.64,78.75,98.48,92,127.85,82.92,22.1-6.83,96.7-70.06,136.48-20.63" transform="translate(0 0)"/><path class="cls-28" d="M20.16,26.22c19.16-40.76,50.36,41.32,91.51,50.35C123.75,79.21,218.13-25,254.45,6.44,345,85,352.84,98.55,382.24,89.38c22.28-6.95,96.94-70.15,136.63-20.76" transform="translate(0 0)"/><path class="cls-29" d="M20.08,26.24c19.15-40.7,50.56,41.27,91.7,50.2,12.09,2.62,106.16-101.4,142.43-70,90.5,78.3,98.3,92.22,127.72,83,22.47-7.06,97.19-70.24,136.79-20.89" transform="translate(0 0)"/><path class="cls-30" d="M20,26.27c19.14-40.64,50.75,41.2,91.88,50C124,78.92,217.75-24.87,254,6.4c90.44,78.08,98.21,92.34,127.66,83,22.65-7.19,97.43-70.34,136.94-21" transform="translate(0 0)"/><path class="cls-31" d="M19.92,26.3c19.13-40.59,51,41.13,92.07,49.89,12.12,2.58,105.56-101,141.74-69.81,90.37,77.85,98.11,92.45,127.6,83C404.16,82.08,479,19,518.42,68.24" transform="translate(0 0)"/><path class="cls-32" d="M19.84,26.32C39-14.21,71,67.4,112.09,76.06c12.14,2.56,105.27-100.76,141.4-69.7,90.3,77.62,98,92.56,127.53,83C404,82,478.94,18.88,518.26,68.11" transform="translate(0 0)"/><path class="cls-33" d="M19.76,26.35c19.11-40.47,51.34,41,92.43,49.59,12.17,2.53,105-100.55,141.06-69.6C343.48,83.74,351.18,99,380.72,89.39c23.2-7.55,98.16-70.6,137.39-21.41" transform="translate(0 0)"/><path class="cls-33" d="M19.67,26.37C38.79-14,71.22,67.32,112.3,75.81,124.48,78.32,217-24.52,253,6.33c90.16,77.16,97.83,92.77,127.4,83.06C403.8,81.72,478.82,18.7,518,67.86" transform="translate(0 0)"/><path class="cls-34" d="M19.59,26.4C38.7-14,71.34,67.29,112.4,75.68c12.2,2.5,104.37-100.11,140.37-69.37,90.09,76.94,97.74,92.87,127.34,83.08,23.57-7.79,98.65-70.77,137.7-21.66" transform="translate(0 0)"/><path class="cls-35" d="M19.51,26.43c19.1-40.3,51.95,40.82,93,49.13,12.21,2.47,104.07-99.91,140-69.27,90,76.71,97.65,93,127.28,83.1,23.75-7.91,98.89-70.86,137.85-21.79" transform="translate(0 0)"/><path class="cls-36" d="M19.43,26.45c19.09-40.24,52.14,40.76,93.18,49,12.23,2.45,103.77-99.69,139.68-69.16,90,76.48,97.56,93.09,127.21,83.13,23.94-8,99.14-71,138-21.92" transform="translate(0 0)"/><path class="cls-36" d="M19.35,26.48C38.43-13.71,71.69,67.17,112.71,75.3c12.25,2.43,103.48-99.47,139.34-69,89.88,76.26,97.46,93.2,127.15,83.15,24.12-8.17,99.38-71.05,138.16-22.05" transform="translate(0 0)"/><path class="cls-37" d="M19.27,26.5c19.07-40.12,52.54,40.63,93.55,48.68,12.26,2.4,103.17-99.26,139-68.95,89.81,76,97.37,93.3,127.08,83.17,24.31-8.29,99.63-71.13,138.32-22.18" transform="translate(0 0)"/><path class="cls-37" d="M19.19,26.53C38.25-13.54,71.93,67.1,112.92,75.05,125.2,77.44,215.8-24,251.57,6.21c89.74,75.81,97.27,93.41,127,83.19C403.07,81,478.46,18.18,517.06,67.09" transform="translate(0 0)"/><path class="cls-38" d="M19.1,26.55c19.06-40,53,40.51,93.93,48.38,12.3,2.36,102.57-98.84,138.3-68.74C341,81.77,348.51,99.7,378.29,89.4,403,80.87,478.4,18.09,516.91,67" transform="translate(0 0)"/><path class="cls-39" d="M19,26.58C38.07-13.37,72.16,67,113.13,74.8c12.32,2.34,102.28-98.62,138-68.62C340.7,81.52,348.18,99.79,378,89.4,402.83,80.74,478.34,18,516.75,66.84" transform="translate(0 0)"/><path class="cls-39" d="M18.94,26.61C38-13.29,72.28,67,113.23,74.67c12.34,2.32,102-98.4,137.61-68.51,89.55,75.12,97,93.71,126.84,83.25,25-8.79,100.6-71.49,138.92-22.7" transform="translate(0 0)"/><path class="cls-40" d="M18.86,26.63c19-39.84,53.54,40.31,94.48,47.92C125.69,76.84,215-23.65,250.6,6.14,340.08,81,347.51,100,377.37,89.41c25.22-8.91,100.85-71.58,139.08-22.82" transform="translate(0 0)"/><path class="cls-40" d="M18.78,26.66c19-39.78,53.74,40.24,94.66,47.76,12.37,2.28,101.39-98,136.92-68.3C339.77,80.78,347.17,100,377.07,89.41c25.4-9,101.09-71.67,139.23-23" transform="translate(0 0)"/><path class="cls-41" d="M18.7,26.68C37.71-13,72.64,66.86,113.55,74.3c12.38,2.25,101.08-97.77,136.57-68.2,89.34,74.44,96.72,94,126.64,83.31,25.59-9.16,101.34-71.75,139.39-23.08" transform="translate(0 0)"/><path class="cls-42" d="M18.62,26.71c19-39.67,54.14,40.11,95,47.46,12.4,2.23,100.79-97.55,136.23-68.09,89.28,74.21,96.63,94.13,126.58,83.33C402.23,80.13,478,17.57,516,66.2" transform="translate(0 0)"/><path class="cls-42" d="M18.53,26.74c19-39.61,54.34,40,95.22,47.3,12.42,2.21,100.49-97.34,135.89-68,89.21,74,96.53,94.23,126.52,83.35C402.11,80,478,17.48,515.85,66.08" transform="translate(0 0)"/><path class="cls-43" d="M18.45,26.76c19-39.55,54.54,40,95.41,47.16C126.3,76.1,214.05-23.21,249.4,6c89.14,73.76,96.44,94.33,126.45,83.37C402,79.88,477.92,17.39,515.7,66" transform="translate(0 0)"/><path class="cls-43" d="M18.37,26.79c19-39.5,54.74,39.92,95.59,47C126.42,76,213.85-23.12,249.16,6c89.07,73.52,96.34,94.42,126.39,83.39,26.31-9.67,102.31-72.11,140-23.6" transform="translate(0 0)"/><path class="cls-44" d="M18.29,26.81c19-39.43,54.94,39.86,95.78,46.86C126.54,75.8,213.66-23,248.92,6c89,73.3,96.25,94.52,126.32,83.41,26.5-9.79,102.56-72.2,140.16-23.72" transform="translate(0 0)"/><path class="cls-45" d="M18.21,26.84c19-39.38,55.14,39.79,96,46.7C126.66,75.66,213.47-22.95,248.68,6c88.93,73.07,96.15,94.62,126.26,83.43,26.68-9.92,102.8-72.29,140.31-23.85" transform="translate(0 0)"/><path class="cls-46" d="M18.13,26.86c19-39.32,55.34,39.72,96.14,46.55,12.51,2.1,99-96.27,134.17-67.44,88.87,72.84,96.06,94.72,126.2,83.45,26.86-10,103-72.38,140.45-24" transform="translate(0 0)"/><path class="cls-47" d="M18.05,26.89C37-12.37,73.59,66.54,114.38,73.29,126.9,75.36,213.08-22.77,248.2,6c88.8,72.62,96,94.82,126.13,83.47C401.38,79.25,477.62,17,514.94,65.31" transform="translate(0 0)"/><path class="cls-48" d="M18,26.92C36.9-12.29,73.7,66.5,114.48,73.16,127,75.21,212.88-22.68,248,5.93,336.69,78.32,343.82,100.85,374,89.42c27.23-10.3,103.53-72.55,140.76-24.23" transform="translate(0 0)"/><path class="cls-48" d="M17.88,26.94C36.81-12.21,73.82,66.46,114.59,73c12.56,2,98.1-95.64,133.13-67.13,88.66,72.16,95.77,95,126,83.52C401.13,79,477.5,16.78,514.64,65.06" transform="translate(0 0)"/><path class="cls-49" d="M17.8,27c18.92-39.1,56.14,39.45,96.89,45.94,12.58,2,97.81-95.42,132.79-67,88.6,71.94,95.67,95.12,125.94,83.54,27.59-10.56,104-72.74,141.07-24.5" transform="translate(0 0)"/><path class="cls-50" d="M17.72,27c18.91-39,56.34,39.39,97.07,45.79,12.6,2,97.51-95.2,132.45-66.9,88.53,71.7,95.58,95.21,125.88,83.55,27.77-10.69,104.26-72.82,141.22-24.62" transform="translate(0 0)"/><path class="cls-50" d="M17.64,27c18.9-39,56.54,39.32,97.26,45.64,12.61,2,97.21-95,132.1-66.8,88.46,71.47,95.48,95.31,125.81,83.57,28-10.82,104.51-72.91,141.38-24.75" transform="translate(0 0)"/><path class="cls-51" d="M17.56,27.05C36.45-11.88,74.3,66.3,115,72.53c12.63,1.94,96.91-94.78,131.76-66.69,88.39,71.25,95.39,95.41,125.75,83.59,28.14-11,104.75-73,141.53-24.88" transform="translate(0 0)"/><path class="cls-52" d="M17.47,27.07c18.89-38.86,57,39.19,97.64,45.34,12.65,1.91,96.61-94.57,131.41-66.59,88.33,71,95.29,95.5,125.68,83.61,28.32-11.08,105-73.09,141.69-25" transform="translate(0 0)"/><path class="cls-53" d="M17.39,27.1c18.88-38.81,57.15,39.12,97.82,45.18,12.67,1.89,96.32-94.35,131.07-66.48,88.26,70.79,95.19,95.6,125.62,83.63,28.5-11.2,105.24-73.17,141.84-25.13" transform="translate(0 0)"/><path class="cls-53" d="M17.31,27.12c18.87-38.75,57.35,39.05,98,45C128,74,211.33-22,246,5.78c88.19,70.57,95.1,95.7,125.56,83.66,28.68-11.34,105.48-73.27,142-25.27" transform="translate(0 0)"/><path class="cls-53" d="M17.23,27.15c18.86-38.69,57.55,39,98.19,44.88,12.7,1.84,95.72-93.93,130.38-66.27,88.12,70.34,95,95.79,125.49,83.68C400.16,78,477,16.08,513.43,64" transform="translate(0 0)"/><path class="cls-54" d="M17.15,27.17C36-11.46,74.9,66.09,115.52,71.9c12.72,1.82,95.42-93.71,130-66.16,88.06,70.11,94.9,95.89,125.43,83.7C400,77.84,477,16,513.28,63.92" transform="translate(0 0)"/><path class="cls-54" d="M17.07,27.2c18.84-38.58,58,38.85,98.56,44.58,12.73,1.79,95.12-93.5,129.69-66,88,69.88,94.81,96,125.36,83.71,29.23-11.73,106.21-73.53,142.45-25.65" transform="translate(0 0)"/><path class="cls-55" d="M17,27.23C35.82-11.29,75.14,66,115.73,71.65c12.76,1.77,94.83-93.29,129.35-65.94,87.92,69.65,94.71,96.07,125.3,83.73C399.79,77.58,476.83,15.82,513,63.66" transform="translate(0 0)"/><path class="cls-55" d="M16.9,27.25C35.73-11.21,75.26,66,115.83,71.52c12.78,1.75,94.53-93.07,129-65.83,87.86,69.42,94.61,96.17,125.24,83.75,29.58-12,106.69-73.71,142.75-25.91" transform="translate(0 0)"/><path class="cls-56" d="M16.82,27.28C35.64-11.13,75.38,65.92,115.94,71.4c12.79,1.72,94.23-92.86,128.65-65.73,87.8,69.19,94.53,96.26,125.18,83.77,29.77-12.12,106.94-73.79,142.91-26" transform="translate(0 0)"/><path class="cls-57" d="M16.74,27.3C35.55-11,75.5,65.88,116,71.27,128.85,73,210-21.38,244.35,5.65c87.73,69,94.43,96.36,125.12,83.8,29.95-12.26,107.18-73.89,143.06-26.17" transform="translate(0 0)"/><path class="cls-57" d="M16.66,27.33c18.8-38.29,59,38.5,99.49,43.82,12.82,1.68,93.63-92.44,128-65.52,87.67,68.74,94.33,96.45,125.05,83.82,30.13-12.39,107.43-74,143.22-26.3" transform="translate(0 0)"/><path class="cls-58" d="M16.58,27.35C35.37-10.88,75.74,65.79,116.25,71c12.84,1.66,93.34-92.22,127.62-65.41,87.6,68.51,94.23,96.55,125,83.84C399.17,76.93,476.53,15.38,512.23,63" transform="translate(0 0)"/><path class="cls-58" d="M16.5,27.38c18.78-38.17,59.36,38.37,99.85,43.51,12.87,1.64,93-92,127.28-65.29,87.53,68.28,94.14,96.63,124.93,83.85C399.05,76.79,476.47,15.3,512.07,62.9" transform="translate(0 0)"/><path class="cls-59" d="M16.42,27.41C35.19-10.71,76,65.7,116.46,70.77,129.34,72.38,209.2-21,243.39,5.58c87.47,68.05,94,96.72,124.86,83.87S476.41,15.21,511.92,62.77" transform="translate(0 0)"/><path class="cls-60" d="M16.33,27.43C35.1-10.63,76.1,65.66,116.56,70.64,129.46,72.23,209-20.94,243.15,5.56c87.4,67.82,93.94,96.82,124.8,83.89s108.4-74.33,143.82-26.8" transform="translate(0 0)"/><path class="cls-61" d="M16.25,27.46c18.76-38,60,38.16,100.42,43.05,12.91,1.57,92.14-91.36,126.24-65,87.33,67.59,93.84,96.91,124.73,83.92,31-13.06,108.65-74.43,144-26.94" transform="translate(0 0)"/><path class="cls-62" d="M16.17,27.48c18.75-37.94,60.17,38.09,100.6,42.91,12.93,1.54,91.85-91.16,125.9-64.87,87.27,67.37,93.75,97,124.67,83.94C398.55,76.27,476.23,15,511.47,62.39" transform="translate(0 0)"/><path class="cls-62" d="M16.09,27.51c18.74-37.89,60.37,38,100.78,42.75,13,1.52,91.56-90.94,125.56-64.76,87.2,67.14,93.65,97.1,124.61,84,31.39-13.33,109.13-74.6,144.28-27.2" transform="translate(0 0)"/><path class="cls-63" d="M16,27.54c18.73-37.83,60.57,37.95,101,42.6,13,1.49,91.25-90.73,125.21-64.66,87.13,66.91,93.55,97.19,124.54,84C398.3,76,476.11,14.77,511.17,62.14" transform="translate(0 0)"/><path class="cls-64" d="M15.93,27.56C34.65-10.21,76.7,65.44,117.08,70c13,1.47,91-90.52,124.87-64.55,87.07,66.68,93.45,97.28,124.48,84C398.18,75.87,476.05,14.68,511,62" transform="translate(0 0)"/><path class="cls-65" d="M15.85,27.59c18.71-37.72,61,37.81,101.34,42.29,13,1.45,90.66-90.3,124.52-64.43,87,66.45,93.35,97.37,124.41,84C398.05,75.73,476,14.6,510.87,61.88" transform="translate(0 0)"/><path class="cls-66" d="M15.76,27.61C34.47-10,76.94,65.35,117.29,69.76c13,1.42,90.36-90.09,124.18-64.33,86.94,66.22,93.25,97.46,124.35,84,32.11-13.86,110.11-74.95,144.9-27.7" transform="translate(0 0)"/><path class="cls-66" d="M15.68,27.64c18.7-37.6,61.38,37.67,101.71,42,13,1.4,90.07-89.88,123.84-64.22,86.87,66,93.16,97.55,124.28,84.06,32.3-14,110.36-75,145.06-27.84" transform="translate(0 0)"/><path class="cls-67" d="M15.6,27.66C34.29-9.88,77.18,65.26,117.5,69.51,130.56,70.88,207.27-20.16,241,5.39c86.8,65.76,93.06,97.64,124.22,84.08,32.47-14.14,110.6-75.14,145.2-28" transform="translate(0 0)"/><path class="cls-68" d="M15.52,27.69C34.2-9.79,77.3,65.22,117.6,69.38c13.08,1.35,89.47-89.45,123.15-64,86.74,65.54,93,97.74,124.16,84.1,32.65-14.27,110.84-75.22,145.35-28.1" transform="translate(0 0)"/><path class="cls-69" d="M15.44,27.72c18.68-37.43,62,37.45,102.27,41.53C130.8,70.58,206.88-20,240.51,5.35c86.67,65.31,92.86,97.83,124.09,84.12,32.83-14.41,111.09-75.31,145.51-28.22" transform="translate(0 0)"/><path class="cls-70" d="M15.36,27.74C34-9.63,77.54,65.13,117.81,69.13c13.11,1.3,88.88-89,122.46-63.8,86.61,65.08,92.76,97.92,124,84.14,33-14.54,111.33-75.4,145.66-28.35" transform="translate(0 0)"/><path class="cls-71" d="M15.28,27.77C33.94-9.54,77.66,65.08,117.91,69,131.05,70.28,206.49-19.81,240,5.31c86.54,64.85,92.66,98,124,84.16C397.18,74.8,475.57,14,509.81,61" transform="translate(0 0)"/><path class="cls-72" d="M15.19,27.79C33.85-9.46,77.78,65,118,68.88,131.17,70.13,206.3-19.73,239.79,5.3c86.48,64.61,92.56,98.09,123.9,84.18,33.36-14.82,111.82-75.58,146-28.61" transform="translate(0 0)"/><path class="cls-73" d="M15.11,27.82C33.76-9.38,77.9,65,118.12,68.75c13.17,1.23,88-88.39,121.43-63.47C326,69.67,332,103.46,363.39,89.48c33.54-15,112.06-75.67,146.12-28.74" transform="translate(0 0)"/><path class="cls-74" d="M15,27.85C33.67-9.29,78,64.94,118.23,68.62c13.18,1.21,87.68-88.17,121.08-63.36,86.35,64.16,92.36,98.27,123.77,84.22C396.8,74.39,475.39,13.72,509.36,60.61" transform="translate(0 0)"/><path class="cls-75" d="M15,27.87C33.58-9.21,78.14,64.9,118.33,68.5c13.2,1.18,87.39-88,120.74-63.26,86.28,63.93,92.27,98.36,123.71,84.24,33.9-15.23,112.55-75.84,146.43-29" transform="translate(0 0)"/><path class="cls-75" d="M14.87,27.9c18.62-37,63.39,36.95,103.56,40.47,13.23,1.16,87.1-87.75,120.4-63.15,86.22,63.7,92.17,98.45,123.64,84.26,34.08-15.36,112.8-75.93,146.59-29.12" transform="translate(0 0)"/><path class="cls-76" d="M14.79,27.92C33.4-9,78.38,64.8,118.54,68.25c13.24,1.13,86.8-87.54,120.05-63,86.15,63.47,92.07,98.54,123.58,84.28,34.26-15.5,113-76,146.73-29.25" transform="translate(0 0)"/><path class="cls-77" d="M14.71,28C33.31-9,78.5,64.76,118.64,68.12c13.26,1.11,86.5-87.33,119.71-62.94,86.09,63.24,92,98.63,123.52,84.3C396.3,73.84,475.15,13.37,508.75,60.1" transform="translate(0 0)"/><path class="cls-78" d="M14.62,28c18.6-36.85,64,36.74,104.13,40C132,69.08,205-19.12,238.1,5.16c86,63,91.88,98.72,123.46,84.33,34.61-15.78,113.53-76.2,147-29.51" transform="translate(0 0)"/><path class="cls-79" d="M14.54,28C33.13-8.79,78.75,64.66,118.85,67.87c13.3,1.06,85.91-86.9,119-62.72,86,62.78,91.78,98.8,123.4,84.34C396.05,73.57,475,13.2,508.45,59.85" transform="translate(0 0)"/><path class="cls-79" d="M14.46,28C33-8.71,78.87,64.62,119,67.74c13.32,1,85.61-86.69,118.67-62.61C323.52,67.68,329.3,104,361,89.49c35-16.06,114-76.38,147.35-29.77" transform="translate(0 0)"/><path class="cls-80" d="M14.38,28.05C33-8.63,79,64.57,119.06,67.62c13.33,1,85.31-86.48,118.32-62.51,85.84,62.32,91.58,99,123.27,84.38C395.79,73.3,474.91,13,508.15,59.59" transform="translate(0 0)"/><path class="cls-81" d="M14.3,28.08C32.86-8.54,79.11,64.52,119.16,67.49c13.35,1,85-86.27,118-62.4,85.77,62.09,91.48,99.07,123.21,84.4,35.32-16.33,114.5-76.55,147.65-30" transform="translate(0 0)"/><path class="cls-82" d="M14.22,28.1c18.55-36.56,65,36.38,105.05,39.26,13.36,1,84.72-86,117.63-62.29C322.61,66.93,328.28,104.23,360,89.49,395.54,73,474.79,12.85,507.85,59.34" transform="translate(0 0)"/><path class="cls-83" d="M14.14,28.13C32.68-8.38,79.35,64.43,119.37,67.24c13.39.94,84.42-85.84,117.29-62.19,85.64,61.63,91.28,99.25,123.08,84.44,35.67-16.61,115-76.73,148-30.28" transform="translate(0 0)"/><path class="cls-83" d="M14.05,28.16c18.54-36.45,65.42,36.22,105.42,39C132.88,68,203.6-18.52,236.42,5c85.58,61.41,91.18,99.34,123,84.47,35.86-16.75,115.24-76.83,148.12-30.41" transform="translate(0 0)"/><path class="cls-84" d="M14,28.18C32.5-8.21,79.59,64.33,119.58,67c13.42.89,83.83-85.42,116.6-62,85.52,61.18,91.08,99.43,123,84.49C395.16,72.61,474.61,12.59,507.4,59" transform="translate(0 0)"/><path class="cls-84" d="M13.89,28.21C32.41-8.13,79.71,64.28,119.68,66.86c13.44.87,83.53-85.2,116.26-61.86,85.45,60.94,91,99.51,122.89,84.5,36.2-17,115.72-77,148.41-30.67" transform="translate(0 0)"/><path class="cls-85" d="M13.81,28.23c18.51-36.27,66,36,106,38.5C133.24,67.57,203-18.26,235.7,5c85.39,60.71,90.88,99.6,122.82,84.52,36.39-17.17,116-77.09,148.57-30.8" transform="translate(0 0)"/><path class="cls-86" d="M13.73,28.26C32.23-8,80,64.19,119.89,66.61c13.48.81,82.94-84.78,115.57-61.65,85.32,60.48,90.78,99.69,122.76,84.54,36.56-17.31,116.21-77.17,148.72-30.92" transform="translate(0 0)"/><path class="cls-86" d="M13.65,28.28C32.14-7.88,80.08,64.14,120,66.48c13.5.79,82.65-84.57,115.23-61.54,85.26,60.25,90.68,99.77,122.69,84.56,36.74-17.45,116.46-77.26,148.88-31" transform="translate(0 0)"/><path class="cls-87" d="M13.57,28.31C32.05-7.79,80.2,64.09,120.1,66.36,133.61,67.12,202.44-18,235,4.92c85.2,60,90.57,99.86,122.63,84.59,36.91-17.6,116.7-77.36,149-31.19" transform="translate(0 0)"/><path class="cls-87" d="M13.48,28.34C32-7.71,80.32,64,120.2,66.23,133.73,67,202.25-17.91,234.74,4.9c85.13,59.79,90.47,99.95,122.57,84.61C394.39,71.77,474.25,12.06,506.49,58.2" transform="translate(0 0)"/><path class="cls-88" d="M13.4,28.36c18.47-36,67,35.63,106.91,37.74,13.55.72,81.75-83.93,114.19-61.22,85.07,59.56,90.37,100,122.5,84.63C394.27,71.63,474.19,12,506.34,58.07" transform="translate(0 0)"/><path class="cls-89" d="M13.32,28.39C31.78-7.54,80.56,64,120.41,66c13.57.69,81.46-83.72,113.85-61.12,85,59.33,90.27,100.13,122.44,84.65,37.44-18,117.43-77.62,149.49-31.57" transform="translate(0 0)"/><path class="cls-89" d="M13.24,28.41C31.69-7.46,80.68,63.9,120.51,65.85c13.59.67,81.17-83.51,113.51-61C319,63.94,324.19,105.05,356.39,89.51,394,71.36,474.07,11.8,506,57.81" transform="translate(0 0)"/><path class="cls-90" d="M13.16,28.44C31.6-7.38,80.8,63.85,120.62,65.73c13.6.64,80.86-83.3,113.16-60.9,84.88,58.86,90.07,100.29,122.31,84.68,37.79-18.3,117.92-77.8,149.8-31.82" transform="translate(0 0)"/><path class="cls-91" d="M13.08,28.47C31.51-7.29,80.92,63.8,120.72,65.6c13.63.62,80.57-83.09,112.82-60.79,84.81,58.63,90,100.38,122.25,84.7,38-18.44,118.16-77.88,149.94-31.95" transform="translate(0 0)"/><path class="cls-92" d="M13,28.49c18.42-35.7,68,35.26,107.83,37,13.64.59,80.27-82.87,112.47-60.68,84.75,58.4,89.87,100.47,122.18,84.73,38.15-18.59,118.41-78,150.1-32.09" transform="translate(0 0)"/><path class="cls-93" d="M12.91,28.52c18.42-35.65,68.26,35.18,108,36.83,13.66.56,80-82.66,112.13-60.58,84.69,58.17,89.77,100.56,122.12,84.75C393.5,70.79,473.82,11.45,505.43,57.31" transform="translate(0 0)"/><path class="cls-93" d="M12.83,28.54C31.24-7,81.29,63.65,121,65.22c13.68.54,79.68-82.45,111.79-60.47,84.62,57.94,89.66,100.64,122.05,84.77,38.5-18.87,118.89-78.16,150.41-32.34" transform="translate(0 0)"/><path class="cls-94" d="M12.75,28.57C31.15-7,81.41,63.6,121.14,65.09c13.69.52,79.38-82.23,111.44-60.36,84.56,57.71,89.56,100.73,122,84.79,38.67-19,119.13-78.24,150.56-32.47" transform="translate(0 0)"/><path class="cls-94" d="M12.67,28.59C31.06-6.88,81.53,63.55,121.24,65c13.72.49,79.09-82,111.1-60.26,84.5,57.48,89.46,100.82,121.92,84.81C393.11,70.37,473.64,11.19,505,56.92" transform="translate(0 0)"/><path class="cls-95" d="M12.59,28.62C31-6.79,81.65,63.5,121.35,64.84,135.08,65.31,200.14-17,232.1,4.7,316.54,61.94,321.46,105.59,354,89.52,393,70.23,473.58,11.1,504.83,56.8" transform="translate(0 0)"/><path class="cls-96" d="M12.51,28.65C30.88-6.71,81.77,63.45,121.45,64.72c13.75.44,78.5-81.61,110.41-60,84.37,57,89.26,101,121.8,84.85,39.19-19.44,119.86-78.52,151-32.86" transform="translate(0 0)"/><path class="cls-97" d="M12.43,28.67C30.79-6.63,81.89,65.85,121.55,64.59c13.77-.44,78.2-81.39,110.06-59.93,84.32,56.78,89.17,101.07,121.74,84.87,39.37-19.58,120.11-78.6,151.18-33" transform="translate(0 0)"/><path class="cls-97" d="M12.34,28.7C30.7-6.54,82,65.79,121.66,64.46c13.78-.46,77.9-81.17,109.71-59.82,84.26,56.55,89.06,101.16,121.68,84.89C392.59,69.8,473.4,10.84,504.38,56.42" transform="translate(0 0)"/><path class="cls-98" d="M12.26,28.72c18.35-35.18,69.89,37,109.5,35.62,13.8-.49,77.61-81,109.37-59.72,84.19,56.32,89,101.24,121.61,84.91,39.72-19.87,120.6-78.78,151.49-33.24" transform="translate(0 0)"/><path class="cls-99" d="M12.18,28.75C30.52-6.38,82.27,65.69,121.87,64.21c13.81-.51,77.31-80.75,109-59.61C315,60.69,319.75,105.93,352.44,89.53c39.89-20,120.84-78.87,151.63-33.37" transform="translate(0 0)"/><path class="cls-100" d="M12.1,28.78C30.43-6.29,82.4,65.64,122,64.09c13.84-.55,77-80.55,108.68-59.51,84.07,55.86,88.76,101.42,121.49,85C392.21,69.38,473.22,10.58,503.92,56" transform="translate(0 0)"/><path class="cls-101" d="M12,28.8C30.34-6.21,82.52,65.58,122.07,64c13.86-.57,76.72-80.33,108.34-59.4,84,55.63,88.66,101.5,121.42,85,40.25-20.3,121.33-79,151.94-33.62" transform="translate(0 0)"/><path class="cls-101" d="M11.94,28.83c18.31-35,70.71,36.7,110.24,35,13.87-.59,76.42-80.12,108-59.28,84,55.39,88.55,101.58,121.36,85C392,69.09,473.1,10.4,503.62,55.78" transform="translate(0 0)"/><path class="cls-102" d="M11.86,28.85C30.16-6,82.78,65.48,122.28,63.71c13.89-.62,76.13-79.91,107.65-59.18,83.88,55.16,88.45,101.67,121.29,85C391.82,69,473,10.32,503.47,55.65" transform="translate(0 0)"/><path class="cls-102" d="M11.77,28.88C30.07-6,82.9,65.42,122.39,63.58c13.9-.65,75.83-79.7,107.3-59.07,83.82,54.93,88.35,101.75,121.23,85,40.77-20.73,122.06-79.31,152.4-34" transform="translate(0 0)"/><path class="cls-103" d="M11.69,28.9C30-5.88,83,65.37,122.49,63.46c13.92-.68,75.54-79.49,107-59,83.76,54.7,88.25,101.84,121.17,85.05,40.94-20.88,122.3-79.4,152.55-34.14" transform="translate(0 0)"/><path class="cls-104" d="M11.61,28.93c18.28-34.72,71.54,36.38,111,34.4,13.94-.7,75.25-79.28,106.62-58.86,83.7,54.46,88.15,101.92,121.1,85.07,41.11-21,122.55-79.49,152.71-34.27" transform="translate(0 0)"/><path class="cls-104" d="M11.53,29C29.8-5.71,83.28,65.26,122.7,63.2c14-.72,74.94-79.06,106.27-58.75,83.64,54.23,88,102,121,85.09C391.29,68.38,472.8,10,502.87,55.14" transform="translate(0 0)"/><path class="cls-105" d="M11.45,29C29.71-5.63,83.4,65.2,122.8,63.08c14-.76,74.65-78.86,105.93-58.65,83.57,54,87.94,102.1,121,85.12,41.46-21.32,123-79.67,153-34.53" transform="translate(0 0)"/><path class="cls-105" d="M11.37,29C29.62-5.54,83.53,65.15,122.91,63c14-.78,74.35-78.64,105.58-58.54C312,58.18,316.33,106.59,349.4,89.55,391,68.09,472.68,9.79,502.56,54.89" transform="translate(0 0)"/><path class="cls-106" d="M11.29,29C29.53-5.46,83.65,65.09,123,62.83,137,62,197.07-15.61,228.25,4.4,311.7,57.93,316,106.66,349.1,89.55,390.9,67.94,472.62,9.7,502.41,54.76" transform="translate(0 0)"/><path class="cls-107" d="M11.2,29.06C29.44-5.38,83.78,65,123.11,62.7c14-.83,73.77-78.22,104.9-58.32,83.39,53.3,87.63,102.34,120.78,85.17,42-21.75,123.77-79.93,153.47-34.91" transform="translate(0 0)"/><path class="cls-108" d="M11.12,29.08C29.36-5.29,83.91,65,123.22,62.57c14-.85,73.47-78,104.55-58.21C311.1,57.42,315.3,106.79,348.49,89.55c42.15-21.89,124-80,153.62-35" transform="translate(0 0)"/><path class="cls-108" d="M11,29.11C29.27-5.21,84,64.92,123.32,62.45c14.05-.89,73.17-77.8,104.21-58.11C310.8,57.17,315,106.86,348.18,89.55,390.51,67.51,472.44,9.44,502,54.38" transform="translate(0 0)"/><path class="cls-109" d="M11,29.14C29.18-5.13,84.16,64.86,123.43,62.32c14.07-.91,72.87-77.59,103.86-58,83.21,52.6,87.32,102.6,120.59,85.23,42.5-22.18,124.5-80.2,153.93-35.29" transform="translate(0 0)"/><path class="cls-109" d="M10.88,29.16C29.09-5,84.28,64.8,123.53,62.2c14.09-.94,72.58-77.38,103.52-57.9C310.2,56.67,314.27,107,347.58,89.56,390.25,67.22,472.32,9.27,501.66,54.13" transform="translate(0 0)"/><path class="cls-110" d="M10.8,29.19C29-5,84.41,64.74,123.63,62.07c14.11-1,72.29-77.17,103.18-57.79,83.08,52.14,87.12,102.77,120.46,85.28C390.12,67.08,472.26,9.18,501.51,54" transform="translate(0 0)"/><path class="cls-111" d="M10.72,29.21c18.19-34.09,73.81,35.47,113,32.73,14.12-1,72-76.95,102.83-57.68,83,51.9,87,102.86,120.4,85.3C390,66.93,472.2,9.09,501.36,53.87" transform="translate(0 0)"/><path class="cls-112" d="M10.63,29.24c18.19-34,74,35.39,113.21,32.58,14.14-1,71.7-76.75,102.49-57.57,83,51.66,86.91,102.93,120.33,85.31C389.85,66.79,472.14,9,501.21,53.75" transform="translate(0 0)"/><path class="cls-113" d="M10.55,29.27c18.18-34,74.23,35.3,113.4,32.42,14.15-1,71.4-76.53,102.14-57.46,82.9,51.43,86.81,103,120.27,85.33,43.36-22.92,125.72-80.64,154.7-35.94" transform="translate(0 0)"/><path class="cls-114" d="M10.47,29.29C28.64-4.63,84.91,64.51,124.05,61.57c14.17-1.07,71.11-76.33,101.8-57.36,82.84,51.2,86.71,103.11,120.21,85.35C389.59,66.49,472,8.83,500.9,53.49" transform="translate(0 0)"/><path class="cls-114" d="M10.39,29.32C28.55-4.54,85,64.44,124.15,61.44,138.34,60.35,195-14.67,225.61,4.19c82.78,51,86.6,103.19,120.14,85.37C389.46,66.35,472,8.74,500.75,53.37" transform="translate(0 0)"/><path class="cls-115" d="M10.31,29.34c18.15-33.8,74.85,35,114,32,14.2-1.11,70.51-75.9,101.11-57.14,82.72,50.73,86.5,103.28,120.08,85.4C389.32,66.2,471.9,8.65,500.6,53.24" transform="translate(0 0)"/><path class="cls-115" d="M10.23,29.37C28.37-4.38,85.28,64.32,124.36,61.19c14.22-1.14,70.22-75.69,100.76-57,82.67,50.5,86.41,103.36,120,85.42,44.05-23.51,126.7-81,155.31-36.46" transform="translate(0 0)"/><path class="cls-116" d="M10.15,29.39C28.28-4.29,85.41,64.26,124.47,61.06c14.23-1.17,69.92-75.48,100.41-56.93,82.61,50.26,86.3,103.45,120,85.44C389.06,65.91,471.78,8.48,500.3,53" transform="translate(0 0)"/><path class="cls-117" d="M10.06,29.42C28.19-4.21,85.53,64.2,124.57,60.94c14.25-1.2,69.63-75.28,100.07-56.83,82.55,50,86.2,103.53,119.9,85.46C388.93,65.76,471.72,8.39,500.15,52.86" transform="translate(0 0)"/><path class="cls-118" d="M10,29.45C28.1-4.13,85.66,64.14,124.67,60.81,138.94,59.59,194-14.25,224.4,4.1c82.49,49.79,86.09,103.61,119.83,85.47C388.79,65.62,471.66,8.31,500,52.73" transform="translate(0 0)"/><path class="cls-118" d="M9.9,29.47C28-4,85.78,64.07,124.78,60.68c14.29-1.24,69-74.85,99.38-56.6,82.43,49.55,86,103.69,119.77,85.49,44.73-24.1,127.67-81.35,155.92-37" transform="translate(0 0)"/><path class="cls-119" d="M9.82,29.5C27.92-4,85.77,61.72,124.88,60.56c14.36-.43,68.75-74.64,99-56.5,82.37,49.32,85.89,103.78,119.7,85.52C388.53,65.33,471.54,8.13,499.7,52.48" transform="translate(0 0)"/><path class="cls-119" d="M9.74,29.52C27.83-3.88,85.89,61.66,125,60.43,139.36,60,193.44-14,223.68,4,306,53.13,309.46,107.9,343.32,89.58,388.4,65.18,471.48,8,499.55,52.35" transform="translate(0 0)"/><path class="cls-120" d="M9.66,29.55C27.74-3.79,86,61.61,125.09,60.3c14.39-.47,68.16-74.21,98.35-56.28C305.69,52.87,309.12,108,343,89.58,388.26,65,471.42,8,499.39,52.22" transform="translate(0 0)"/><path class="cls-121" d="M9.58,29.58c18.07-33.29,76.55,32,115.61,30.6,14.41-.51,67.87-74,98-56.18,82.19,48.62,85.58,104,119.51,85.58,45.42-24.7,128.65-81.71,156.53-37.49" transform="translate(0 0)"/><path class="cls-121" d="M9.49,29.6C27.56-3.63,86.25,61.5,125.3,60.05,139.72,59.52,192.86-13.75,223,4c82.13,48.38,85.47,104.12,119.45,85.6C388,64.74,471.3,7.78,499.09,52" transform="translate(0 0)"/><path class="cls-122" d="M9.41,29.63c18.06-33.17,77,31.81,116,30.3,14.45-.56,67.27-73.59,97.32-56,82.07,48.15,85.37,104.2,119.38,85.62,45.76-25,129.14-81.89,156.84-37.74" transform="translate(0 0)"/><path class="cls-122" d="M9.33,29.65C27.38-3.46,86.5,61.39,125.51,59.8c14.46-.59,67-73.38,97-55.85,82,47.91,85.26,104.28,119.32,85.63,45.93-25.14,129.38-82,157-37.87" transform="translate(0 0)"/><path class="cls-123" d="M9.25,29.68c18-33.06,77.37,31.65,116.36,30,14.48-.61,66.68-73.16,96.63-55.74C304.19,51.6,307.4,108.29,341.49,89.59c46.11-25.3,129.63-82.07,157.15-38" transform="translate(0 0)"/><path class="cls-124" d="M9.17,29.7c18-33,77.57,31.58,116.54,29.85,14.5-.64,66.39-73,96.29-55.64,81.89,47.44,85.06,104.44,119.19,85.68,46.27-25.44,129.87-82.16,157.3-38.13" transform="translate(0 0)"/><path class="cls-125" d="M9.09,29.73c18-32.94,77.77,31.49,116.73,29.69,14.52-.67,66.09-72.75,95.94-55.53,81.83,47.2,84.95,104.53,119.13,85.7C387.33,64,471,7.34,498.34,51.33" transform="translate(0 0)"/><path class="cls-125" d="M9,29.76C27-3.13,87,61.17,125.92,59.3c14.54-.7,65.8-72.54,95.6-55.43,81.77,47,84.85,104.61,119.06,85.72C387.2,63.85,470.94,7.26,498.19,51.2" transform="translate(0 0)"/><path class="cls-126" d="M8.92,29.78C26.93-3,87.1,61.11,126,59.17c14.55-.72,65.5-72.33,95.25-55.32C303,50.58,306,108.55,340.28,89.59,387.06,63.7,470.88,7.17,498,51.08" transform="translate(0 0)"/><path class="cls-126" d="M8.84,29.81C26.84-3,87.22,61.05,126.13,59,140.7,58.29,191.34-13.08,221,3.83,302.7,50.33,305.68,108.61,340,89.59c47-26,130.85-82.51,157.92-38.64" transform="translate(0 0)"/><path class="cls-127" d="M8.76,29.83C26.75-2.88,87.34,61,126.23,58.92,140.82,58.14,191.15-13,220.8,3.81c81.6,46.26,84.53,104.87,118.87,85.79C386.79,63.41,470.75,7,497.73,50.82" transform="translate(0 0)"/><path class="cls-127" d="M8.68,29.86c18-32.66,78.78,31.08,117.66,28.93C141,58,191-12.91,220.56,3.8c81.54,46,84.43,104.94,118.81,85.8C386.66,63.26,470.69,6.91,497.58,50.7" transform="translate(0 0)"/><path class="cls-128" d="M8.6,29.89c18-32.6,79,31,117.84,28.78,14.63-.84,64.33-71.49,93.88-54.89,81.48,45.78,84.33,105,118.74,85.82,47.47-26.49,131.57-82.78,158.37-39" transform="translate(0 0)"/><path class="cls-129" d="M8.52,29.91c18-32.54,79.18,30.92,118,28.63,14.64-.86,64-71.28,93.53-54.78C301.5,49.3,304.3,108.87,338.76,89.6,386.39,63,470.57,6.73,497.28,50.44" transform="translate(0 0)"/><path class="cls-130" d="M8.44,29.94c18-32.49,79.38,30.83,118.21,28.47,14.66-.89,63.74-71.07,93.19-54.67C301.2,49.05,304,108.93,338.45,89.6,386.26,62.81,470.51,6.65,497.13,50.31" transform="translate(0 0)"/><path class="cls-130" d="M8.35,30c18-32.42,79.59,30.76,118.4,28.33,14.68-.92,63.45-70.86,92.85-54.57,81.31,45.07,84,105.28,118.55,85.88,48-26.94,132.3-83,158.83-39.41" transform="translate(0 0)"/><path class="cls-131" d="M8.27,30C26.21-2.38,88.07,60.66,126.86,58.16c14.7-.94,63.15-70.65,92.5-54.46,81.25,44.83,83.91,105.36,118.49,85.9C386,62.51,470.39,6.47,496.83,50.06" transform="translate(0 0)"/><path class="cls-131" d="M8.19,30C26.12-2.3,88.19,60.6,127,58c14.72-1,62.86-70.45,92.16-54.36,81.19,44.6,83.8,105.45,118.42,85.93C385.85,62.36,470.33,6.38,496.68,49.93" transform="translate(0 0)"/><path class="cls-132" d="M8.11,30C26-2.21,88.31,60.55,127.07,57.91c14.73-1,62.56-70.24,91.81-54.24C300,48,302.58,109.19,337.24,89.61c48.48-27.4,133-83.31,159.29-39.8" transform="translate(0 0)"/><path class="cls-133" d="M8,30.07c17.91-32.2,80.4,30.42,119.14,27.71,14.75-1,62.27-70,91.46-54.13,81.08,44.11,83.6,105.61,118.3,86,48.65-27.55,133.28-83.4,159.45-39.93" transform="translate(0 0)"/><path class="cls-134" d="M8,30.09C25.85-2,88.55,60.43,127.27,57.66c14.77-1.06,62-69.82,91.12-54,81,43.88,83.5,105.69,118.24,86,48.82-27.7,133.52-83.49,159.59-40.06" transform="translate(0 0)"/><path class="cls-134" d="M7.87,30.12C25.76-2,88.67,60.38,127.38,57.53c14.79-1.09,61.68-69.61,90.77-53.92,81,43.64,83.39,105.77,118.18,86C385.31,61.77,470.09,6,496.07,49.42" transform="translate(0 0)"/><path class="cls-135" d="M7.78,30.14c17.89-32,81,30.18,119.7,27.27,14.81-1.12,61.39-69.4,90.43-53.82C298.82,47,301.2,109.45,336,89.61,385.18,61.62,470,6,495.92,49.3" transform="translate(0 0)"/><path class="cls-136" d="M7.7,30.17c17.88-32,81.21,30.09,119.89,27.11,14.82-1.14,61.09-69.19,90.08-53.71,80.85,43.17,83.18,105.94,118.05,86C385,61.47,470,5.86,495.77,49.17" transform="translate(0 0)"/><path class="cls-136" d="M7.62,30.2c17.87-31.91,81.41,30,120.07,27,14.84-1.17,60.8-69,89.74-53.6,80.79,42.93,83.08,106,118,86.07C384.91,61.32,469.91,5.77,495.62,49" transform="translate(0 0)"/><path class="cls-137" d="M7.54,30.22C25.4-1.63,89.15,60.15,127.79,57c14.86-1.2,60.51-68.77,89.4-53.5,80.74,42.69,83,106.11,117.92,86.09,49.66-28.46,134.74-83.94,160.36-40.7" transform="translate(0 0)"/><path class="cls-137" d="M7.46,30.25C25.31-1.55,89.27,60.09,127.9,56.9c14.88-1.23,60.21-68.56,89-53.38C297.63,46,299.82,109.7,334.81,89.62c49.83-28.61,135-84,160.51-40.83" transform="translate(0 0)"/><path class="cls-138" d="M7.38,30.27C25.22-1.46,89.39,60,128,56.78c14.9-1.26,59.92-68.36,88.71-53.28,80.62,42.2,82.76,106.27,117.79,86.12,50-28.76,135.23-84.11,160.67-41" transform="translate(0 0)"/><path class="cls-138" d="M7.3,30.3C25.13-1.38,89.51,60,128.11,56.65,143,55.36,187.73-11.5,216.47,3.48c80.57,42,82.66,106.35,117.73,86.14C384.37,60.71,469.67,5.42,495,48.53" transform="translate(0 0)"/><path class="cls-139" d="M7.21,30.32C25-1.3,89.63,59.92,128.21,56.52c14.93-1.31,59.33-67.93,88-53.06,80.51,41.73,82.55,106.44,117.66,86.16,50.34-29.06,135.72-84.29,161-41.21" transform="translate(0 0)"/><path class="cls-140" d="M7.13,30.35C25-1.21,89.75,59.86,128.31,56.4c14.95-1.34,59-67.73,87.68-53C296.44,44.93,298.44,110,333.59,89.63c50.5-29.22,136-84.38,161.13-41.35" transform="translate(0 0)"/><path class="cls-141" d="M7.05,30.38C24.86-1.13,89.87,59.8,128.42,56.27c15-1.37,58.74-67.52,87.33-52.85C296.14,44.67,298.09,110,333.29,89.63,384,60.26,469.49,5.16,494.56,48.15" transform="translate(0 0)"/><path class="cls-141" d="M7,30.4C24.77-1,90,59.74,128.52,56.15c15-1.4,58.45-67.32,87-52.75,80.34,41,82.24,106.69,117.47,86.23C383.82,60.11,469.43,5.07,494.41,48" transform="translate(0 0)"/><path class="cls-142" d="M6.89,30.43C24.69-1,90.11,59.68,128.63,56c15-1.43,58.15-67.11,86.64-52.64,80.28,40.77,82.13,106.77,117.41,86.25C383.69,60,469.37,5,494.26,47.9" transform="translate(0 0)"/><path class="cls-142" d="M6.81,30.45C24.6-.88,90.23,59.63,128.73,55.89c15-1.45,57.86-66.89,86.3-52.52,80.22,40.52,82,106.84,117.34,86.26C383.55,59.81,469.31,4.9,494.11,47.77" transform="translate(0 0)"/><path class="cls-143" d="M6.73,30.48C24.51-.8,90.35,59.57,128.83,55.77c15-1.49,57.57-66.69,86-52.42C295,43.63,296.71,110.28,332.07,89.63c51.34-30,137.18-84.82,161.89-42" transform="translate(0 0)"/><path class="cls-144" d="M6.64,30.51c17.78-31.22,83.83,29,122.3,25.13C144,54.13,186.21-10.84,214.55,3.33c80.11,40,81.81,107,117.21,86.3C383.28,59.5,469.19,4.72,493.81,47.52" transform="translate(0 0)"/><path class="cls-145" d="M6.56,30.53c17.77-31.16,84,28.92,122.48,25C144.12,54,186-10.76,214.31,3.31c80.05,39.8,81.71,107.1,117.15,86.33,51.68-30.29,137.67-85,162.2-42.25" transform="translate(0 0)"/><path class="cls-145" d="M6.48,30.56C24.24-.55,90.71,59.39,129.15,55.39c15.09-1.57,56.68-66.07,84.92-52.1,80,39.56,81.6,107.18,117.09,86.35C383,59.2,469.07,4.55,493.51,47.26" transform="translate(0 0)"/><path class="cls-146" d="M6.4,30.58c17.75-31,84.43,28.75,122.85,24.68,15.11-1.6,56.39-65.85,84.58-52,79.94,39.32,81.5,107.26,117,86.37,52-30.59,138.16-85.18,162.51-42.5" transform="translate(0 0)"/><path class="cls-146" d="M6.32,30.61c17.74-31,84.63,28.66,123,24.53,15.13-1.63,56.1-65.65,84.24-51.89,79.88,39.08,81.39,107.35,117,86.39C382.73,58.9,469,4.37,493.21,47" transform="translate(0 0)"/><path class="cls-147" d="M6.24,30.63C24-.3,91.07,59.22,129.46,55c15.14-1.66,55.8-65.44,83.89-51.78,79.83,38.84,81.28,107.43,116.89,86.41C382.59,58.75,468.89,4.29,493.05,46.88" transform="translate(0 0)"/><path class="cls-148" d="M6.16,30.66c17.72-30.87,85,28.5,123.4,24.22,15.17-1.68,55.51-65.23,83.55-51.66,79.77,38.59,81.18,107.5,116.83,86.42,52.52-31,138.89-85.44,163-42.88" transform="translate(0 0)"/><path class="cls-149" d="M6.07,30.69C23.79-.13,91.31,59.1,129.67,54.76c15.18-1.72,55.21-65,83.2-51.56,79.72,38.35,81.07,107.59,116.77,86.45,52.68-31.21,139.13-85.54,163.11-43" transform="translate(0 0)"/><path class="cls-149" d="M6,30.71C23.7,0,91.43,59,129.77,54.63c15.2-1.74,54.92-64.82,82.86-51.45,79.66,38.11,81,107.67,116.7,86.47C382.18,58.29,468.71,4,492.6,46.5" transform="translate(0 0)"/><path class="cls-150" d="M5.91,30.74C23.61,0,91.55,59,129.87,54.51c15.22-1.78,54.63-64.61,82.51-51.35C292,41,293.25,110.91,329,89.65,382,58.14,468.65,3.94,492.45,46.37" transform="translate(0 0)"/><path class="cls-150" d="M5.83,30.76C23.52.12,91.67,58.92,130,54.38c15.23-1.8,54.33-64.4,82.16-51.24C291.7,40.76,292.91,111,328.72,89.65,381.91,58,468.59,3.85,492.3,46.25" transform="translate(0 0)"/><path class="cls-151" d="M5.75,30.79C23.43.2,91.79,58.86,130.08,54.25c15.25-1.83,54-64.19,81.82-51.13C291.4,40.5,292.56,111,328.42,89.65,381.77,57.83,468.53,3.76,492.15,46.12" transform="translate(0 0)"/><path class="cls-152" d="M5.67,30.81C23.34.29,91.9,58.8,130.19,54.13c15.27-1.86,53.74-64,81.47-51,79.45,37.14,80.55,108,116.46,86.55C381.63,57.68,468.47,3.67,492,46" transform="translate(0 0)"/><path class="cls-153" d="M5.59,30.84C23.25.37,92,58.74,130.29,54c15.29-1.89,53.45-63.78,81.13-50.92C290.81,40,291.87,111.17,327.81,89.65c53.68-32.12,140.6-86.06,164-43.78" transform="translate(0 0)"/><path class="cls-153" d="M5.5,30.87C23.16.45,92.14,58.68,130.39,53.88,145.7,52,183.55-9.7,211.18,3.07c79.34,36.64,80.34,108.16,116.33,86.59C381.36,57.37,468.35,3.5,491.7,45.74" transform="translate(0 0)"/><path class="cls-154" d="M5.42,30.89C23.07.54,92.26,58.62,130.5,53.75c15.32-2,52.86-63.37,80.44-50.7,79.28,36.4,80.23,108.24,116.26,86.61,54-32.44,141.09-86.25,164.35-44" transform="translate(0 0)"/><path class="cls-154" d="M5.34,30.92C23,.62,92.38,58.56,130.6,53.62c15.34-2,52.57-63.16,80.1-50.59,79.23,36.16,80.13,108.33,116.2,86.63C381.08,57.07,468.23,3.32,491.39,45.48" transform="translate(0 0)"/><path class="cls-155" d="M5.26,30.94C22.89.7,92.5,58.5,130.71,53.5c15.35-2,52.28-63,79.75-50.49,79.17,35.91,80,108.41,116.14,86.65,54.34-32.75,141.57-86.42,164.64-44.3" transform="translate(0 0)"/><path class="cls-156" d="M5.18,31C22.8.79,92.62,58.44,130.81,53.37c15.37-2,52-62.74,79.41-50.38,79.11,35.67,79.92,108.49,116.07,86.67,54.51-32.9,141.82-86.51,164.8-44.43" transform="translate(0 0)"/><path class="cls-157" d="M5.1,31C22.71.87,92.74,58.38,130.91,53.25,146.31,51.18,182.61-9.29,210,3,289,38.4,289.79,111.55,326,89.66c54.68-33,142.06-86.6,165-44.56" transform="translate(0 0)"/><path class="cls-157" d="M5,31C22.62,1,92.86,58.32,131,53.12,146.43,51,182.42-9.21,209.74,3c79,35.18,79.7,108.66,115.94,86.71C380.53,56.45,468,3,490.79,45" transform="translate(0 0)"/><path class="cls-158" d="M4.93,31.05C22.53,1,93,58.26,131.12,53c15.43-2.13,51.11-62.12,78.38-50.06,78.95,34.94,79.6,108.74,115.88,86.74,55-33.37,142.55-86.78,165.26-44.82" transform="translate(0 0)"/><path class="cls-158" d="M4.85,31.07C22.44,1.12,93.1,58.2,131.23,52.87,146.67,50.71,182-9,209.26,2.92c78.89,34.68,79.49,108.82,115.82,86.75C380.25,56.15,467.87,2.8,490.49,44.72" transform="translate(0 0)"/><path class="cls-159" d="M4.77,31.1c17.58-29.9,88.44,27,126.56,21.64C146.79,50.55,181.85-9,209,2.9c78.84,34.44,79.38,108.9,115.75,86.77,55.34-33.68,143-87,165.57-45.08" transform="translate(0 0)"/><path class="cls-160" d="M4.69,31.12c17.57-29.83,88.64,27,126.74,21.5,15.48-2.22,50.23-61.51,77.35-49.74,78.78,34.19,79.28,109,115.69,86.79,55.5-33.83,143.28-87,165.72-45.2" transform="translate(0 0)"/><path class="cls-161" d="M4.61,31.15C22.17,1.37,93.45,58,131.54,52.49c15.49-2.25,49.93-61.3,77-49.63,78.73,34,79.17,109.07,115.62,86.81C379.84,55.69,467.68,2.54,490,44.34" transform="translate(0 0)"/><path class="cls-161" d="M4.53,31.18C22.08,1.45,93.57,58,131.64,52.36c15.52-2.28,49.64-61.09,76.66-49.52C287,36.54,287.36,112,323.86,89.67c55.84-34.14,143.76-87.22,166-45.46" transform="translate(0 0)"/><path class="cls-162" d="M4.45,31.2C22,1.54,93.69,57.9,131.75,52.24c15.53-2.31,49.34-60.89,76.31-49.42,78.62,33.46,79,109.23,115.5,86.86,56-34.3,144-87.32,166.17-45.59" transform="translate(0 0)"/><path class="cls-163" d="M4.36,31.23C21.9,1.62,93.81,57.84,131.85,52.11c15.55-2.34,49.05-60.68,76-49.31C286.39,36,286.67,112.12,323.25,89.68,379.42,55.22,467.5,2.28,489.58,44" transform="translate(0 0)"/><path class="cls-164" d="M4.28,31.25C21.81,1.7,93.93,57.77,132,52c15.57-2.37,48.77-60.48,75.63-49.21,78.51,33,78.74,109.4,115.37,86.9C379.28,55.07,467.44,2.19,489.43,43.83" transform="translate(0 0)"/><path class="cls-164" d="M4.2,31.28C21.72,1.79,94.05,57.71,132.06,51.86c15.58-2.4,48.47-60.27,75.28-49.09C285.8,35.48,286,112.24,322.64,89.68c56.5-34.77,144.74-87.58,166.64-46" transform="translate(0 0)"/><path class="cls-165" d="M4.12,31.31c17.51-29.44,90,26.34,128,20.42,15.6-2.43,48.18-60.06,74.94-49,78.4,32.46,78.53,109.56,115.24,86.93C379,54.76,467.32,2,489.13,43.58" transform="translate(0 0)"/><path class="cls-165" d="M4,31.33C21.54,2,94.28,57.59,132.27,51.61c15.61-2.46,47.88-59.86,74.59-48.88,78.35,32.21,78.42,109.64,115.18,87C378.86,54.61,467.26,1.93,489,43.45" transform="translate(0 0)"/><path class="cls-166" d="M4,31.36C21.45,2,94.4,57.53,132.37,51.48,148,49,180-8.17,206.62,2.71c78.29,32,78.32,109.72,115.11,87,57-35.23,145.47-87.84,167.1-46.36" transform="translate(0 0)"/><path class="cls-167" d="M3.88,31.38c17.48-29.26,90.64,26.09,128.59,20,15.66-2.53,47.3-59.45,73.91-48.67,78.24,31.72,78.21,109.8,115.05,87C378.58,54.3,467.14,1.75,488.68,43.2" transform="translate(0 0)"/><path class="cls-168" d="M3.79,31.41c17.48-29.21,90.85,26,128.79,19.82,15.67-2.55,47-59.24,73.56-48.56,78.18,31.47,78.1,109.89,115,87,57.32-35.55,146-88,167.41-46.62" transform="translate(0 0)"/><path class="cls-168" d="M3.71,31.43c17.47-29.14,91.05,25.92,129,19.67,15.69-2.58,46.71-59,73.21-48.45,78.14,31.22,78,110,114.93,87C378.31,54,467,1.58,488.37,42.94" transform="translate(0 0)"/><path class="cls-169" d="M3.63,31.46C21.09,2.37,94.87,57.28,132.79,51c15.7-2.61,46.41-58.84,72.86-48.35,78.09,31,77.9,110.05,114.86,87.06C378.17,53.83,467,1.49,488.22,42.81" transform="translate(0 0)"/><path class="cls-170" d="M3.55,31.49C21,2.45,95,57.22,132.89,50.85,148.61,48.21,179-7.78,205.41,2.62c78,30.71,77.79,110.13,114.8,87.07,57.82-36,146.69-88.29,167.86-47" transform="translate(0 0)"/><path class="cls-171" d="M3.47,31.51C20.91,2.54,95.11,57.16,133,50.73,148.73,48.05,178.82-7.7,205.17,2.6c78,30.46,77.68,110.21,114.74,87.09,58-36.17,146.93-88.38,168-47.13" transform="translate(0 0)"/><path class="cls-171" d="M3.39,31.54C20.82,2.62,95.23,57.1,133.1,50.6c15.75-2.7,45.54-58.22,71.83-48C282.85,32.79,282.51,112.87,319.6,89.7,377.75,53.37,466.78,1.23,487.77,42.43" transform="translate(0 0)"/><path class="cls-172" d="M3.31,31.56C20.73,2.7,95.35,57,133.2,50.47c15.77-2.73,45.25-58,71.49-47.91,77.87,30,77.47,110.38,114.61,87.14C377.61,53.21,466.72,1.14,487.62,42.31" transform="translate(0 0)"/><path class="cls-172" d="M3.22,31.59C20.64,2.79,95.46,57,133.31,50.35c15.78-2.77,44.95-57.81,71.14-47.81C282.27,32.25,281.81,113,319,89.7,377.47,53.05,466.66,1.05,487.47,42.18" transform="translate(0 0)"/><path class="cls-173" d="M3.14,31.62C20.55,2.87,95.58,56.91,133.41,50.22c15.8-2.79,44.66-57.6,70.8-47.7C282,32,281.47,113.06,318.69,89.7,377.33,52.9,466.6,1,487.32,42.05" transform="translate(0 0)"/><path class="cls-174" d="M3.06,31.64C20.46,3,95.7,56.85,133.51,50.09,149.34,47.27,177.88-7.3,204,2.5c77.71,29.21,77.15,110.62,114.42,87.2,58.8-37,148.15-88.82,168.78-47.78" transform="translate(0 0)"/><path class="cls-175" d="M3,31.67C20.37,3,95.82,56.79,133.62,50c15.84-2.86,44.07-57.2,70.11-47.49,77.65,29,77,110.71,114.35,87.22C377.05,52.59,466.48.79,487,41.8" transform="translate(0 0)"/><path class="cls-175" d="M2.9,31.69c17.38-28.57,93,25,130.82,18.15,15.86-2.89,43.78-57,69.77-47.37,77.6,28.7,76.93,110.78,114.29,87.23,59.13-37.27,148.64-89,169.09-48" transform="translate(0 0)"/><path class="cls-176" d="M2.82,31.72c17.37-28.52,93.23,24.94,131,18C149.7,46.8,177.31-7.07,203.25,2.45,280.8,30.9,280.08,113.31,317.47,89.71,376.77,52.28,466.36.62,486.71,41.54" transform="translate(0 0)"/><path class="cls-177" d="M2.73,31.74C20.1,3.29,96.17,56.6,133.93,49.59,149.82,46.64,177.12-7,203,2.43c77.49,28.2,76.72,111,114.16,87.28C376.62,52.12,466.3.53,486.56,41.42" transform="translate(0 0)"/><path class="cls-178" d="M2.65,31.77C20,3.37,96.29,56.54,134,49.46c15.91-3,42.91-56.37,68.74-47,77.44,27.94,76.61,111,114.1,87.3C376.48,52,466.24.44,486.41,41.29" transform="translate(0 0)"/><path class="cls-178" d="M2.57,31.8C19.93,3.45,96.4,56.48,134.14,49.34c15.92-3,42.61-56.17,68.39-46.95,77.38,27.69,76.51,111.11,114,87.32C376.34,51.81,466.18.35,486.26,41.16" transform="translate(0 0)"/><path class="cls-179" d="M2.49,31.82c17.35-28.28,94,24.59,131.75,17.39,15.94-3,42.32-56,68-46.84,77.33,27.44,76.4,111.2,114,87.34C376.2,51.65,466.12.27,486.11,41" transform="translate(0 0)"/><path class="cls-179" d="M2.41,31.85C19.75,3.62,96.64,56.35,134.35,49.09c16-3.08,42-55.77,67.7-46.74C279.33,29.53,278.34,113.63,316,89.71,376.06,51.5,466.06.18,486,40.91" transform="translate(0 0)"/><path class="cls-180" d="M2.33,31.87C19.66,3.7,96.76,56.29,134.45,49c16-3.11,41.73-55.56,67.36-46.63C279,29.26,278,113.69,315.65,89.71,375.92,51.34,466,.09,485.81,40.78" transform="translate(0 0)"/><path class="cls-180" d="M2.25,31.9C19.57,3.79,96.87,56.23,134.55,48.83c16-3.13,41.44-55.35,67-46.51C278.74,29,277.65,113.75,315.35,89.72,375.78,51.18,465.94,0,485.66,40.65" transform="translate(0 0)"/><path class="cls-181" d="M2.16,31.93C19.48,3.87,97,56.16,134.66,48.71c16-3.17,41.14-55.16,66.67-46.41,77.12,26.41,76,111.52,113.71,87.42C375.64,51,465.88-.08,485.51,40.53" transform="translate(0 0)"/><path class="cls-181" d="M2.08,32c17.31-28,95,24.15,132.68,16.63,16-3.2,40.85-54.95,66.33-46.3C278.15,28.44,277,113.88,314.74,89.72,375.5,50.87,465.82-.17,485.36,40.4" transform="translate(0 0)"/><path class="cls-182" d="M2,32C19.3,4,97.22,56,134.87,48.46c16-3.23,40.55-54.75,66-46.2,77,25.9,75.75,111.68,113.58,87.46,60.93-39,151.33-90,170.77-49.45" transform="translate(0 0)"/><path class="cls-183" d="M1.92,32C19.21,4.12,97.34,56,135,48.33,151,45.07,175.23-6.21,200.61,2.24,277.56,27.89,276.26,114,314.13,89.72,375.22,50.56,465.7-.35,485.05,40.14" transform="translate(0 0)"/><path class="cls-183" d="M1.84,32C19.12,4.2,97.46,55.91,135.07,48.2c16.08-3.29,40-54.34,65.3-46,76.9,25.39,75.54,111.85,113.46,87.5C375.07,50.4,465.64-.43,484.9,40" transform="translate(0 0)"/><path class="cls-184" d="M1.76,32.05C19,4.29,97.57,55.85,135.18,48.08c16.09-3.33,39.68-54.14,64.95-45.88C277,27.34,275.56,114.13,313.52,89.73,374.93,50.24,465.58-.52,484.75,39.89" transform="translate(0 0)"/><path class="cls-185" d="M1.68,32.08C18.94,4.37,97.69,55.79,135.28,48,151.39,44.6,174.67-6,199.89,2.18c76.79,24.88,75.32,112,113.33,87.55,61.57-39.64,152.3-90.34,171.38-50" transform="translate(0 0)"/><path class="cls-186" d="M1.59,32.11C18.85,4.45,97.81,55.72,135.39,47.83c16.12-3.39,39.09-53.74,64.26-45.66,76.74,24.61,75.21,112.09,113.26,87.56C374.65,49.93,465.46-.7,484.45,39.64" transform="translate(0 0)"/><path class="cls-186" d="M1.51,32.13c17.25-27.59,96.41,23.53,134,15.57,16.14-3.42,38.8-53.53,63.91-45.55,76.7,24.36,75.12,112.17,113.21,87.58,61.9-40,152.79-90.51,171.69-50.22" transform="translate(0 0)"/><path class="cls-187" d="M1.43,32.16C18.67,4.62,98,55.6,135.59,47.57c16.16-3.45,38.51-53.32,63.57-45.44,76.64,24.1,75,112.25,113.15,87.6,62.06-40.11,153-90.6,171.84-50.35" transform="translate(0 0)"/><path class="cls-188" d="M1.35,32.18C18.58,4.7,98.16,55.53,135.7,47.45,151.87,44,173.91-5.68,198.92,2.11,275.51,26,273.82,114.45,312,89.73,374.23,49.46,465.28-1,484,39.25" transform="translate(0 0)"/><path class="cls-189" d="M1.27,32.21c17.22-27.42,97,23.26,134.53,15.11C152,43.81,173.72-5.6,198.68,2.09c76.53,23.58,74.79,112.42,113,87.64C374.08,49.3,465.22-1,483.85,39.13" transform="translate(0 0)"/><path class="cls-189" d="M1.19,32.24c17.21-27.37,97.2,23.17,134.72,15,16.2-3.55,37.62-52.72,62.53-45.13,76.48,23.32,74.68,112.5,113,87.67C373.94,49.14,465.16-1.13,483.7,39" transform="translate(0 0)"/><path class="cls-190" d="M1.11,32.26C18.31,5,98.51,55.34,136,47.07c16.22-3.58,37.33-52.52,62.19-45,76.43,23.06,74.58,112.58,112.89,87.69,62.71-40.75,154-91,172.45-50.87" transform="translate(0 0)"/><path class="cls-190" d="M1,32.29c17.2-27.25,97.6,23,135.09,14.65C152.35,43.33,173.15-5.37,198,2c76.37,22.8,74.47,112.67,112.83,87.71,62.87-40.91,154.25-91,172.6-51" transform="translate(0 0)"/><path class="cls-191" d="M.94,32.31c17.19-27.19,97.8,22.9,135.28,14.51C152.47,43.18,173-5.3,197.72,2,274,24.56,272.08,114.76,310.48,89.74c63-41.07,154.5-91.13,172.76-51.12" transform="translate(0 0)"/><path class="cls-192" d="M.86,32.34C18,5.2,98.86,55.15,136.32,46.69,152.59,43,172.78-5.22,197.48,2c76.27,22.28,74.25,112.82,112.7,87.74C373.37,48.51,464.92-1.48,483.09,38.49" transform="translate(0 0)"/><path class="cls-193" d="M.78,32.36C18,5.29,99,55.09,136.43,46.57,152.71,42.86,172.59-5.14,197.24,2c76.21,22,74.15,112.9,112.63,87.76,63.36-41.38,155-91.31,173.07-51.37" transform="translate(0 0)"/><path class="cls-194" d="M.7,32.39c17.16-27,98.39,22.63,135.83,14C152.83,42.7,172.4-5.07,197,2c76.16,21.75,74,112.92,112.57,87.79C373,48.09,464.8-1.66,482.79,38.24" transform="translate(0 0)"/><path class="cls-194" d="M.62,32.42c17.15-27,98.57,22.47,136,13.89C153,42.51,172.22-5,196.76,1.94c76.14,21.36,73.89,113,112.5,87.81C372.89,48,464.74-1.74,482.64,38.11" transform="translate(0 0)"/><path class="cls-195" d="M.54,32.44c17.14-26.9,98.77,22.4,136.2,13.75C153.07,42.36,172-4.95,196.52,1.92,272.6,23,270.31,115,309,89.75,372.76,47.81,464.68-1.83,482.49,38" transform="translate(0 0)"/><path class="cls-195" d="M.45,32.47c17.14-26.85,99,22.32,136.39,13.59,16.35-3.85,35-50.93,59.44-44.16,76,20.89,73.69,113.2,112.38,87.85,64-42.08,156-91.67,173.68-51.89" transform="translate(0 0)"/><path class="cls-196" d="M.37,32.49C17.5,5.7,99.54,54.74,137,45.94,153.31,42.06,171.65-4.78,196,1.88c76,20.65,73.59,113.3,112.31,87.87C372.5,47.53,464.55-2,482.19,37.73" transform="translate(0 0)"/><path class="cls-196" d="M.29,32.52C17.41,5.78,99.66,54.69,137.05,45.81c16.38-3.9,34.4-50.51,58.75-43.94,75.89,20.41,73.49,113.38,112.25,87.88C372.36,47.39,464.49-2.09,482,37.6" transform="translate(0 0)"/><path class="cls-197" d="M.21,32.55C17.32,5.87,99.78,54.64,137.15,45.68c16.4-3.93,34.11-50.3,58.41-43.83C271.39,22,269,115.32,307.74,89.75c64.49-42.5,156.69-91.93,174.14-52.27" transform="translate(0 0)"/></g></g></svg>