<svg xmlns="http://www.w3.org/2000/svg" viewBox="0 0 502 91.91"><defs><style>.cls-1{fill:#eef4f1;}.cls-10,.cls-100,.cls-101,.cls-102,.cls-103,.cls-104,.cls-105,.cls-106,.cls-107,.cls-108,.cls-109,.cls-11,.cls-110,.cls-111,.cls-112,.cls-113,.cls-114,.cls-115,.cls-116,.cls-117,.cls-118,.cls-119,.cls-12,.cls-120,.cls-121,.cls-122,.cls-123,.cls-124,.cls-125,.cls-126,.cls-127,.cls-128,.cls-129,.cls-13,.cls-130,.cls-131,.cls-132,.cls-133,.cls-134,.cls-135,.cls-136,.cls-137,.cls-138,.cls-139,.cls-14,.cls-140,.cls-141,.cls-142,.cls-143,.cls-144,.cls-145,.cls-146,.cls-147,.cls-148,.cls-149,.cls-15,.cls-150,.cls-151,.cls-152,.cls-153,.cls-154,.cls-155,.cls-156,.cls-157,.cls-158,.cls-159,.cls-16,.cls-160,.cls-161,.cls-162,.cls-163,.cls-164,.cls-165,.cls-166,.cls-167,.cls-168,.cls-169,.cls-17,.cls-170,.cls-171,.cls-172,.cls-173,.cls-174,.cls-175,.cls-176,.cls-177,.cls-178,.cls-179,.cls-18,.cls-180,.cls-181,.cls-182,.cls-183,.cls-184,.cls-185,.cls-186,.cls-187,.cls-188,.cls-189,.cls-19,.cls-190,.cls-191,.cls-192,.cls-193,.cls-194,.cls-195,.cls-196,.cls-197,.cls-198,.cls-2,.cls-20,.cls-21,.cls-22,.cls-23,.cls-24,.cls-25,.cls-26,.cls-27,.cls-28,.cls-29,.cls-3,.cls-30,.cls-31,.cls-32,.cls-33,.cls-34,.cls-35,.cls-36,.cls-37,.cls-38,.cls-39,.cls-4,.cls-40,.cls-41,.cls-42,.cls-43,.cls-44,.cls-45,.cls-46,.cls-47,.cls-48,.cls-49,.cls-5,.cls-50,.cls-51,.cls-52,.cls-53,.cls-54,.cls-55,.cls-56,.cls-57,.cls-58,.cls-59,.cls-6,.cls-60,.cls-61,.cls-62,.cls-63,.cls-64,.cls-65,.cls-66,.cls-67,.cls-68,.cls-69,.cls-7,.cls-70,.cls-71,.cls-72,.cls-73,.cls-74,.cls-75,.cls-76,.cls-77,.cls-78,.cls-79,.cls-8,.cls-80,.cls-81,.cls-82,.cls-83,.cls-84,.cls-85,.cls-86,.cls-87,.cls-88,.cls-89,.cls-9,.cls-90,.cls-91,.cls-92,.cls-93,.cls-94,.cls-95,.cls-96,.cls-97,.cls-98,.cls-99{fill:none;stroke-width:0.5px;}.cls-2{stroke:#c21718;}.cls-10,.cls-100,.cls-101,.cls-102,.cls-103,.cls-104,.cls-105,.cls-106,.cls-107,.cls-108,.cls-109,.cls-11,.cls-110,.cls-111,.cls-112,.cls-113,.cls-114,.cls-115,.cls-116,.cls-117,.cls-118,.cls-119,.cls-12,.cls-120,.cls-121,.cls-122,.cls-123,.cls-124,.cls-125,.cls-126,.cls-127,.cls-128,.cls-129,.cls-130,.cls-131,.cls-132,.cls-133,.cls-134,.cls-135,.cls-136,.cls-137,.cls-138,.cls-139,.cls-14,.cls-140,.cls-141,.cls-142,.cls-143,.cls-144,.cls-145,.cls-146,.cls-147,.cls-148,.cls-149,.cls-15,.cls-150,.cls-151,.cls-152,.cls-153,.cls-154,.cls-155,.cls-156,.cls-157,.cls-158,.cls-159,.cls-16,.cls-160,.cls-161,.cls-162,.cls-163,.cls-164,.cls-165,.cls-166,.cls-167,.cls-168,.cls-169,.cls-170,.cls-171,.cls-172,.cls-173,.cls-174,.cls-175,.cls-176,.cls-177,.cls-178,.cls-179,.cls-18,.cls-180,.cls-181,.cls-182,.cls-183,.cls-184,.cls-185,.cls-186,.cls-187,.cls-188,.cls-189,.cls-19,.cls-190,.cls-191,.cls-192,.cls-193,.cls-194,.cls-195,.cls-196,.cls-197,.cls-198,.cls-2,.cls-20,.cls-21,.cls-23,.cls-24,.cls-25,.cls-26,.cls-27,.cls-28,.cls-3,.cls-30,.cls-32,.cls-33,.cls-34,.cls-35,.cls-36,.cls-37,.cls-38,.cls-39,.cls-4,.cls-40,.cls-41,.cls-42,.cls-43,.cls-44,.cls-45,.cls-46,.cls-47,.cls-48,.cls-49,.cls-5,.cls-50,.cls-51,.cls-52,.cls-53,.cls-54,.cls-55,.cls-56,.cls-57,.cls-58,.cls-59,.cls-6,.cls-60,.cls-61,.cls-62,.cls-63,.cls-64,.cls-65,.cls-66,.cls-67,.cls-68,.cls-69,.cls-7,.cls-70,.cls-71,.cls-72,.cls-73,.cls-74,.cls-75,.cls-76,.cls-77,.cls-78,.cls-79,.cls-8,.cls-80,.cls-81,.cls-82,.cls-83,.cls-84,.cls-85,.cls-86,.cls-87,.cls-88,.cls-89,.cls-9,.cls-90,.cls-91,.cls-92,.cls-93,.cls-94,.cls-95,.cls-96,.cls-97,.cls-98,.cls-99{stroke-miterlimit:10;}.cls-3{stroke:#c11819;}.cls-4{stroke:#c1181a;}.cls-5{stroke:#c0181a;}.cls-6{stroke:#c0181b;}.cls-7{stroke:#bf181c;}.cls-8{stroke:#bf191c;}.cls-9{stroke:#bf191d;}.cls-10{stroke:#be191d;}.cls-11{stroke:#be191e;}.cls-12{stroke:#bd191f;}.cls-13{stroke:#bd1920;}.cls-13,.cls-22,.cls-31{stroke-miterlimit:10;}.cls-14{stroke:#bc1a20;}.cls-15{stroke:#bc1a21;}.cls-16{stroke:#bb1a21;}.cls-17{stroke:#bb1a22;}.cls-17,.cls-29{stroke-miterlimit:10;}.cls-18{stroke:#ba1a22;}.cls-19{stroke:#ba1a23;}.cls-20{stroke:#ba1b23;}.cls-21{stroke:#b91b24;}.cls-22,.cls-23{stroke:#b81b25;}.cls-24{stroke:#b81b26;}.cls-25{stroke:#b71b26;}.cls-26{stroke:#b71c27;}.cls-27{stroke:#b61c27;}.cls-28{stroke:#b61c28;}.cls-29,.cls-30{stroke:#b51c29;}.cls-31{stroke:#b51c2a;}.cls-32{stroke:#b41d2a;}.cls-33{stroke:#b41d2b;}.cls-34{stroke:#b31d2b;}.cls-35{stroke:#b31d2c;}.cls-36{stroke:#b21d2c;}.cls-37{stroke:#b21d2d;}.cls-38{stroke:#b11d2e;}.cls-39{stroke:#b01e2e;}.cls-40{stroke:#b01e2f;}.cls-41{stroke:#af1e30;}.cls-42{stroke:#af1e31;}.cls-43{stroke:#ae1e31;}.cls-44{stroke:#ad1e32;}.cls-45{stroke:#ad1f33;}.cls-46{stroke:#ac1f33;}.cls-47{stroke:#ac1f34;}.cls-48{stroke:#ab1f34;}.cls-49{stroke:#ab1f35;}.cls-50{stroke:#aa1f35;}.cls-51{stroke:#aa1f36;}.cls-52{stroke:#a91f37;}.cls-53{stroke:#a92037;}.cls-54{stroke:#a82038;}.cls-55{stroke:#a72039;}.cls-56{stroke:#a6203a;}.cls-57{stroke:#a6203b;}.cls-58{stroke:#a5203b;}.cls-59{stroke:#a4213c;}.cls-60{stroke:#a4213d;}.cls-61{stroke:#a3213d;}.cls-62{stroke:#a3213e;}.cls-63{stroke:#a2213e;}.cls-64{stroke:#a2213f;}.cls-65{stroke:#a1213f;}.cls-66{stroke:#a12140;}.cls-67{stroke:#a02140;}.cls-68{stroke:#a02141;}.cls-69{stroke:#9f2141;}.cls-70{stroke:#9f2142;}.cls-71{stroke:#9e2142;}.cls-72{stroke:#9e2242;}.cls-73{stroke:#9e2243;}.cls-74{stroke:#9d2243;}.cls-75{stroke:#9d2244;}.cls-76{stroke:#9c2244;}.cls-77{stroke:#9c2245;}.cls-78{stroke:#9b2245;}.cls-79{stroke:#9b2246;}.cls-80{stroke:#9a2246;}.cls-81{stroke:#992247;}.cls-82{stroke:#992347;}.cls-83{stroke:#992348;}.cls-84{stroke:#982348;}.cls-85{stroke:#972349;}.cls-86{stroke:#97234a;}.cls-87{stroke:#96234a;}.cls-88{stroke:#95234b;}.cls-89{stroke:#95234c;}.cls-90{stroke:#94234c;}.cls-91{stroke:#93234d;}.cls-92{stroke:#93244d;}.cls-93{stroke:#92244d;}.cls-94{stroke:#92244e;}.cls-95{stroke:#91244f;}.cls-96{stroke:#90244f;}.cls-97{stroke:#902450;}.cls-98{stroke:#8f2450;}.cls-99{stroke:#8f2451;}.cls-100{stroke:#8e2451;}.cls-101{stroke:#8e2452;}.cls-102{stroke:#8d2452;}.cls-103{stroke:#8c2453;}.cls-104{stroke:#8b2453;}.cls-105{stroke:#8b2554;}.cls-106{stroke:#8a2555;}.cls-107{stroke:#892555;}.cls-108{stroke:#892556;}.cls-109{stroke:#882556;}.cls-110{stroke:#872557;}.cls-111{stroke:#862557;}.cls-112{stroke:#862558;}.cls-113{stroke:#852558;}.cls-114{stroke:#852559;}.cls-115{stroke:#842559;}.cls-116{stroke:#83255a;}.cls-117{stroke:#82255a;}.cls-118{stroke:#82255b;}.cls-119{stroke:#81265b;}.cls-120{stroke:#80265c;}.cls-121{stroke:#80265d;}.cls-122{stroke:#7f265d;}.cls-123{stroke:#7e265e;}.cls-124{stroke:#7d265e;}.cls-125{stroke:#7d265f;}.cls-126{stroke:#7c265f;}.cls-127{stroke:#7b2660;}.cls-128{stroke:#7a2661;}.cls-129{stroke:#792661;}.cls-130{stroke:#792662;}.cls-131{stroke:#782662;}.cls-132{stroke:#772763;}.cls-133{stroke:#762763;}.cls-134{stroke:#762764;}.cls-135{stroke:#752764;}.cls-136{stroke:#752765;}.cls-137{stroke:#742765;}.cls-138{stroke:#732766;}.cls-139{stroke:#722767;}.cls-140{stroke:#712767;}.cls-141{stroke:#712768;}.cls-142{stroke:#702768;}.cls-143{stroke:#6f2769;}.cls-144{stroke:#6e2769;}.cls-145{stroke:#6e276a;}.cls-146{stroke:#6d276a;}.cls-147{stroke:#6c276b;}.cls-148{stroke:#6b276b;}.cls-149{stroke:#6b276c;}.cls-150{stroke:#6a276c;}.cls-151{stroke:#69276d;}.cls-152{stroke:#68276d;}.cls-153{stroke:#68276e;}.cls-154{stroke:#67276e;}.cls-155{stroke:#66276f;}.cls-156{stroke:#65276f;}.cls-157{stroke:#652770;}.cls-158{stroke:#642770;}.cls-159{stroke:#632771;}.cls-160{stroke:#622771;}.cls-161{stroke:#622772;}.cls-162{stroke:#612772;}.cls-163{stroke:#602772;}.cls-164{stroke:#602773;}.cls-165{stroke:#5f2773;}.cls-166{stroke:#5e2774;}.cls-167{stroke:#5d2774;}.cls-168{stroke:#5d2775;}.cls-169{stroke:#5c2775;}.cls-170{stroke:#5b2775;}.cls-171{stroke:#5b2776;}.cls-172{stroke:#5a2776;}.cls-173{stroke:#592777;}.cls-174{stroke:#582777;}.cls-175{stroke:#582778;}.cls-176{stroke:#572778;}.cls-177{stroke:#562778;}.cls-178{stroke:#562779;}.cls-179{stroke:#552779;}.cls-180{stroke:#54277a;}.cls-181{stroke:#53277a;}.cls-182{stroke:#52277b;}.cls-183{stroke:#51277b;}.cls-184{stroke:#50277c;}.cls-185{stroke:#4f267c;}.cls-186{stroke:#4f267d;}.cls-187{stroke:#4e267d;}.cls-188{stroke:#4d267d;}.cls-189{stroke:#4d267e;}.cls-190{stroke:#4c267e;}.cls-191{stroke:#4b267f;}.cls-192{stroke:#4a267f;}.cls-193{stroke:#49267f;}.cls-194{stroke:#492680;}.cls-195{stroke:#482680;}.cls-196{stroke:#472681;}.cls-197{stroke:#462681;}.cls-198{stroke:#452682;}</style></defs><g id="Layer_2" data-name="Layer 2"><g id="Capa_1" data-name="Capa 1"><polygon class="cls-1" points="501.86 91.7 470.42 74.02 294.79 82.58 214.79 62.12 125.12 88.16 24.28 78.11 7.91 81.84 0.19 88.93 0.27 0 501.86 0 501.86 91.7"/><path class="cls-2" d="M.19,88.93c19.46-22.74,88.37,1.38,131.72,1.38,23.81,0,91.68-40.39,133.86-24.39C330.24,90.36,347,93,372.1,87.7c14.81-3.15,86.81-23,129.76,4"/><path class="cls-3" d="M.2,88.91C19.65,66.2,88.59,90.3,131.92,90.28c23.79,0,91.48-40.34,133.6-24.39,64.5,24.4,81.06,27.16,106.23,21.8,15-3.21,87.18-23,130,4"/><path class="cls-3" d="M.2,88.89c19.45-22.68,88.43,1.39,131.74,1.36,23.76,0,91.27-40.29,133.32-24.39,64.55,24.35,80.93,27.22,106.14,21.82,15.16-3.28,87.54-23,130.31,3.91"/><path class="cls-4" d="M.21,88.87C19.65,66.22,88.66,90.27,132,90.22,155.69,90.19,223,50,265,65.83c64.58,24.3,80.78,27.27,106,21.85,15.34-3.35,87.91-23.06,130.59,3.86"/><path class="cls-5" d="M.22,88.84C19.65,66.23,88.7,90.25,132,90.18c23.7,0,90.85-40.19,132.78-24.38,64.63,24.25,80.65,27.38,106,21.87,15.53-3.38,88.27-23.08,130.86,3.81"/><path class="cls-6" d="M.22,88.82C19.64,66.24,88.73,90.24,132,90.15c23.68,0,90.65-40.15,132.52-24.37C329.17,90,345,93.22,370.35,87.66c15.71-3.44,88.64-23.1,131.13,3.77"/><path class="cls-6" d="M.23,88.8C19.64,66.25,88.77,90.22,132,90.12c23.66-.05,90.45-40.1,132.25-24.37C329,89.9,344.62,93.26,370,87.66c15.89-3.5,89-23.13,131.41,3.72"/><path class="cls-7" d="M.24,88.78C19.64,66.26,88.8,90.2,132,90.09,155.64,90,222.25,50,264,65.72c64.75,24.1,80.23,27.57,105.67,21.93,16.06-3.56,89.35-23.16,131.67,3.68"/><path class="cls-8" d="M.24,88.76c19.4-22.5,88.6,1.43,131.78,1.29,23.61-.06,90-40,131.71-24.36,64.79,24,80.1,27.64,105.58,22,16.24-3.63,89.72-23.19,132,3.62"/><path class="cls-9" d="M.25,88.73C19.64,66.27,88.88,90.17,132,90c23.57-.07,89.83-39.95,131.44-24.36,64.83,24,79.95,27.71,105.48,22C385.38,84,459,64.43,501.18,91.22"/><path class="cls-10" d="M.26,88.71C19.64,66.28,88.91,90.16,132.05,90c23.55-.08,89.59-39.81,131.18-24.36C328,89.73,343,93.4,368.61,87.63c16.6-3.74,90.45-23.23,132.5,3.54"/><path class="cls-11" d="M.26,88.69C19.63,66.29,89,90.14,132.06,90,155.59,89.87,221.45,50.2,263,65.61c64.85,24.06,79.67,27.83,105.29,22C385,83.82,459.07,64.37,501,91.11"/><path class="cls-11" d="M.27,88.67C19.63,66.3,89,90.13,132.08,89.92c23.5-.08,89.18-39.69,130.64-24.34,64.88,24,79.53,27.89,105.19,22,17-3.86,91.18-23.28,133,3.44"/><path class="cls-12" d="M.28,88.65C19.63,66.31,89,90.11,132.09,89.89c23.47-.09,89-39.64,130.37-24.34,64.93,24,79.4,28,105.1,22.06C384.7,83.69,459.1,64.3,500.88,91"/><path class="cls-12" d="M.28,88.63c19.35-22.31,88.77,1.47,131.83,1.23,23.44-.1,88.76-39.58,130.1-24.34,65,24,79.25,28,105,22.09,17.31-4,91.9-23.34,133.58,3.35"/><path class="cls-13" d="M.29,88.6c19.34-22.27,88.8,1.48,131.83,1.23C155.54,89.72,220.67,50.3,262,65.49c65,23.92,79.12,28.08,104.92,22.11,17.49-4,92.26-23.36,133.86,3.3"/><path class="cls-14" d="M.3,88.58c19.32-22.25,88.82,1.48,131.83,1.21,23.4-.11,88.35-39.47,129.57-24.33,65,23.89,79,28.15,104.82,22.14,17.67-4.11,92.63-23.39,134.13,3.25"/><path class="cls-15" d="M.3,88.56c19.32-22.22,88.86,1.49,131.85,1.2,23.36-.12,88.14-39.41,129.29-24.33,65.07,23.85,78.84,28.21,104.73,22.16,17.85-4.17,93-23.41,134.4,3.21"/><path class="cls-16" d="M.31,88.54C19.62,66.35,89.19,90,132.16,89.73c23.34-.13,87.93-39.36,129-24.32,65.1,23.81,78.69,28.26,104.63,22.17,18-4.23,93.36-23.44,134.68,3.16"/><path class="cls-16" d="M.32,88.52C19.62,66.36,89.23,90,132.18,89.7c23.31-.14,87.72-39.3,128.75-24.32,65.14,23.78,78.56,28.32,104.54,22.2,18.21-4.3,93.72-23.47,135,3.11"/><path class="cls-17" d="M.32,88.5c19.3-22.13,88.94,1.5,131.87,1.16,23.29-.14,87.52-39.24,128.49-24.31,65.17,23.74,78.41,28.38,104.44,22.22,18.39-4.35,94.09-23.49,135.23,3.07"/><path class="cls-18" d="M.33,88.47C19.62,66.38,89.3,90,132.2,89.63c23.26-.15,87.31-39.18,128.22-24.31C325.63,89,338.7,93.77,364.78,87.56c18.56-4.41,94.44-23.51,135.49,3"/><path class="cls-19" d="M.34,88.45c19.27-22.06,89,1.52,131.88,1.15,23.23-.16,87.1-39.13,128-24.31C325.42,89,338.3,93.8,364.43,87.56c18.74-4.48,94.81-23.54,135.77,3"/><path class="cls-20" d="M.34,88.43c19.27-22,89,1.53,131.89,1.14,23.21-.17,86.89-39.08,127.69-24.31,65.28,23.64,78,28.57,104.16,22.29C383,83,459.25,64,500.12,90.48"/><path class="cls-21" d="M.35,88.41c19.26-22,89.05,1.53,131.9,1.12,23.18-.17,86.68-39,127.41-24.29,65.32,23.6,77.85,28.62,104.07,22.3C382.83,82.94,459.27,64,500,90.43"/><path class="cls-21" d="M.36,88.39c19.25-22,89.08,1.54,131.9,1.11,23.15-.18,86.48-39,127.15-24.29,65.35,23.56,77.71,28.68,104,22.33,19.28-4.67,95.9-23.62,136.59,2.83"/><path class="cls-21" d="M.36,88.36c19.25-21.94,89.11,1.55,131.91,1.11,23.13-.19,86.27-38.9,126.88-24.29C324.54,88.71,336.72,93.92,363,87.53c19.46-4.72,96.27-23.64,136.86,2.79"/><path class="cls-22" d="M.37,88.34c19.24-21.91,89.14,1.55,131.92,1.1,23.1-.2,86.06-38.85,126.61-24.29C324.32,88.64,336.32,94,362.68,87.53c19.64-4.79,96.63-23.67,137.14,2.74"/><path class="cls-23" d="M.38,88.32C19.6,66.44,89.54,89.88,132.3,89.4c23.08-.2,85.86-38.79,126.34-24.28C324.1,88.58,335.93,94,362.34,87.52c19.81-4.85,97-23.69,137.4,2.7"/><path class="cls-24" d="M.38,88.3c19.22-21.85,89.2,1.56,131.94,1.07,23-.21,85.64-38.73,126.07-24.28C323.89,88.51,335.53,94,362,87.51c20-4.91,97.35-23.72,137.67,2.65"/><path class="cls-25" d="M.39,88.28c19.21-21.82,89.23,1.57,131.94,1.06,23-.22,85.44-38.68,125.8-24.28,65.54,23.39,77,29,103.51,22.45,20.17-5,97.72-23.75,138,2.6"/><path class="cls-26" d="M.4,88.26c19.2-21.79,89.25,1.57,131.94,1,23-.23,85.24-38.63,125.54-24.27,65.57,23.35,76.86,29,103.41,22.46,20.35-5,98.08-23.77,138.22,2.56"/><path class="cls-26" d="M.4,88.23c19.2-21.76,89.29,1.59,132,1,23-.23,85-38.56,125.26-24.26,65.61,23.31,76.73,29.09,103.32,22.48,20.53-5.1,98.45-23.79,138.5,2.51"/><path class="cls-27" d="M.41,88.21c19.19-21.73,89.31,1.59,132,1,22.94-.24,84.82-38.51,125-24.26C323,88.26,334,94.13,360.59,87.49,381.3,82.33,459.4,63.67,499.36,90"/><path class="cls-28" d="M.42,88.19c19.17-21.7,89.34,1.6,132,1C155.3,89,217,50.75,257.12,65c65.68,23.24,76.44,29.21,103.12,22.53,20.9-5.22,99.18-23.84,139.05,2.42"/><path class="cls-28" d="M.42,88.17c19.17-21.67,89.37,1.6,132,1,22.89-.26,84.4-38.4,124.46-24.26,65.72,23.21,76.3,29.27,103,22.56C381,82.19,459.43,63.6,499.21,89.85"/><path class="cls-29" d="M.43,88.15c19.16-21.64,89.4,1.6,132,1,22.87-.26,84.2-38.34,124.2-24.25,65.75,23.17,76.16,29.32,102.94,22.58,21.25-5.35,99.9-23.9,139.58,2.32"/><path class="cls-30" d="M.43,88.12c19.16-21.6,89.43,1.62,132,1,22.83-.27,84-38.29,123.92-24.24,65.79,23.13,76,29.37,102.85,22.59,21.43-5.41,100.26-23.92,139.86,2.28"/><path class="cls-31" d="M.44,88.1c19.15-21.57,89.46,1.62,132,1,22.81-.28,83.78-38.23,123.66-24.24C321.92,87.93,332,94.27,358.85,87.46,380.46,82,459.48,63.51,499,89.69"/><path class="cls-32" d="M.45,88.08c19.13-21.55,89.48,1.63,132,1,22.79-.29,83.58-38.18,123.39-24.24C321.71,87.87,331.58,94.3,358.5,87.45c21.79-5.54,101-24,140.41,2.18"/><path class="cls-33" d="M.45,88.06c19.13-21.52,89.52,1.63,132,1,22.76-.29,83.37-38.12,123.12-24.23,65.9,23,75.59,29.55,102.56,22.66,22-5.6,101.36-24,140.68,2.14"/><path class="cls-34" d="M.46,88C19.58,66.55,90,89.68,132.48,89c22.73-.3,83.16-38.06,122.85-24.23,65.94,23,75.46,29.6,102.47,22.69,22.15-5.67,101.72-24,141,2.09"/><path class="cls-34" d="M.47,88C19.58,66.56,90,89.66,132.5,89c22.7-.31,82.95-38,122.58-24.23,66,23,75.31,29.66,102.38,22.71,22.32-5.73,102.08-24.05,141.22,2"/><path class="cls-35" d="M.47,88c19.11-21.42,89.6,1.66,132,.93,22.68-.32,82.75-38,122.31-24.23,66,22.92,75.17,29.72,102.29,22.73,22.5-5.79,102.44-24.07,141.49,2"/><path class="cls-36" d="M.48,88c19.1-21.39,89.63,1.66,132,.92,22.66-.33,82.55-37.91,122-24.22,66.05,22.87,75,29.76,102.19,22.75,22.67-5.86,102.81-24.1,141.77,2"/><path class="cls-37" d="M.49,88c19.08-21.36,89.65,1.66,132,.9,22.62-.33,82.33-37.84,121.78-24.21C320.4,87.48,329.2,94.46,356.41,87.41c22.85-5.92,103.17-24.12,142,1.91"/><path class="cls-37" d="M.49,87.93c19.08-21.33,89.69,1.67,132.06.89,22.6-.34,82.13-37.79,121.51-24.21,66.12,22.8,74.75,29.88,102,22.8,23-6,103.54-24.16,142.32,1.85"/><path class="cls-38" d="M.5,87.91c19.07-21.31,89.71,1.67,132.07.88,22.57-.35,81.92-37.74,121.24-24.21C320,87.34,328.41,94.52,355.71,87.4c23.21-6.05,103.9-24.18,142.59,1.81"/><path class="cls-38" d="M.51,87.89c19.06-21.28,89.74,1.68,132.07.87,22.55-.36,81.71-37.69,121-24.21,66.2,22.73,74.46,30,101.81,22.84,23.39-6.11,104.27-24.2,142.86,1.77"/><path class="cls-39" d="M.51,87.86c19.06-21.24,89.77,1.69,132.08.86,22.53-.36,81.51-37.62,120.71-24.2C319.53,87.21,327.62,94.57,355,87.39c23.56-6.18,104.62-24.23,143.13,1.71"/><path class="cls-40" d="M.52,87.84c19.05-21.21,89.8,1.7,132.09.85C155.1,88.32,213.91,51.12,253,64.5c66.27,22.65,74.18,30.09,101.63,22.88,23.74-6.24,105-24.25,143.4,1.67"/><path class="cls-40" d="M.53,87.82c19-21.18,89.83,1.7,132.09.84,22.47-.38,81.1-37.52,120.17-24.19,66.3,22.61,74,30.15,101.53,22.9C378.24,81.07,459.67,63.1,498,89"/><path class="cls-41" d="M.53,87.8c19-21.15,89.86,1.71,132.11.83,22.44-.39,80.88-37.47,119.89-24.19C318.88,87,326.43,94.65,354,87.37c24.1-6.37,105.72-24.31,144,1.58"/><path class="cls-41" d="M.54,87.78c19-21.12,89.89,1.71,132.11.81,22.42-.39,80.68-37.4,119.63-24.18C318.66,87,326,94.67,353.62,87.36,377.9,80.93,459.7,63,497.85,88.89"/><path class="cls-42" d="M.55,87.75c19-21.08,89.91,1.72,132.11.81,22.39-.4,80.48-37.35,119.36-24.18,66.42,22.5,73.62,30.32,101.25,23,24.46-6.5,106.45-24.35,144.5,1.49"/><path class="cls-43" d="M.55,87.73c19-21.06,90,1.73,132.13.8,22.36-.41,80.26-37.3,119.09-24.18,66.45,22.47,73.47,30.37,101.15,23C377.56,80.78,459.73,63,497.69,88.79"/><path class="cls-43" d="M.56,87.71c19-21,90,1.73,132.13.79,22.34-.42,80.06-37.25,118.82-24.18,66.5,22.43,73.33,30.43,101.07,23,24.81-6.63,107.17-24.4,145,1.39"/><path class="cls-44" d="M.57,87.69c19-21,90,1.74,132.14.77C155,88,212.56,51.27,251.26,64.3c66.53,22.38,73.19,30.48,101,23,25-6.7,107.53-24.44,145.31,1.34"/><path class="cls-44" d="M.57,87.67c19-21,90,1.74,132.15.76C155,88,212.37,51.29,251,64.27c66.56,22.35,73,30.53,100.87,23.06,25.17-6.76,107.9-24.46,145.59,1.3"/><path class="cls-45" d="M.58,87.65c19-20.94,90.06,1.66,132.15.75,22.26-.48,79.44-37.08,118-24.16,66.61,22.31,72.91,30.59,100.78,23.08,25.35-6.82,108.26-24.48,145.86,1.26"/><path class="cls-46" d="M.59,87.62c19-20.9,90.08,1.67,132.16.75,22.23-.5,79.23-37,117.75-24.16,66.64,22.28,72.76,30.64,100.68,23.11,25.53-6.89,108.63-24.51,146.13,1.2"/><path class="cls-47" d="M.59,87.6c19-20.87,90.12,1.68,132.17.73,22.2-.5,79-37,117.48-24.15,66.68,22.24,72.62,30.7,100.59,23.13,25.71-7,109-24.53,146.41,1.16"/><path class="cls-48" d="M.6,87.58c18.94-20.84,90.14,1.68,132.18.72C155,87.79,211.6,51.38,250,64.15,316.7,86.35,322.47,94.9,350.48,87.3c25.89-7,109.36-24.55,146.68,1.12"/><path class="cls-49" d="M.61,87.56c18.93-20.82,90.17,1.68,132.18.71,22.15-.52,78.62-36.87,116.94-24.14,66.76,22.16,72.34,30.8,100.41,23.17,26.06-7.09,109.71-24.59,147,1.06"/><path class="cls-49" d="M.61,87.54c18.93-20.79,90.2,1.69,132.19.7,22.13-.53,78.41-36.82,116.68-24.14C316.27,86.22,321.67,95,349.79,87.29,376,80.14,459.87,62.68,497,88.31"/><path class="cls-50" d="M.62,87.51c18.92-20.75,90.23,1.7,132.2.69,22.1-.53,78.2-36.76,116.4-24.13C316.05,86.15,321.28,95,349.44,87.29c26.42-7.22,110.44-24.64,147.5,1"/><path class="cls-51" d="M.63,87.49c18.91-20.72,90.25,1.7,132.2.68,22.07-.54,78-36.7,116.14-24.13,66.87,22,71.91,31,100.12,23.24,26.6-7.28,110.81-24.66,147.77.93"/><path class="cls-51" d="M.63,87.47c18.91-20.69,90.29,1.71,132.22.67,22-.55,77.79-36.65,115.86-24.13,66.91,22,71.77,31,100,23.26,26.78-7.34,111.17-24.68,148,.88"/><path class="cls-52" d="M.64,87.45c18.89-20.66,90.31,1.71,132.22.66,22-.56,77.58-36.6,115.6-24.13,66.94,22,71.63,31.07,99.93,23.29,27-7.42,111.54-24.72,148.32.83"/><path class="cls-53" d="M.65,87.43C19.53,66.8,91,89.14,132.87,88.07c22-.56,77.38-36.54,115.34-24.12,67,21.93,71.48,31.12,99.83,23.31,27.14-7.48,111.9-24.74,148.59.79"/><path class="cls-54" d="M.65,87.41C19.53,66.81,91,89.13,132.89,88c22-.57,77.17-36.49,115.06-24.11,67,21.89,71.34,31.17,99.74,23.32C375,79.71,460,62.49,496.56,88"/><path class="cls-54" d="M.66,87.38c18.87-20.57,90.4,1.73,132.24.63,21.94-.58,77-36.44,114.8-24.11,67.05,21.85,71.2,31.22,99.65,23.35,27.49-7.61,112.62-24.79,149.13.69"/><path class="cls-54" d="M.67,87.36C19.53,66.82,91.09,89.1,132.92,88c21.91-.59,76.76-36.39,114.52-24.11C314.54,85.68,318.5,95.15,347,87.24c27.67-7.67,113-24.81,149.41.65"/><path class="cls-55" d="M.67,87.34c18.86-20.51,90.46,1.74,132.26.6,21.89-.59,76.55-36.33,114.26-24.1,67.13,21.78,70.91,31.33,99.46,23.39,27.84-7.74,113.35-24.83,149.68.61"/><path class="cls-55" d="M.68,87.32c18.84-20.48,90.48,1.74,132.26.59,21.86-.6,76.35-36.28,114-24.1,67.17,21.74,70.78,31.38,99.37,23.42,28-7.81,113.72-24.87,150,.55"/><path class="cls-56" d="M.69,87.3C19.52,66.85,91.2,89.05,133,87.88c21.83-.61,76.14-36.23,113.72-24.1,67.21,21.7,70.63,31.44,99.27,23.44,28.2-7.87,114.08-24.89,150.23.51"/><path class="cls-56" d="M.69,87.27C19.52,66.86,91.23,89,133,87.85c21.81-.62,75.94-36.18,113.45-24.09,67.25,21.65,70.49,31.48,99.18,23.46,28.38-7.94,114.45-24.92,150.5.46"/><path class="cls-57" d="M.7,87.25C19.52,66.87,91.27,89,133,87.81c21.79-.62,75.74-36.12,113.19-24.08,67.28,21.61,70.35,31.54,99.08,23.48,28.56-8,114.81-24.94,150.78.41"/><path class="cls-58" d="M.71,87.23C19.52,66.88,91.3,89,133,87.78c21.75-.63,75.52-36.07,112.91-24.08,67.33,21.58,70.21,31.59,99,23.5s115.17-25,151,.37"/><path class="cls-58" d="M.71,87.21C19.51,66.88,91.34,89,133,87.75c21.73-.64,75.32-36,112.65-24.08C313,85.21,315.72,95.31,344.56,87.2s115.53-25,151.31.32"/><path class="cls-59" d="M.72,87.19C19.51,66.89,91.37,89,133,87.72c21.7-.65,75.11-36,112.38-24.08,67.4,21.5,69.92,31.7,98.8,23.55,29.09-8.2,115.9-25,151.59.27"/><path class="cls-59" d="M.73,87.17C19.51,66.9,91.41,89,133,87.68,154.72,87,208,51.77,245.15,63.61c67.44,21.46,69.78,31.75,98.71,23.57,29.27-8.27,116.26-25,151.86.23"/><path class="cls-60" d="M.73,87.14c18.78-20.23,90.71,1.79,132.32.51C154.7,87,207.76,51.79,244.9,63.58c67.47,21.42,69.63,31.8,98.61,23.6,29.45-8.34,116.63-25.07,152.14.18"/><path class="cls-61" d="M.74,87.12c18.77-20.2,90.74,1.79,132.33.5,21.62-.67,74.49-35.81,111.57-24.06,67.52,21.38,69.5,31.85,98.52,23.61,29.63-8.4,117-25.09,152.41.14"/><path class="cls-62" d="M.75,87.1c18.76-20.17,90.76,1.8,132.33.49,21.6-.68,74.29-35.76,111.31-24.06,67.55,21.34,69.35,31.9,98.42,23.64,29.81-8.48,117.36-25.12,152.69.08"/><path class="cls-63" d="M.75,87.08c18.75-20.14,90.8,1.8,132.35.47,21.57-.69,74.08-35.7,111-24,67.6,21.3,69.21,32,98.34,23.66,30-8.54,117.71-25.15,153,0"/><path class="cls-63" d="M.76,87.06c18.74-20.12,90.82,1.8,132.35.46,21.54-.7,73.88-35.65,110.77-24,67.63,21.26,69.06,32,98.24,23.68,30.15-8.6,118.08-25.17,153.22,0"/><path class="cls-64" d="M.77,87C19.5,67,91.62,88.85,133.12,87.49c21.52-.71,73.68-35.6,110.5-24,67.67,21.22,68.93,32.06,98.15,23.71,30.33-8.68,118.44-25.2,153.5-.06"/><path class="cls-65" d="M.77,87C19.5,67,91.65,88.83,133.14,87.46c21.49-.72,73.47-35.55,110.23-24,67.71,21.18,68.78,32.11,98.05,23.73,30.51-8.74,118.81-25.22,153.77-.1"/><path class="cls-66" d="M.78,87c18.72-20,90.91,1.83,132.37.43,21.47-.72,73.26-35.49,110-24,67.75,21.15,68.64,32.17,98,23.75,30.69-8.8,119.17-25.24,154.05-.14"/><path class="cls-67" d="M.79,87c18.71-20,90.94,1.83,132.38.42,21.43-.73,73.05-35.44,109.69-24,67.79,21.1,68.5,32.21,97.86,23.77,30.87-8.88,119.54-25.28,154.32-.19"/><path class="cls-67" d="M.79,87c18.7-20,91,1.83,132.39.41C154.59,86.62,206,52,242.6,63.33,310.43,84.39,311,95.59,340.37,87.12c31.05-8.94,119.9-25.3,154.59-.24"/><path class="cls-68" d="M.8,86.93c18.69-19.93,91,1.84,132.39.4,21.39-.75,72.65-35.34,109.16-24,67.86,21,68.21,32.31,97.68,23.81,31.22-9,120.26-25.32,154.86-.28"/><path class="cls-69" d="M.81,86.9c18.68-19.89,91,1.85,132.4.39,21.36-.75,72.44-35.28,108.89-24,67.9,21,68.07,32.37,97.58,23.84,31.4-9.08,120.62-25.35,155.13-.33"/><path class="cls-70" d="M.81,86.88c18.68-19.87,91.06,1.85,132.41.38,21.33-.76,72.24-35.23,108.62-24,67.94,20.94,67.93,32.42,97.49,23.86,31.58-9.14,121-25.37,155.41-.38"/><path class="cls-71" d="M.82,86.86C19.49,67,91.9,88.72,133.24,87.23c21.3-.77,72-35.18,108.35-24,68,20.9,67.78,32.47,97.39,23.89,31.76-9.21,121.35-25.4,155.68-.43"/><path class="cls-72" d="M.83,86.84C19.48,67,91.94,88.7,133.25,87.2c21.28-.78,71.82-35.13,108.08-24,68,20.85,67.64,32.52,97.3,23.9,31.93-9.28,121.72-25.43,156-.47"/><path class="cls-73" d="M.83,86.82C19.48,67,92,88.68,133.26,87.16c21.26-.78,71.62-35.07,107.82-24,68.06,20.81,67.5,32.57,97.2,23.92,32.11-9.34,122.08-25.45,156.23-.51"/><path class="cls-74" d="M.84,86.8c18.64-19.75,91.17,1.87,132.44.33,21.22-.79,71.41-35,107.54-24,68.1,20.77,67.36,32.62,97.11,23.95,32.29-9.42,122.45-25.48,156.5-.57"/><path class="cls-75" d="M.85,86.77C19.48,67.06,92,88.65,133.29,87.1c21.2-.8,71.21-35,107.28-24,68.14,20.73,67.21,32.67,97,24,32.46-9.48,122.8-25.5,156.77-.61"/><path class="cls-76" d="M.85,86.75c18.63-19.68,91.23,1.89,132.46.32,21.17-.81,71-34.93,107-24,68.18,20.69,67.07,32.73,96.93,24,32.64-9.54,123.17-25.52,157-.65"/><path class="cls-76" d="M.86,86.73c18.62-19.65,91.25,1.89,132.46.3,21.15-.81,70.8-34.87,106.74-24,68.21,20.65,66.93,32.78,96.83,24,32.82-9.62,123.53-25.56,157.32-.71"/><path class="cls-77" d="M.87,86.71c18.6-19.63,91.28,1.89,132.46.29,21.12-.82,70.6-34.82,106.47-24,68.26,20.61,66.79,32.83,96.74,24,33-9.68,123.9-25.58,157.59-.75"/><path class="cls-78" d="M.87,86.69c18.6-19.6,91.31,1.9,132.48.28,21.09-.83,70.39-34.77,106.2-24C307.84,83.55,306.19,95.86,336.19,87c33.18-9.75,124.26-25.6,157.87-.79"/><path class="cls-79" d="M.88,86.66c18.59-19.56,91.34,1.91,132.48.28,21.07-.84,70.18-34.72,105.94-24C307.63,83.48,305.8,95.89,335.84,87,369.2,77.22,460.47,61.41,494,86.2"/><path class="cls-80" d="M.89,86.64c18.58-19.53,91.36,1.91,132.49.26,21-.84,70-34.66,105.66-24,68.37,20.48,66.36,33,96.45,24.1,33.53-9.89,125-25.65,158.41-.89"/><path class="cls-80" d="M.89,86.62c18.58-19.5,91.4,1.92,132.5.25,21-.85,69.77-34.61,105.4-24C307.2,83.34,305,95.93,335.15,87c33.7-10,125.35-25.68,158.68-.94"/><path class="cls-81" d="M.9,86.6c18.57-19.47,91.42,1.92,132.5.24,21-.86,69.57-34.57,105.13-24C307,83.27,304.6,96,334.8,87c33.88-10,125.71-25.71,159-1"/><path class="cls-82" d="M.9,86.58c18.56-19.44,91.46,1.93,132.52.23,21-.87,69.36-34.52,104.86-24C306.77,83.2,304.21,96,334.45,87c34.06-10.09,126.07-25.73,159.23-1"/><path class="cls-83" d="M.91,86.56c18.55-19.41,91.48,1.93,132.52.21C154.37,85.9,202.59,52.31,238,62.82,306.55,83.13,303.81,96,334.1,87c34.24-10.16,126.44-25.76,159.5-1.08"/><path class="cls-84" d="M.92,86.53c18.54-19.38,91.51,1.94,132.53.21,20.9-.88,69-34.41,104.32-23.95C306.34,83.06,303.41,96,333.75,87c34.42-10.23,126.8-25.78,159.77-1.12"/><path class="cls-84" d="M.92,86.51c18.54-19.35,91.54,1.95,132.54.2,20.88-.89,68.75-34.36,104-23.95C306.12,83,303,96,333.4,87,368,76.7,460.57,61.19,493.45,85.82"/><path class="cls-85" d="M.93,86.49c18.53-19.32,91.57,2,132.54.19,20.86-.9,68.55-34.31,103.79-24C305.91,82.92,302.62,96.06,333.05,87c34.77-10.37,127.53-25.83,160.32-1.22"/><path class="cls-85" d="M.94,86.47c18.51-19.29,91.59,2,132.55.17,20.83-.9,68.33-34.26,103.51-23.94C305.69,82.85,302.22,96.08,332.71,87,367.65,76.55,460.6,61.12,493.3,85.72"/><path class="cls-86" d="M.94,86.45c18.51-19.26,91.63,2,132.56.16,20.8-.91,68.13-34.21,103.25-23.94C305.48,82.78,301.82,96.11,332.36,87c35.12-10.51,128.25-25.89,160.86-1.31"/><path class="cls-87" d="M1,86.43c18.5-19.23,91.65,2,132.56.15,20.78-.92,67.93-34.16,103-23.94C305.26,82.71,301.43,96.13,332,87c35.3-10.57,128.62-25.91,161.14-1.36"/><path class="cls-87" d="M1,86.4c18.49-19.19,91.68,2,132.57.15,20.75-.93,67.72-34.11,102.71-23.93C305.05,82.63,301,96.15,331.66,87c35.48-10.64,129-25.93,161.41-1.4"/><path class="cls-88" d="M1,86.38c18.49-19.16,91.71,2,132.58.13,20.73-.93,67.52-34.06,102.45-23.92,68.84,20,64.64,33.58,95.32,24.37C367,76.25,460.66,61,493,85.51"/><path class="cls-88" d="M1,86.36c18.48-19.14,91.74,2,132.59.12,20.69-.94,67.31-34,102.17-23.92C304.62,82.49,300.23,96.19,331,87c35.84-10.78,129.71-26,162-1.5"/><path class="cls-89" d="M1,86.34c18.46-19.11,91.76,2,132.59.11,20.67-1,67.11-34,101.91-23.92,68.92,19.89,64.36,33.68,95.13,24.41,36-10.84,130.08-26,162.23-1.54"/><path class="cls-90" d="M1,86.32c18.46-19.08,91.8,2,132.6.1,20.65-1,66.91-33.91,101.64-23.92,69,19.85,64.22,33.74,95,24.44,36.18-10.92,130.43-26,162.5-1.59"/><path class="cls-90" d="M1,86.29c18.45-19,91.82,2,132.61.09,20.62-1,66.7-33.86,101.37-23.91,69,19.81,64.07,33.79,95,24.46,36.36-11,130.8-26.06,162.77-1.63"/><path class="cls-91" d="M1,86.27c18.44-19,91.85,2,132.61.08,20.59-1,66.5-33.81,101.1-23.9,69,19.75,63.93,33.83,94.86,24.47,36.54-11,131.16-26.08,163-1.68"/><path class="cls-92" d="M1,86.25c18.44-19,91.89,2,132.63.07,20.56-1,66.29-33.76,100.83-23.9,69.09,19.71,63.79,33.88,94.76,24.5,36.72-11.12,131.53-26.11,163.32-1.73"/><path class="cls-93" d="M1,86.23c18.43-19,91.91,2,132.63.06,20.54-1,66.08-33.71,100.56-23.9,69.13,19.67,63.65,33.93,94.67,24.52,36.9-11.19,131.89-26.14,163.59-1.77"/><path class="cls-94" d="M1,86.21c18.41-18.92,91.94,2,132.63.05,20.52-1,65.88-33.67,100.3-23.9,69.17,19.63,63.5,34,94.57,24.55,37.08-11.27,132.26-26.17,163.87-1.83"/><path class="cls-94" d="M1,86.19c18.41-18.9,92,2,132.65,0,20.48-1,65.67-33.61,100-23.89,69.21,19.59,63.36,34,94.48,24.57C365.42,75.57,460.79,60.71,492.31,85"/><path class="cls-95" d="M1,86.16c18.4-18.86,92,2,132.65,0,20.46-1,65.47-33.56,99.76-23.89,69.25,19.54,63.22,34.09,94.39,24.59,37.42-11.4,133-26.21,164.41-1.91"/><path class="cls-95" d="M1,86.14c18.39-18.83,92,2,132.66,0,20.43-1,65.26-33.51,99.49-23.89,69.28,19.5,63.07,34.14,94.29,24.62,37.6-11.47,133.34-26.24,164.68-2"/><path class="cls-96" d="M1,86.12c18.39-18.8,92.06,2,132.67,0,20.41-1,65.06-33.47,99.22-23.88,69.33,19.45,62.93,34.18,94.2,24.63,37.78-11.54,133.71-26.27,165-2"/><path class="cls-97" d="M1.05,86.1c18.38-18.77,92.08,2.05,132.67,0,20.38-1,64.86-33.41,99-23.87,69.37,19.41,62.78,34.23,94.1,24.65,38-11.6,134.07-26.29,165.23-2.05"/><path class="cls-98" d="M1.06,86.08c18.36-18.74,92.11,2.06,132.68,0,20.35-1,64.65-33.36,98.68-23.87,69.41,19.36,62.65,34.28,94,24.68,38.14-11.68,134.44-26.32,165.5-2.1"/><path class="cls-98" d="M1.06,86.05c18.36-18.7,92.14,2.07,132.69,0,20.33-1,64.45-33.32,98.42-23.87,69.45,19.32,62.5,34.33,93.91,24.7,38.31-11.75,134.8-26.34,165.78-2.15"/><path class="cls-99" d="M1.07,86c18.35-18.68,92.17,2.08,132.7,0,20.3-1.06,64.24-33.27,98.14-23.87,69.49,19.28,62.36,34.39,93.82,24.73,38.49-11.82,135.17-26.37,166-2.2"/><path class="cls-100" d="M1.08,86c18.34-18.65,92.19,2.08,132.7-.05,20.27-1.06,64-33.21,97.88-23.86,69.53,19.23,62.21,34.44,93.73,24.75C364.05,75,460.91,60.46,491.7,84.61"/><path class="cls-101" d="M1.08,86c18.34-18.62,92.23,2.08,132.71-.06C154,84.86,197.63,52.76,231.4,62.08,301,81.26,293.48,96.56,325,86.84c38.84-12,135.89-26.42,166.59-2.28"/><path class="cls-102" d="M1.09,86c18.32-18.59,92.25,2.09,132.72-.07,20.22-1.08,63.63-33.12,97.34-23.85,69.61,19.14,61.93,34.53,93.54,24.79,39-12,136.25-26.45,166.86-2.34"/><path class="cls-102" d="M1.1,86C19.41,67.39,93.38,88,133.82,85.87,154,84.78,197.25,52.8,230.89,62c69.66,19.09,61.79,34.58,93.45,24.81C363.53,74.73,461,60.36,491.48,84.45"/><path class="cls-103" d="M1.1,85.92C19.41,67.4,93.41,88,133.84,85.83c20.16-1.09,63.22-33,96.8-23.84C300.33,81,292.28,96.62,324,86.82,363.36,74.66,461,60.33,491.4,84.4"/><path class="cls-103" d="M1.11,85.9c18.3-18.49,92.34,2.11,132.74-.1,20.14-1.1,63-33,96.54-23.84,69.73,19,61.49,34.68,93.25,24.86C363.19,74.58,461,60.3,491.33,84.34"/><path class="cls-104" d="M1.12,85.88C19.41,67.42,93.48,88,133.86,85.77c20.12-1.11,62.82-32.93,96.27-23.84,69.78,19,61.36,34.73,93.16,24.88C363,74.51,461,60.26,491.25,84.29"/><path class="cls-105" d="M1.12,85.86c18.29-18.44,92.4,2.12,132.76-.12,20.09-1.12,62.61-32.88,96-23.84C299.69,80.82,291.09,96.68,323,86.8,362.85,74.43,461,60.23,491.17,84.24"/><path class="cls-105" d="M1.13,85.84C19.4,67.43,93.55,88,133.89,85.7,154,84.58,196.3,52.88,229.62,61.88c69.86,18.86,61.07,34.83,93,24.92C362.67,74.35,461,60.2,491.1,84.19"/><path class="cls-106" d="M1.14,85.81C19.4,67.44,93.59,88,133.91,85.67c20-1.13,62.2-32.78,95.46-23.82,69.89,18.82,60.92,34.88,92.88,24.94C362.5,74.28,461.05,60.17,491,84.13"/><path class="cls-106" d="M1.14,85.79c18.26-18.34,92.48,2.14,132.78-.15,20-1.14,62-32.73,95.19-23.82,69.94,18.77,60.79,34.93,92.79,25C362.33,74.2,461.06,60.14,491,84.08"/><path class="cls-107" d="M1.15,85.77c18.25-18.31,92.51,2.15,132.78-.16,20-1.15,61.79-32.69,94.93-23.82,70,18.73,60.64,35,92.69,25C362.16,74.12,461.08,60.11,490.87,84"/><path class="cls-108" d="M1.16,85.75C19.4,67.47,93.69,87.9,134,85.57c20-1.15,61.58-32.63,94.65-23.81,70,18.68,60.5,35,92.6,25C362,74.05,461.09,60.07,490.8,84"/><path class="cls-109" d="M1.16,85.73C19.4,67.48,93.73,87.89,134,85.54c19.93-1.16,61.38-32.58,94.39-23.81,70.06,18.64,60.35,35.08,92.5,25C361.81,74,461.11,60,490.72,83.92"/><path class="cls-109" d="M1.17,85.71c18.22-18.22,92.59,2.16,132.81-.2,19.9-1.17,61.17-32.54,94.11-23.8,70.11,18.58,60.22,35.12,92.42,25.05C361.64,73.89,461.12,60,490.64,83.87"/><path class="cls-110" d="M1.18,85.68C19.39,67.49,93.8,87.85,134,85.48c19.88-1.18,61-32.49,93.85-23.8C298,80.22,287.91,96.85,320.16,86.75c41.31-12.93,141-26.77,170.41-2.94"/><path class="cls-110" d="M1.18,85.66C19.39,67.5,93.83,87.84,134,85.44c19.86-1.18,60.77-32.44,93.58-23.79,70.19,18.49,59.93,35.22,92.23,25.1,41.49-13,141.34-26.8,170.68-3"/><path class="cls-111" d="M1.19,85.64c18.2-18.13,92.68,2.18,132.83-.23,19.82-1.19,60.56-32.39,93.31-23.79,70.23,18.45,59.78,35.27,92.13,25.12,41.67-13.08,141.71-26.83,171-3"/><path class="cls-112" d="M1.2,85.62c18.19-18.1,92.7,2.19,132.83-.24,19.8-1.2,60.36-32.35,93.05-23.79,70.26,18.4,59.63,35.32,92,25.14C361,73.59,461.18,59.88,490.34,83.66"/><path class="cls-113" d="M1.2,85.6c18.18-18.07,92.74,2.19,132.85-.25,19.77-1.21,60.15-32.3,92.77-23.79,70.31,18.36,59.5,35.38,91.94,25.17,42-13.22,142.44-26.88,171.5-3.13"/><path class="cls-114" d="M1.21,85.58c18.17-18,92.77,2.2,132.85-.27C153.81,84.1,194,53.06,226.57,61.53,296.92,79.84,285.92,97,318.41,86.72c42.2-13.29,142.8-26.9,171.78-3.17"/><path class="cls-115" d="M1.22,85.55c18.16-18,92.79,2.21,132.85-.27,19.72-1.22,59.75-32.2,92.24-23.77C296.7,79.76,285.52,97,318.06,86.72c42.38-13.36,143.17-26.93,172.05-3.22"/><path class="cls-115" d="M1.22,85.53c18.16-18,92.83,2.22,132.87-.28,19.69-1.23,59.54-32.16,92-23.77C296.49,79.69,285.12,97,317.72,86.71,360.27,73.28,461.24,59.76,490,83.44"/><path class="cls-116" d="M1.23,85.51c18.15-18,92.85,2.22,132.87-.29,19.67-1.24,59.34-32.11,91.7-23.77C296.28,79.61,284.73,97,317.37,86.7c42.72-13.5,143.89-27,172.59-3.31"/><path class="cls-116" d="M1.24,85.49c18.14-17.92,92.88,2.22,132.87-.31,19.65-1.24,59.14-32.06,91.44-23.76C296.06,79.53,284.33,97,317,86.7c42.9-13.58,144.25-27,172.87-3.36"/><path class="cls-117" d="M1.24,85.47c18.13-17.89,92.91,2.23,132.89-.32,19.61-1.25,58.93-32,91.16-23.76,70.56,18.07,58.64,35.67,91.38,25.3,43.08-13.64,144.62-27,173.14-3.4"/><path class="cls-118" d="M1.25,85.44c18.12-17.85,92.94,2.24,132.89-.32,19.59-1.26,58.73-32,90.9-23.76,70.6,18,58.49,35.72,91.28,25.32,43.26-13.71,145-27.05,173.41-3.45"/><path class="cls-119" d="M1.26,85.42c18.11-17.82,93,2.25,132.9-.33,19.56-1.27,58.52-31.92,90.62-23.75,70.64,18,58.35,35.76,91.19,25.34,43.44-13.79,145.35-27.08,173.69-3.5"/><path class="cls-119" d="M1.26,85.4c18.11-17.79,93,2.25,132.91-.35,19.54-1.27,58.32-31.87,90.36-23.74,70.68,17.92,58.21,35.81,91.09,25.36,43.61-13.85,145.71-27.11,174-3.54"/><path class="cls-120" d="M1.27,85.38c18.1-17.76,93,2.26,132.91-.36,19.51-1.28,58.12-31.82,90.1-23.74,70.72,17.87,58.06,35.86,91,25.39,43.78-13.93,146.07-27.14,174.23-3.6"/><path class="cls-120" d="M1.28,85.36C19.37,67.63,94.33,87.62,134.2,85,153.68,83.7,192.11,53.21,224,61.25c70.76,17.82,57.92,35.91,90.91,25.41,44-14,146.43-27.16,174.5-3.64"/><path class="cls-121" d="M1.28,85.34C19.36,67.63,94.36,87.61,134.21,85c19.46-1.3,57.71-31.73,89.56-23.74,70.8,17.78,57.77,36,90.81,25.43C358.72,72.58,461.38,59.47,489.35,83"/><path class="cls-122" d="M1.29,85.31c18.07-17.67,93.11,2.28,132.94-.39,19.43-1.3,57.5-31.68,89.28-23.73,70.85,17.73,57.63,36,90.72,25.46,44.31-14.14,147.16-27.21,175-3.73"/><path class="cls-122" d="M1.3,85.29c18.06-17.64,93.13,2.29,132.94-.4,19.4-1.31,57.3-31.63,89-23.73,70.89,17.68,57.49,36.06,90.62,25.48,44.49-14.21,147.53-27.23,175.32-3.78"/><path class="cls-123" d="M1.3,85.27c18.06-17.61,93.17,2.29,133-.41,19.38-1.32,57.1-31.59,88.75-23.72,70.93,17.62,57.35,36.11,90.53,25.49,44.67-14.28,147.89-27.26,175.6-3.82"/><path class="cls-123" d="M1.31,85.25c18.05-17.58,93.19,2.3,133-.42,19.35-1.33,56.89-31.54,88.48-23.72,71,17.57,57.2,36.16,90.43,25.52C358,72.27,461.44,59.34,489.05,82.76"/><path class="cls-124" d="M1.32,85.23c18-17.55,93.22,2.3,133-.44C153.61,83.46,191,53.3,222.49,61.08c71,17.53,57.06,36.21,90.35,25.54C357.85,72.2,461.45,59.31,489,82.7"/><path class="cls-125" d="M1.32,85.2c18-17.51,93.25,2.31,133-.44,19.29-1.34,56.48-31.45,87.94-23.71,71.05,17.48,56.91,36.26,90.25,25.56,45.19-14.49,149-27.33,176.41-4"/><path class="cls-126" d="M1.33,85.18c18-17.48,93.28,2.32,133-.45C153.58,83.38,190.59,53.33,222,61c71.1,17.43,56.78,36.31,90.16,25.59,45.37-14.57,149.34-27.36,176.68-4"/><path class="cls-126" d="M1.34,85.16c18-17.46,93.3,2.32,133-.46C153.57,83.34,190.4,53.34,221.73,61c71.14,17.38,56.63,36.36,90.06,25.61,45.55-14.64,149.71-27.38,177-4"/><path class="cls-127" d="M1.34,85.14c18-17.43,93.34,2.33,133-.48,19.22-1.36,55.87-31.3,87.14-23.69,71.18,17.32,56.48,36.4,90,25.63,45.72-14.72,150.07-27.42,177.23-4.11"/><path class="cls-127" d="M1.35,85.12c18-17.4,93.36,2.33,133-.49,19.19-1.37,55.67-31.26,86.87-23.69,71.22,17.27,56.34,36.45,89.87,25.65C357,71.81,461.53,59.15,488.6,82.44"/><path class="cls-128" d="M1.36,85.1c18-17.37,93.39,2.34,133-.5,19.16-1.37,55.46-31.22,86.6-23.69,71.26,17.22,56.19,36.5,89.77,25.67,46.08-14.85,150.8-27.46,177.78-4.19"/><path class="cls-128" d="M1.36,85.07c18-17.33,93.42,2.35,133-.5,19.14-1.38,55.26-31.17,86.33-23.69C292,78.05,276.77,97.43,310.4,86.58c46.25-14.93,151.16-27.49,178.05-4.25"/><path class="cls-129" d="M1.37,85.05c18-17.3,93.45,2.36,133-.52,19.12-1.38,55.06-31.12,86.07-23.68,71.35,17.12,55.91,36.6,89.59,25.72,46.42-15,151.52-27.51,178.32-4.29"/><path class="cls-130" d="M1.38,85c18-17.27,93.47,2.36,133-.53,19.08-1.39,54.85-31.08,85.79-23.68C291.59,77.89,276,97.47,309.7,86.56,356.3,71.49,461.59,59,488.29,82.23"/><path class="cls-131" d="M1.38,85c18-17.25,93.51,2.37,133-.54,19.06-1.4,54.65-31,85.53-23.68,71.43,17,55.62,36.7,89.4,25.77C356.13,71.42,461.6,59,488.22,82.17"/><path class="cls-131" d="M1.39,85c18-17.22,93.54,2.37,133.05-.55,19-1.41,54.45-31,85.25-23.67,71.48,17,55.48,36.74,89.31,25.78C356,71.34,461.62,59,488.14,82.12"/><path class="cls-132" d="M1.39,85C19.33,67.78,95,87.35,134.45,84.4c19-1.41,54.25-30.93,85-23.66C291,77.65,274.78,97.53,308.65,86.55c47.13-15.29,153-27.62,179.42-4.48"/><path class="cls-132" d="M1.4,84.94c17.93-17.15,93.6,2.39,133.06-.57,19-1.42,54-30.89,84.72-23.66,71.56,16.86,55.2,36.84,89.12,25.83C355.61,71.18,461.65,58.9,488,82"/><path class="cls-133" d="M1.41,84.92C19.33,67.8,95,87.32,134.48,84.34c19-1.43,53.84-30.85,84.45-23.66,71.6,16.81,55.05,36.89,89,25.85,47.48-15.43,153.7-27.66,180-4.57"/><path class="cls-134" d="M1.41,84.9c17.92-17.09,93.66,2.4,133.08-.59,18.93-1.44,53.64-30.8,84.18-23.66,71.65,16.76,54.91,36.94,88.94,25.88,47.66-15.5,154.07-27.7,180.23-4.62"/><path class="cls-135" d="M1.42,84.88c17.91-17.06,93.68,2.41,133.09-.61,18.9-1.44,53.43-30.75,83.91-23.65,71.69,16.71,54.76,37,88.84,25.9C355.09,71,461.69,58.8,487.76,81.86"/><path class="cls-135" d="M1.43,84.86c17.9-17,93.71,2.41,133.09-.62,18.87-1.45,53.23-30.71,83.65-23.65,71.73,16.66,54.62,37,88.74,25.92,48-15.64,154.8-27.74,180.78-4.71"/><path class="cls-136" d="M1.43,84.83c17.89-17,93.74,2.43,133.1-.62,18.85-1.46,53-30.67,83.38-23.64,71.77,16.6,54.48,37.08,88.65,25.94,48.19-15.72,155.16-27.77,181.05-4.76"/><path class="cls-137" d="M1.44,84.81c17.88-17,93.77,2.43,133.11-.63,18.82-1.47,52.82-30.62,83.11-23.64,71.81,16.55,54.33,37.13,88.55,26,48.37-15.79,155.53-27.79,181.33-4.8"/><path class="cls-137" d="M1.45,84.79c17.87-16.94,93.79,2.44,133.11-.65,18.8-1.47,52.62-30.57,82.84-23.63,71.86,16.5,54.19,37.18,88.46,26,48.54-15.86,155.89-27.82,181.6-4.84"/><path class="cls-138" d="M1.45,84.77c17.87-16.91,93.83,2.44,133.13-.66,18.76-1.48,52.41-30.53,82.57-23.63,71.9,16.44,54,37.23,88.37,26,48.71-15.93,156.25-27.85,181.86-4.9"/><path class="cls-138" d="M1.46,84.75c17.86-16.88,93.85,2.45,133.13-.67,18.74-1.49,52.21-30.48,82.3-23.63,71.95,16.39,53.91,37.28,88.28,26,48.89-16,156.61-27.87,182.14-4.94"/><path class="cls-139" d="M1.47,84.73c17.84-16.85,93.88,2.45,133.13-.68,18.72-1.5,52-30.44,82-23.63,72,16.34,53.76,37.33,88.18,26.06,49.07-16.08,157-27.9,182.41-5"/><path class="cls-139" d="M1.47,84.7C19.31,67.89,95.38,87.17,134.62,84c18.69-1.5,51.8-30.39,81.76-23.61,72,16.28,53.62,37.37,88.09,26.07,49.24-16.15,157.34-27.92,182.69-5"/><path class="cls-140" d="M1.48,84.68C19.31,67.9,95.42,87.15,134.63,84c18.66-1.51,51.6-30.35,81.5-23.61,72.07,16.23,53.47,37.42,88,26.09,49.42-16.22,157.71-27.94,183-5.08"/><path class="cls-141" d="M1.49,84.66c17.82-16.76,94,2.48,133.15-.71,18.64-1.52,51.4-30.3,81.23-23.61C288,76.51,269.2,97.81,303.77,86.46c49.6-16.3,158.07-28,183.23-5.13"/><path class="cls-142" d="M1.49,84.64c17.82-16.73,94,2.48,133.17-.72,18.61-1.53,51.19-30.26,81-23.61,72.16,16.12,53.19,37.52,87.8,26.14,49.77-16.37,158.44-28,183.51-5.17"/><path class="cls-142" d="M1.5,84.62c17.81-16.7,94,2.49,133.17-.74,18.59-1.53,51-30.21,80.7-23.6,72.19,16.07,53,37.57,87.71,26.16C353,70,461.87,58.42,486.85,81.22"/><path class="cls-143" d="M1.51,84.59c17.79-16.66,94.05,2.5,133.18-.74,18.56-1.54,50.78-30.17,80.42-23.6,72.24,16,52.9,37.62,87.62,26.19,50.12-16.51,159.16-28,184-5.27"/><path class="cls-143" d="M1.51,84.57c17.79-16.63,94.08,2.51,133.19-.75,18.53-1.54,50.58-30.12,80.16-23.6,72.28,16,52.75,37.67,87.52,26.21,50.3-16.58,159.52-28.07,184.32-5.31"/><path class="cls-144" d="M1.52,84.55C19.3,68,95.63,87.06,134.71,83.79c18.51-1.55,50.38-30.08,79.89-23.59C286.93,76.1,267.21,97.91,302,86.42c50.47-16.65,159.89-28.1,184.6-5.36"/><path class="cls-145" d="M1.53,84.53C19.3,68,95.66,87.05,134.73,83.75c18.48-1.55,50.17-30,79.62-23.58C286.72,76,266.82,97.93,301.68,86.42,352.33,69.69,461.93,58.29,486.55,81"/><path class="cls-146" d="M1.53,84.51C19.3,68,95.7,87,134.74,83.72c18.46-1.56,50-30,79.35-23.58C286.51,75.93,266.42,98,301.33,86.41,352.16,69.61,462,58.26,486.47,81"/><path class="cls-146" d="M1.54,84.49C19.3,68,95.74,87,134.76,83.69c18.42-1.57,49.76-29.94,79.08-23.58C286.29,75.85,266,98,301,86.41c51-16.88,161-28.18,185.42-5.5"/><path class="cls-147" d="M1.55,84.46C19.29,68,95.77,87,134.77,83.66c18.4-1.58,49.57-29.9,78.81-23.58,72.5,15.68,52,37.91,87.06,26.32,51.17-17,161.34-28.2,185.68-5.55"/><path class="cls-147" d="M1.55,84.44C19.29,68,95.81,87,134.78,83.62c18.38-1.58,49.37-29.85,78.55-23.57,72.54,15.63,51.89,38,87,26.34,51.35-17,161.7-28.22,186-5.59"/><path class="cls-148" d="M1.56,84.42C19.29,68,95.84,87,134.8,83.59,153.15,82,184,53.78,213.07,60c72.59,15.56,51.75,38,86.87,26.36C351.47,69.29,462,58.13,486.17,80.75"/><path class="cls-149" d="M1.57,84.4C19.29,68,95.88,87,134.81,83.56c18.32-1.6,49-29.77,78-23.56,72.63,15.51,51.61,38.05,86.77,26.38C351.29,69.22,462,58.1,486.1,80.69"/><path class="cls-150" d="M1.57,84.38C19.29,68,95.91,87,134.83,83.53,153.12,81.92,183.58,53.8,212.57,60c72.67,15.45,51.46,38.1,86.67,26.4C351.12,69.14,462,58.07,486,80.64"/><path class="cls-150" d="M1.58,84.35C19.29,68,96,86.93,134.84,83.5c18.27-1.62,48.55-29.68,77.47-23.56,72.71,15.4,51.32,38.15,86.58,26.43C351,69.06,462.05,58,485.94,80.59"/><path class="cls-151" d="M1.59,84.33C19.28,68,96,86.92,134.85,83.46c18.25-1.62,48.35-29.63,77.21-23.55,72.75,15.34,51.17,38.2,86.48,26.45C350.77,69,462.06,58,485.87,80.54"/><path class="cls-151" d="M1.59,84.31C19.28,68,96,86.9,134.87,83.43,153.08,81.8,183,53.84,211.8,59.88c72.8,15.28,51,38.25,86.4,26.48C350.6,68.9,462.08,58,485.79,80.48"/><path class="cls-152" d="M1.6,84.29c17.68-16.24,94.45,2.6,133.28-.89,18.19-1.64,47.94-29.55,76.67-23.55,72.84,15.23,50.89,38.3,86.3,26.5,52.58-17.53,164.24-28.41,187.87-5.92"/><path class="cls-153" d="M1.61,84.27c17.67-16.21,94.48,2.6,133.29-.9,18.16-1.65,47.73-29.51,76.39-23.54C284.18,75,262,98.17,297.5,86.34c52.75-17.6,164.61-28.43,188.14-6"/><path class="cls-154" d="M1.61,84.25c17.67-16.18,94.51,2.61,133.3-.92C153.05,81.68,182.44,53.87,211,59.8c72.93,15.11,50.6,38.39,86.11,26.54,52.93-17.68,165-28.46,188.41-6"/><path class="cls-154" d="M1.62,84.22c17.65-16.14,94.54,2.62,133.3-.92,18.11-1.66,47.33-29.41,75.86-23.53,73,15,50.46,38.44,86,26.56,53.11-17.75,165.34-28.48,188.69-6.06"/><path class="cls-155" d="M1.63,84.2c17.64-16.11,94.56,2.63,133.31-.93C153,81.61,182.06,53.9,210.53,59.74c73,15,50.31,38.49,85.92,26.58,53.29-17.82,165.7-28.5,189-6.1"/><path class="cls-155" d="M1.63,84.18C19.27,68.1,96.23,86.82,135,83.24c18.06-1.67,46.92-29.33,75.32-23.53,73.06,14.93,50.17,38.54,85.83,26.61,53.46-17.9,166.07-28.54,189.24-6.16"/><path class="cls-156" d="M1.64,84.16c17.63-16,94.62,2.64,133.33-1,18-1.67,46.71-29.28,75.05-23.52,73.1,14.88,50,38.59,85.74,26.63,53.63-18,166.42-28.56,189.5-6.2"/><path class="cls-157" d="M1.65,84.14c17.62-16,94.65,2.65,133.33-1,18-1.68,46.51-29.24,74.78-23.51,73.15,14.81,49.89,38.63,85.65,26.64,53.81-18,166.79-28.58,189.78-6.24"/><path class="cls-158" d="M1.65,84.12c17.62-16,94.68,2.65,133.34-1,18-1.69,46.31-29.2,74.52-23.51,73.19,14.75,49.74,38.68,85.55,26.67C349,68.18,462.21,57.69,485.11,80"/><path class="cls-158" d="M1.66,84.09c17.6-16,94.71,2.67,133.35-1,18-1.7,46.11-29.16,74.25-23.51,73.23,14.69,49.59,38.73,85.45,26.69C348.87,68.1,462.23,57.66,485,80"/><path class="cls-159" d="M1.67,84.07c17.59-15.93,94.74,2.67,133.35-1C153,81.37,180.93,54,209,59.57c73.28,14.64,49.45,38.78,85.36,26.72C348.7,68,462.24,57.62,485,79.9"/><path class="cls-159" d="M1.67,84.05C19.26,68.15,96.44,86.73,135,83c17.89-1.71,45.7-29.07,73.71-23.5,73.32,14.58,49.3,38.83,85.26,26.74,54.51-18.34,168.25-28.69,190.87-6.43"/><path class="cls-160" d="M1.68,84c17.58-15.87,94.8,2.68,133.37-1,17.87-1.72,45.5-29,73.44-23.5C281.86,74,257.66,98.39,293.66,86.27c54.69-18.4,168.61-28.71,191.15-6.48"/><path class="cls-161" d="M1.69,84c17.57-15.84,94.82,2.69,133.37-1,17.85-1.73,45.3-29,73.18-23.5,73.41,14.46,49,38.93,85.08,26.79,54.86-18.48,169-28.74,191.41-6.53"/><path class="cls-162" d="M1.69,84c17.57-15.81,94.86,2.71,133.39-1C152.9,81.21,180.17,54,208,59.46c73.45,14.39,48.88,39,85,26.8C348,67.71,462.3,57.5,484.65,79.69"/><path class="cls-162" d="M1.7,84c17.55-15.78,94.88,2.71,133.39-1C152.88,81.17,180,54,207.73,59.43c73.49,14.33,48.73,39,84.89,26.82,55.21-18.62,169.7-28.78,192-6.61"/><path class="cls-163" d="M1.71,83.94c17.54-15.75,94.91,2.72,133.4-1.06C152.87,81.13,179.79,54,207.47,59.4c73.54,14.27,48.59,39.07,84.8,26.85,55.39-18.7,170.06-28.82,192.23-6.67"/><path class="cls-164" d="M1.71,83.92c17.54-15.72,94.94,2.72,133.41-1.07,17.74-1.76,44.48-28.81,72.1-23.48,73.58,14.21,48.44,39.12,84.7,26.87,55.56-18.77,170.43-28.84,192.51-6.71"/><path class="cls-165" d="M1.72,83.9c17.53-15.69,95,2.73,133.41-1.09,17.72-1.75,44.28-28.76,71.83-23.47,73.63,14.15,48.31,39.17,84.61,26.9,55.74-18.85,170.79-28.87,192.78-6.76"/><path class="cls-165" d="M1.73,83.88c17.52-15.66,95,2.73,133.42-1.1,17.69-1.76,44.07-28.72,71.56-23.47,73.67,14.09,48.16,39.22,84.51,26.92,55.92-18.92,171.16-28.89,193.06-6.81"/><path class="cls-166" d="M1.73,83.85c17.51-15.62,95,2.75,133.43-1.1C152.82,81,179,54.07,206.46,59.29c73.71,14,48,39.26,84.42,26.93,56.08-19,171.51-28.91,193.32-6.85"/><path class="cls-166" d="M1.74,83.83c17.5-15.59,95.05,2.76,133.44-1.11,17.63-1.78,43.66-28.64,71-23.46,73.76,14,47.87,39.31,84.33,27,56.26-19.07,171.88-28.94,193.59-6.9"/><path class="cls-167" d="M1.75,83.81c17.49-15.57,95.08,2.76,133.44-1.13C152.8,80.9,178.65,54.09,206,59.23c73.8,13.9,47.72,39.36,84.23,27,56.44-19.14,172.24-29,193.87-6.94"/><path class="cls-168" d="M1.75,83.79c17.49-15.54,95.11,2.77,133.45-1.14,17.59-1.79,43.26-28.55,70.49-23.45,73.85,13.84,47.59,39.41,84.14,27,56.61-19.21,172.61-29,194.14-7"/><path class="cls-169" d="M1.76,83.77c17.48-15.51,95.14,2.77,133.46-1.15,17.55-1.8,43.05-28.51,70.22-23.45,73.89,13.78,47.44,39.46,84,27,56.79-19.29,173-29,194.42-7"/><path class="cls-169" d="M1.77,83.74c17.47-15.47,95.17,2.79,133.46-1.15,17.53-1.81,42.86-28.47,70-23.45,73.94,13.71,47.3,39.51,83.95,27.05,57-19.36,173.34-29,194.69-7.08"/><path class="cls-170" d="M1.77,83.72c17.46-15.44,95.2,2.8,133.47-1.17,17.51-1.81,42.66-28.42,69.69-23.44,74,13.65,47.15,39.56,83.85,27.07,57.14-19.43,173.7-29.06,195-7.13"/><path class="cls-171" d="M1.78,83.7C19.23,68.29,97,86.5,135.26,82.52c17.48-1.82,42.45-28.38,69.41-23.43,74,13.58,47,39.6,83.76,27.09C345.75,66.67,462.5,57.08,483.67,79"/><path class="cls-172" d="M1.79,83.68C19.23,68.3,97,86.49,135.27,82.49c17.45-1.83,42.25-28.34,69.15-23.43,74.06,13.52,46.86,39.65,83.67,27.11C345.58,66.59,462.51,57.05,483.59,79"/><path class="cls-172" d="M1.79,83.66c17.44-15.35,95.29,2.81,133.5-1.2,17.42-1.84,42-28.3,68.87-23.43,74.11,13.45,46.73,39.7,83.58,27.14C345.4,66.51,462.53,57,483.52,78.9"/><path class="cls-173" d="M1.8,83.64c17.43-15.33,95.32,2.9,133.5-1.22,17.4-1.8,41.84-28.25,68.61-23.42,74.15,13.39,46.58,39.75,83.48,27.16C345.23,66.43,462.54,57,483.44,78.84"/><path class="cls-173" d="M1.81,83.61c17.42-15.29,95.35,2.91,133.5-1.22C152.69,80.58,177,54.18,203.66,59,277.85,72.3,250.09,98.77,287,86.15c58-19.8,175.52-29.19,196.33-7.36"/><path class="cls-174" d="M1.81,83.59c17.41-15.26,95.38,2.91,133.52-1.23,17.35-1.82,41.43-28.17,68.07-23.42,74.24,13.26,46.29,39.85,83.29,27.21,58.19-19.88,175.88-29.22,196.6-7.41"/><path class="cls-175" d="M1.82,83.57c17.4-15.23,95.41,2.92,133.52-1.24,17.33-1.83,41.23-28.13,67.81-23.41,74.28,13.19,46.14,39.89,83.19,27.22,58.37-20,176.25-29.25,196.87-7.46"/><path class="cls-176" d="M1.83,83.55c17.39-15.2,95.43,2.92,133.53-1.26,17.29-1.83,41-28.09,67.53-23.4,74.33,13.12,46,39.94,83.1,27.24,58.55-20,176.61-29.27,197.15-7.5"/><path class="cls-176" d="M1.83,83.53c17.39-15.17,95.47,2.93,133.54-1.27,17.27-1.84,40.82-28.05,67.27-23.4,74.37,13.06,45.85,40,83,27.27,58.71-20.11,177-29.3,197.41-7.55"/><path class="cls-177" d="M1.84,83.5c17.38-15.13,95.49,2.94,133.54-1.27,17.25-1.85,40.62-28,67-23.4,74.42,13,45.72,40,82.92,27.29C344.19,65.94,462.63,56.8,483,78.53"/><path class="cls-178" d="M1.85,83.48c17.36-15.1,95.52,3,133.55-1.28,17.22-1.86,40.41-28,66.73-23.4C276.59,71.73,247.7,98.89,285,86.11c59.07-20.25,177.7-29.34,198-7.64"/><path class="cls-179" d="M1.85,83.46c17.36-15.08,95.55,3,133.56-1.3,17.19-1.86,40.21-27.92,66.46-23.39,74.51,12.86,45.43,40.14,82.73,27.34,59.24-20.33,178.06-29.38,198.24-7.69"/><path class="cls-179" d="M1.86,83.44c17.35-15,95.58,3,133.57-1.31,17.16-1.87,40-27.88,66.19-23.39,74.55,12.8,45.28,40.19,82.63,27.36,59.42-20.4,178.43-29.4,198.51-7.73"/><path class="cls-180" d="M1.86,83.42c17.35-15,95.61,3,133.58-1.32,17.14-1.88,39.8-27.84,65.92-23.38C276,71.44,246.5,99,283.9,86.1c59.6-20.48,178.79-29.43,198.78-7.79"/><path class="cls-180" d="M1.87,83.4c17.34-15,95.64,3,133.58-1.33,17.12-1.89,39.61-27.8,65.66-23.38,74.64,12.66,45,40.28,82.44,27.4,59.77-20.55,179.16-29.45,199.06-7.83"/><path class="cls-181" d="M1.88,83.37c17.33-15,95.66,3,133.59-1.34,17.08-1.89,39.4-27.75,65.38-23.37C275.54,71.25,245.71,99,283.21,86.08c59.94-20.62,179.51-29.47,199.32-7.87"/><path class="cls-181" d="M1.88,83.35c17.32-14.92,95.7,3,133.6-1.35,17.06-1.9,39.2-27.71,65.12-23.37C275.33,71.15,245.31,99,282.86,86.08c60.12-20.7,179.88-29.5,199.6-7.93"/><path class="cls-182" d="M1.89,83.33C19.2,68.44,97.61,86.32,135.5,82c17-1.91,39-27.67,64.85-23.37C275.12,71.06,244.91,99,282.51,86.07c60.29-20.77,180.24-29.53,199.87-8"/><path class="cls-182" d="M1.9,83.31c17.3-14.86,95.75,3,133.61-1.37,17-1.92,38.79-27.64,64.58-23.37C274.91,71,244.51,99,282.16,86.06c60.47-20.84,180.61-29.55,200.14-8"/><path class="cls-183" d="M1.9,83.29c17.3-14.84,95.78,3,133.62-1.39,17-1.92,38.59-27.59,64.32-23.35,74.85,12.31,44.27,40.51,82,27.51,60.64-20.92,181-29.58,200.42-8.06"/><path class="cls-184" d="M1.91,83.27c17.29-14.81,95.81,3,133.63-1.4,17-1.93,38.38-27.55,64-23.35,74.9,12.24,44.11,40.49,81.88,27.53,60.78-21.11,181.34-29.6,200.69-8.11"/><path class="cls-184" d="M1.92,83.24c17.28-14.77,95.83,3,133.63-1.4,16.93-1.94,38.18-27.51,63.78-23.35,74.94,12.17,44,40.54,81.78,27.56,61-21.19,181.7-29.63,201-8.16"/><path class="cls-185" d="M1.92,83.22c17.27-14.74,95.87,3,133.65-1.41,16.9-2,38-27.47,63.5-23.35,75,12.11,43.82,40.6,81.7,27.58C341.9,64.79,462.83,56.38,482,77.84"/><path class="cls-186" d="M1.93,83.2c17.26-14.71,95.89,3,133.65-1.43,16.87-2,37.77-27.42,63.24-23.34,75,12,43.68,40.65,81.6,27.6,61.3-21.32,182.42-29.68,201.51-8.25"/><path class="cls-187" d="M1.94,83.18c17.25-14.68,95.92,3,133.65-1.44,16.85-2,37.57-27.39,63-23.34,75.08,12,43.54,40.7,81.51,27.63,61.48-21.39,182.79-29.71,201.78-8.3"/><path class="cls-187" d="M1.94,83.16c17.25-14.65,96,3,133.67-1.45,16.82-2,37.36-27.35,62.7-23.34C273.43,70.27,241.7,99.12,279.72,86c61.66-21.46,183.15-29.73,202-8.34"/><path class="cls-188" d="M2,83.13c17.24-14.61,96,3.05,133.67-1.45,16.8-2,37.16-27.31,62.43-23.33,75.17,11.82,43.26,40.8,81.32,27.66,61.84-21.52,183.52-29.75,202.33-8.38"/><path class="cls-189" d="M2,83.11c17.23-14.59,96,3,133.68-1.47,16.76-2,37-27.26,62.16-23.32C273,70.07,240.91,99.17,279,86c62-21.6,183.88-29.78,202.6-8.44"/><path class="cls-190" d="M2,83.09c17.22-14.56,96,3.06,133.69-1.48,16.74-2,36.75-27.22,61.9-23.32C272.8,70,240.51,99.19,278.67,86c62.2-21.66,184.25-29.81,202.88-8.48"/><path class="cls-190" d="M2,83.07C19.18,68.54,98,86.13,135.66,81.58c16.72-2,36.55-27.18,61.63-23.32,75.3,11.61,42.82,41,81,27.73,62.36-21.73,184.6-29.83,203.14-8.52"/><path class="cls-191" d="M2,83.05c17.2-14.5,96.09,3.07,133.7-1.5C152.37,79.54,172,54.4,197,58.23,272.38,69.76,239.72,99.24,278,86c62.54-21.8,185-29.86,203.41-8.58"/><path class="cls-191" d="M2,83c17.2-14.47,96.13,3.07,133.71-1.52,16.66-2,36.14-27.1,61.09-23.31C272.17,69.66,239.32,99.26,277.63,86,340.35,64.11,463,56.1,481.32,77.36"/><path class="cls-192" d="M2,83c17.19-14.43,96.15,3.08,133.72-1.52,16.63-2,35.94-27.06,60.82-23.3C272,69.56,238.92,99.29,277.28,86c62.9-22,185.7-29.91,204-8.67"/><path class="cls-193" d="M2,83c17.17-14.4,96.18,3.09,133.72-1.53,16.61-2,35.74-27,60.55-23.3C271.75,69.46,238.52,99.31,276.93,86,340,64,463,56,481.17,77.26"/><path class="cls-194" d="M2,83c17.17-14.38,96.21,3.09,133.73-1.54,16.59-2,35.54-27,60.29-23.3C271.54,69.36,238.13,99.33,276.58,86,339.84,63.88,463,56,481.09,77.2"/><path class="cls-195" d="M2,82.94C19.17,68.59,98.25,86,135.75,81.38c16.55-2,35.33-26.94,60-23.29,75.57,11.16,42,41.26,80.47,27.87C339.66,63.81,463,56,481,77.15"/><path class="cls-195" d="M2,82.92C19.17,68.6,98.28,86,135.76,81.35c16.53-2,35.13-26.94,59.75-23.29C271.14,69,237.33,99.38,275.89,86c63.6-22.22,187.15-30,205.05-8.85"/><path class="cls-196" d="M2,82.89C19.17,68.61,98.32,86,135.78,81.32c16.5-2.06,34.92-26.9,59.47-23.29,75.68,10.91,41.69,41.37,80.29,27.91,63.78-22.28,187.51-30,205.32-8.9"/><path class="cls-196" d="M2,82.87C19.17,68.62,98.35,86,135.79,81.29,152.27,79.22,170.51,54.44,195,58c75.71,10.86,41.54,41.42,80.19,27.94,64-22.36,187.88-30.06,205.6-9"/><path class="cls-197" d="M2,82.85C19.16,68.63,98.39,86,135.8,81.25c16.46-2.07,34.52-26.79,58.95-23.27,75.75,10.8,41.39,41.47,80.09,28,64.14-22.42,188.24-30.09,205.87-9"/><path class="cls-197" d="M2,82.83C19.16,68.64,98.42,86,135.82,81.22c16.42-2.08,34.31-26.75,58.67-23.27,75.79,10.76,41.25,41.52,80,28,64.31-22.5,188.61-30.12,206.15-9"/><path class="cls-198" d="M2.05,82.81c17.11-14.16,96.41,3.13,133.78-1.62,16.4-2.09,34.11-26.7,58.41-23.27,75.83,10.71,41.11,41.57,79.9,28,64.49-22.56,189-30.14,206.42-9.09"/></g></g></svg>